<svg aria-hidden="true" style="position: absolute; width= 0 height= 0 overflow: hidden;" version="1.1" xmlns="http://www.w3.org/2000/svg" xmlns:xlink="http://www.w3.org/1999/xlink">
<defs>
<symbol id="icon-save-list-fill" viewBox="0 0 14 22">
<path d="M1.03516 21.5215C1.26953 21.5215 1.49089 21.4418 1.69922 21.2822C1.90755 21.1228 2.23307 20.8282 2.67578 20.3984L6.49414 16.6387C6.55273 16.5736 6.61133 16.5736 6.66992 16.6387L10.4883 20.3984C10.931 20.8216 11.2549 21.1146 11.46 21.2773C11.6651 21.4401 11.888 21.5215 12.1289 21.5215C12.4544 21.5215 12.7083 21.4174 12.8906 21.209C13.0729 21.0007 13.1641 20.7077 13.1641 20.3301V3.37695C13.1641 2.44596 12.933 1.74609 12.4707 1.27734C12.0084 0.808594 11.3183 0.574219 10.4004 0.574219H2.76367C1.8457 0.574219 1.1556 0.808594 0.693359 1.27734C0.23112 1.74609 0 2.44596 0 3.37695V20.3301C0 20.7077 0.091146 21.0007 0.273438 21.209C0.455729 21.4174 0.709637 21.5215 1.03516 21.5215Z"/>
</symbol>
<symbol id="icon-save-list" viewBox="0 0 14 22">
<path d="M1.38575 21.6211C1.62012 21.6211 1.84147 21.5414 2.04981 21.3818C2.25814 21.2224 2.58366 20.9278 3.02637 20.498L6.84473 16.7383C6.90332 16.6732 6.96191 16.6732 7.02051 16.7383L10.8389 20.498C11.2816 20.9212 11.6055 21.2142 11.8106 21.3769C12.0157 21.5397 12.2386 21.6211 12.4795 21.6211C12.805 21.6211 13.0589 21.517 13.2412 21.3086C13.4235 21.1003 13.5147 20.8073 13.5147 20.4297V3.47656C13.5147 2.54557 13.2836 1.8457 12.8213 1.37695C12.359 0.908203 11.6689 0.673828 10.751 0.673828H3.11426C2.19629 0.673828 1.50619 0.908203 1.04394 1.37695C0.581706 1.8457 0.350586 2.54557 0.350586 3.47656V20.4297C0.350586 20.8073 0.441732 21.1003 0.624024 21.3086C0.806315 21.517 1.06022 21.6211 1.38575 21.6211ZM2.18653 18.9843C2.11491 19.0495 2.04818 19.0739 1.98633 19.0576C1.92448 19.0414 1.89356 18.9844 1.89356 18.8867V3.4961C1.89356 3.07292 2.00261 2.7539 2.22071 2.53906C2.43881 2.32422 2.7627 2.2168 3.19239 2.2168H10.6826C11.1058 2.2168 11.4264 2.32422 11.6445 2.53906C11.8626 2.7539 11.9717 3.07292 11.9717 3.4961V18.8867C11.9717 18.9844 11.9408 19.0414 11.8789 19.0576C11.817 19.0739 11.7503 19.0495 11.6787 18.9843L7.4502 14.8828C7.29394 14.7331 7.12142 14.6582 6.93262 14.6582C6.74382 14.6582 6.57129 14.7331 6.41504 14.8828L2.18653 18.9843Z"/>
</symbol>
<symbol id="icon-search" viewBox="0 0 20 21">
<path d="M0.899231 8.61328C0.899231 9.6875 1.10105 10.695 1.5047 11.6357C1.90835 12.5765 2.46824 13.405 3.18439 14.1211C3.90054 14.8372 4.72899 15.3971 5.66974 15.8008C6.61049 16.2044 7.61798 16.4062 8.6922 16.4062C9.53855 16.4062 10.3458 16.276 11.114 16.0156C11.8823 15.7552 12.5854 15.3971 13.2234 14.9414L18.0281 19.7558C18.1453 19.8665 18.2739 19.9496 18.4138 20.0049C18.5538 20.0602 18.702 20.0879 18.8582 20.0879C19.0796 20.0879 19.2749 20.0374 19.4441 19.9365C19.6134 19.8356 19.7452 19.6972 19.8396 19.5215C19.934 19.3457 19.9812 19.1504 19.9812 18.9355C19.9812 18.7793 19.9536 18.6328 19.8982 18.4961C19.8429 18.3594 19.7632 18.2389 19.659 18.1348L14.8836 13.3301C15.3849 12.679 15.7771 11.9531 16.0603 11.1523C16.3435 10.3516 16.4851 9.50521 16.4851 8.61328C16.4851 7.53906 16.2833 6.53158 15.8797 5.59082C15.4761 4.65007 14.9162 3.82162 14.2 3.10547C13.4839 2.38933 12.6554 1.82943 11.7146 1.42578C10.7739 1.02214 9.76642 0.820312 8.6922 0.820312C7.61798 0.820312 6.61049 1.02214 5.66974 1.42578C4.72899 1.82943 3.90054 2.38933 3.18439 3.10547C2.46824 3.82162 1.90835 4.65007 1.5047 5.59082C1.10105 6.53158 0.899231 7.53906 0.899231 8.61328ZM2.56915 8.61328C2.56915 7.76693 2.72703 6.97429 3.04278 6.23535C3.35854 5.49642 3.79799 4.84538 4.36114 4.28222C4.92429 3.71908 5.57534 3.27962 6.31427 2.96386C7.0532 2.64811 7.84585 2.49023 8.6922 2.49023C9.53855 2.49023 10.3312 2.64811 11.0701 2.96386C11.8091 3.27962 12.4585 3.71908 13.0183 4.28222C13.5783 4.84538 14.0177 5.49642 14.3367 6.23535C14.6557 6.97429 14.8152 7.76693 14.8152 8.61328C14.8152 9.45964 14.6557 10.2523 14.3367 10.9912C14.0177 11.7301 13.5783 12.3795 13.0183 12.9394C12.4585 13.4993 11.8091 13.9388 11.0701 14.2578C10.3312 14.5768 9.53855 14.7363 8.6922 14.7363C7.84585 14.7363 7.0532 14.5768 6.31427 14.2578C5.57534 13.9388 4.92429 13.4993 4.36114 12.9394C3.79799 12.3795 3.35854 11.7301 3.04278 10.9912C2.72703 10.2523 2.56915 9.45964 2.56915 8.61328Z"/>
</symbol>
<symbol id="icon-edit-info" viewBox="0 0 21 21">
<path d="M3.79663 19.2887H15.2614C16.1404 19.2887 16.8223 19.0364 17.3073 18.5318C17.7924 18.0273 18.0349 17.2704 18.0349 16.2613V5.82187L16.4626 7.39414V16.1832C16.4626 16.691 16.3422 17.0735 16.1013 17.3307C15.8605 17.5878 15.574 17.7164 15.2419 17.7164H3.82592C3.33764 17.7164 2.96167 17.5878 2.69799 17.3307C2.43433 17.0735 2.30249 16.691 2.30249 16.1832V5.09922C2.30249 4.59141 2.43433 4.20729 2.69799 3.94687C2.96167 3.68646 3.33764 3.55625 3.82592 3.55625H12.7224L14.2947 1.98398H3.79663C2.78101 1.98398 2.01603 2.23626 1.50171 2.74082C0.987386 3.24538 0.730225 4.00222 0.730225 5.01133V16.2613C0.730225 17.2704 0.987386 18.0273 1.50171 18.5318C2.01603 19.0364 2.78101 19.2887 3.79663 19.2887ZM7.35131 12.9605L9.25561 12.1305L18.3767 3.01914L17.0388 1.70078L7.92749 10.8121L7.04858 12.648C7.00952 12.7327 7.02743 12.8157 7.10229 12.8971C7.17717 12.9784 7.26017 12.9996 7.35131 12.9605ZM19.0993 2.30625L19.8025 1.58359C19.9653 1.40781 20.0483 1.21413 20.0515 1.00254C20.0548 0.790951 19.9718 0.603776 19.8025 0.441016L19.5779 0.206641C19.4281 0.0569011 19.2475 -0.0114584 19.0359 0.0015625C18.8243 0.0145833 18.6371 0.0992188 18.4743 0.255469L17.7614 0.958594L19.0993 2.30625Z"/>
</symbol>
<symbol id="icon-my-movie" viewBox="0 0 24 19">
<path d="M2.43542 18.1116H21.4979C22.1034 18.1116 22.5851 17.9342 22.9432 17.5794C23.3013 17.2245 23.4803 16.7509 23.4803 16.1585V2.06665C23.4803 1.48071 23.3013 1.01034 22.9432 0.655517C22.5851 0.3007 22.1034 0.123291 21.4979 0.123291H2.43542C1.83646 0.123291 1.35632 0.3007 0.994995 0.655517C0.633667 1.01034 0.453003 1.48071 0.453003 2.06665V16.1585C0.453003 16.7509 0.633667 17.2245 0.994995 17.5794C1.35632 17.9342 1.83646 18.1116 2.43542 18.1116ZM2.44519 16.5393C2.10014 16.5393 1.92761 16.37 1.92761 16.0315V14.928C1.92761 14.7913 1.97156 14.679 2.05945 14.5911C2.14734 14.5032 2.2629 14.4592 2.40612 14.4592H3.66589C3.80912 14.4592 3.92305 14.5032 4.00769 14.5911C4.09233 14.679 4.13464 14.7913 4.13464 14.928V16.0608C4.13464 16.1975 4.09233 16.3115 4.00769 16.4026C3.92305 16.4937 3.80912 16.5393 3.66589 16.5393H2.44519ZM2.40612 13.3069C2.2629 13.3069 2.14734 13.2597 2.05945 13.1653C1.97156 13.0709 1.92761 12.9618 1.92761 12.8381V11.7249C1.92761 11.5816 1.97156 11.4661 2.05945 11.3782C2.14734 11.2903 2.2629 11.2463 2.40612 11.2463H3.66589C3.80912 11.2463 3.92305 11.2903 4.00769 11.3782C4.09233 11.4661 4.13464 11.5816 4.13464 11.7249V12.8381C4.13464 12.9618 4.09233 13.0709 4.00769 13.1653C3.92305 13.2597 3.80912 13.3069 3.66589 13.3069H2.40612ZM2.40612 10.1428C2.2629 10.1428 2.14734 10.0972 2.05945 10.0061C1.97156 9.91496 1.92761 9.80753 1.92761 9.68383V8.57055C1.92761 8.42733 1.97156 8.31177 2.05945 8.22387C2.14734 8.13599 2.2629 8.09204 2.40612 8.09204H3.66589C3.80912 8.09204 3.92305 8.13599 4.00769 8.22387C4.09233 8.31177 4.13464 8.42733 4.13464 8.57055V9.68383C4.13464 9.80753 4.09233 9.91496 4.00769 10.0061C3.92305 10.0972 3.80912 10.1428 3.66589 10.1428H2.40612ZM2.40612 7.00805C2.2629 7.00805 2.14734 6.96248 2.05945 6.87133C1.97156 6.78019 1.92761 6.67277 1.92761 6.54907V5.42602C1.92761 5.2828 1.97156 5.16724 2.05945 5.07934C2.14734 4.99146 2.2629 4.94751 2.40612 4.94751H3.66589C3.80912 4.94751 3.92305 4.99146 4.00769 5.07934C4.09233 5.16724 4.13464 5.2828 4.13464 5.42602V6.54907C4.13464 6.67277 4.09233 6.78019 4.00769 6.87133C3.92305 6.96248 3.80912 7.00805 3.66589 7.00805H2.40612ZM2.40612 3.77563C2.2629 3.77563 2.14734 3.73006 2.05945 3.63891C1.97156 3.54777 1.92761 3.44035 1.92761 3.31665V2.21313C1.92761 1.86808 2.10014 1.69555 2.44519 1.69555H3.66589C3.80912 1.69555 3.92305 1.7395 4.00769 1.82739C4.09233 1.91528 4.13464 2.03084 4.13464 2.17407V3.31665C4.13464 3.44035 4.09233 3.54777 4.00769 3.63891C3.92305 3.73006 3.80912 3.77563 3.66589 3.77563H2.40612ZM5.98034 16.5393C5.8306 16.5393 5.71504 16.4986 5.63366 16.4172C5.55228 16.3359 5.51159 16.2203 5.51159 16.0706V10.3772C5.51159 10.234 5.55228 10.1217 5.63366 10.0403C5.71504 9.9589 5.8306 9.91821 5.98034 9.91821H17.9628C18.106 9.91821 18.2183 9.9589 18.2997 10.0403C18.3811 10.1217 18.4218 10.234 18.4218 10.3772V16.0706C18.4218 16.2203 18.3811 16.3359 18.2997 16.4172C18.2183 16.4986 18.106 16.5393 17.9628 16.5393H5.98034ZM5.98034 8.33618C5.8306 8.33618 5.71504 8.29549 5.63366 8.21411C5.55228 8.13273 5.51159 8.02043 5.51159 7.87719V2.14477C5.51159 2.00155 5.55228 1.89087 5.63366 1.81274C5.71504 1.73462 5.8306 1.69555 5.98034 1.69555H17.9628C18.106 1.69555 18.2183 1.73462 18.2997 1.81274C18.3811 1.89087 18.4218 2.00155 18.4218 2.14477V7.87719C18.4218 8.02043 18.3811 8.13273 18.2997 8.21411C18.2183 8.29549 18.106 8.33618 17.9628 8.33618H5.98034ZM20.2675 16.5393C20.1308 16.5393 20.0184 16.4937 19.9305 16.4026C19.8426 16.3115 19.7987 16.1975 19.7987 16.0608V14.928C19.7987 14.7913 19.8426 14.679 19.9305 14.5911C20.0184 14.5032 20.1308 14.4592 20.2675 14.4592H21.5272C21.6705 14.4592 21.786 14.5032 21.8739 14.5911C21.9618 14.679 22.0057 14.7913 22.0057 14.928V16.0315C22.0057 16.37 21.8332 16.5393 21.4882 16.5393H20.2675ZM20.2675 13.3069C20.1308 13.3069 20.0184 13.2597 19.9305 13.1653C19.8426 13.0709 19.7987 12.9618 19.7987 12.8381V11.7249C19.7987 11.5816 19.8426 11.4661 19.9305 11.3782C20.0184 11.2903 20.1308 11.2463 20.2675 11.2463H21.5272C21.6769 11.2463 21.7941 11.2903 21.8788 11.3782C21.9634 11.4661 22.0057 11.5816 22.0057 11.7249V12.8381C22.0057 12.9618 21.9618 13.0709 21.8739 13.1653C21.786 13.2597 21.6705 13.3069 21.5272 13.3069H20.2675ZM20.2675 10.1428C20.1308 10.1428 20.0184 10.0972 19.9305 10.0061C19.8426 9.91496 19.7987 9.80753 19.7987 9.68383V8.57055C19.7987 8.42733 19.8426 8.31177 19.9305 8.22387C20.0184 8.13599 20.1308 8.09204 20.2675 8.09204H21.5272C21.6769 8.09204 21.7941 8.13599 21.8788 8.22387C21.9634 8.31177 22.0057 8.42733 22.0057 8.57055V9.68383C22.0057 9.80753 21.9618 9.91496 21.8739 10.0061C21.786 10.0972 21.6705 10.1428 21.5272 10.1428H20.2675ZM20.2675 7.00805C20.1308 7.00805 20.0184 6.96248 19.9305 6.87133C19.8426 6.78019 19.7987 6.67277 19.7987 6.54907V5.42602C19.7987 5.2828 19.8426 5.16724 19.9305 5.07934C20.0184 4.99146 20.1308 4.94751 20.2675 4.94751H21.5272C21.6769 4.94751 21.7941 4.99146 21.8788 5.07934C21.9634 5.16724 22.0057 5.2828 22.0057 5.42602V6.54907C22.0057 6.67277 21.9618 6.78019 21.8739 6.87133C21.786 6.96248 21.6705 7.00805 21.5272 7.00805H20.2675ZM20.2675 3.77563C20.1308 3.77563 20.0184 3.73006 19.9305 3.63891C19.8426 3.54777 19.7987 3.44035 19.7987 3.31665V2.17407C19.7987 2.03084 19.8426 1.91528 19.9305 1.82739C20.0184 1.7395 20.1308 1.69555 20.2675 1.69555H21.4882C21.8332 1.69555 22.0057 1.86808 22.0057 2.21313V3.31665C22.0057 3.44035 21.9618 3.54777 21.8739 3.63891C21.786 3.73006 21.6705 3.77563 21.5272 3.77563H20.2675Z"/>
</symbol>
<symbol id="icon-history" viewBox="0 0 22 20">
<path d="M11.5182 4.23828C11.3034 4.23828 11.1194 4.31315 10.9664 4.46289C10.8134 4.61263 10.7369 4.79492 10.7369 5.00977V10.459C10.7369 10.5762 10.7565 10.6852 10.7955 10.7861C10.8346 10.887 10.8932 10.9896 10.9713 11.0938L13.3834 14.2773C13.5462 14.4856 13.7334 14.6077 13.9449 14.6436C14.1565 14.6794 14.36 14.6289 14.5553 14.4922C14.7376 14.3685 14.8369 14.2008 14.8531 13.9893C14.8695 13.7777 14.8028 13.5742 14.653 13.3789L11.401 8.99414L12.2897 11.7285V5.00977C12.2897 4.79492 12.2149 4.61263 12.0651 4.46289C11.9154 4.31315 11.7331 4.23828 11.5182 4.23828ZM11.8893 19.9219C13.25 19.9219 14.5309 19.6615 15.7321 19.1406C16.9333 18.6198 17.9928 17.9004 18.9108 16.9824C19.8288 16.0645 20.5482 15.0049 21.069 13.8037C21.5898 12.6026 21.8502 11.3216 21.8502 9.96094C21.8502 8.60026 21.5898 7.31933 21.069 6.11816C20.5482 4.91699 19.8288 3.85742 18.9108 2.93945C17.9928 2.02148 16.9333 1.30208 15.7321 0.78125C14.5309 0.260417 13.25 0 11.8893 0C10.5286 0 9.24771 0.260417 8.04654 0.78125C6.84536 1.30208 5.78579 2.01986 4.86783 2.93457C3.94986 3.84928 3.23046 4.90723 2.70963 6.1084C2.18879 7.30957 1.92838 8.5905 1.92838 9.95117H3.58853C3.58853 8.79883 3.80174 7.72136 4.22818 6.71875C4.65461 5.71614 5.24868 4.83724 6.01041 4.08203C6.77212 3.32682 7.65428 2.736 8.65689 2.30957C9.65951 1.88314 10.737 1.66992 11.8893 1.66992C13.0417 1.66992 14.1191 1.88314 15.1217 2.30957C16.1243 2.736 17.0049 3.32845 17.7633 4.08691C18.5218 4.84538 19.1159 5.72591 19.5455 6.72852C19.9753 7.73112 20.1901 8.80859 20.1901 9.96094C20.1901 11.1133 19.9753 12.1924 19.5455 13.1982C19.1159 14.2041 18.5218 15.0862 17.7633 15.8447C17.0049 16.6032 16.1243 17.1973 15.1217 17.627C14.1191 18.0567 13.0417 18.2682 11.8893 18.2617C10.9583 18.2552 10.0762 18.1104 9.24283 17.8271C8.40949 17.5439 7.64614 17.1452 6.95279 16.6309C6.25943 16.1166 5.66535 15.5143 5.17056 14.8242C5.02081 14.6224 4.84015 14.4938 4.62857 14.4385C4.41698 14.3832 4.20702 14.4173 3.99869 14.541C3.80337 14.6647 3.68456 14.8438 3.64224 15.0781C3.59992 15.3125 3.6634 15.5371 3.83267 15.752C4.45116 16.5788 5.17707 17.3063 6.01041 17.9346C6.84374 18.5629 7.75845 19.0511 8.75455 19.3994C9.75067 19.7477 10.7956 19.9219 11.8893 19.9219ZM0.727198 8.07617C0.492824 8.07617 0.317043 8.12337 0.199855 8.21777C0.0826674 8.31218 0.0273288 8.4375 0.0338392 8.59375C0.0403496 8.75 0.105454 8.91927 0.229151 9.10156L2.41666 12.207C2.57942 12.4349 2.76496 12.5472 2.9733 12.5439C3.18163 12.5407 3.36392 12.4284 3.52017 12.207L5.70766 9.0918C5.83137 8.90951 5.89484 8.74186 5.8981 8.58887C5.90135 8.43588 5.84438 8.31218 5.7272 8.21777C5.61001 8.12337 5.43749 8.07617 5.20963 8.07617H0.727198Z" fill="black" fill-opacity="0.85"/>
</symbol>
<symbol id="icon-btn-menu-comment" viewBox="0 0 21 21">
<path d="M10.9587 20.8887C12.3194 20.8887 13.6003 20.6283 14.8014 20.1074C16.0026 19.5866 17.0622 18.8672 17.9801 17.9492C18.8981 17.0313 19.6175 15.9717 20.1383 14.7705C20.6592 13.5694 20.9196 12.2885 20.9196 10.9278C20.9196 9.56709 20.6592 8.28616 20.1383 7.08499C19.6175 5.88382 18.8981 4.82425 17.9801 3.90628C17.0622 2.98831 16.001 2.26891 14.7965 1.74808C13.5921 1.22724 12.3096 0.966827 10.9489 0.966827C9.58824 0.966827 8.30731 1.22724 7.10614 1.74808C5.90497 2.26891 4.84703 2.98831 3.93231 3.90628C3.0176 4.82425 2.29982 5.88382 1.77899 7.08499C1.25816 8.28616 0.997742 9.56709 0.997742 10.9278C0.997742 12.2885 1.25816 13.5694 1.77899 14.7705C2.29982 15.9717 3.01923 17.0313 3.93719 17.9492C4.85517 18.8672 5.91473 19.5866 7.1159 20.1074C8.31707 20.6283 9.598 20.8887 10.9587 20.8887ZM10.9587 19.2285C9.80634 19.2285 8.72886 19.0137 7.72626 18.584C6.72365 18.1544 5.84312 17.5603 5.08465 16.8018C4.32619 16.0434 3.73375 15.1628 3.30731 14.1602C2.88088 13.1576 2.66766 12.0801 2.66766 10.9278C2.66766 9.77542 2.88088 8.69795 3.30731 7.69535C3.73375 6.69274 4.32456 5.81058 5.07977 5.04886C5.83498 4.28714 6.71389 3.69306 7.71649 3.26663C8.7191 2.8402 9.79657 2.62699 10.9489 2.62699C12.1013 2.62699 13.1787 2.8402 14.1813 3.26663C15.1839 3.69306 16.0661 4.28714 16.8278 5.04886C17.5896 5.81058 18.1853 6.69274 18.6149 7.69535C19.0446 8.69795 19.2594 9.77542 19.2594 10.9278C19.2594 12.0801 19.0462 13.1576 18.6198 14.1602C18.1934 15.1628 17.6009 16.0434 16.8424 16.8018C16.084 17.5603 15.2018 18.1544 14.1959 18.584C13.1901 19.0137 12.1111 19.2285 10.9587 19.2285ZM6.0368 8.36917H15.9098C16.1247 8.36917 16.3005 8.30732 16.4372 8.18363C16.5739 8.05993 16.6422 7.89391 16.6422 7.68558C16.6422 7.47724 16.5739 7.3096 16.4372 7.18265C16.3005 7.05569 16.1247 6.99222 15.9098 6.99222H6.0368C5.82196 6.99222 5.64456 7.05569 5.50458 7.18265C5.36461 7.3096 5.29462 7.47724 5.29462 7.68558C5.29462 7.89391 5.36461 8.05993 5.50458 8.18363C5.64456 8.30732 5.82196 8.36917 6.0368 8.36917ZM6.0368 11.6016H15.9098C16.1247 11.6016 16.3005 11.5398 16.4372 11.416C16.5739 11.2924 16.6422 11.1264 16.6422 10.918C16.6422 10.7097 16.5739 10.542 16.4372 10.4151C16.3005 10.2881 16.1247 10.2246 15.9098 10.2246H6.0368C5.82196 10.2246 5.64456 10.2881 5.50458 10.4151C5.36461 10.542 5.29462 10.7097 5.29462 10.918C5.29462 11.1264 5.36461 11.2924 5.50458 11.416C5.64456 11.5398 5.82196 11.6016 6.0368 11.6016ZM6.0368 14.8438H15.9098C16.1247 14.8438 16.3005 14.7803 16.4372 14.6533C16.5739 14.5264 16.6422 14.362 16.6422 14.1602C16.6422 13.9519 16.5739 13.7842 16.4372 13.6572C16.3005 13.5303 16.1247 13.4668 15.9098 13.4668H6.0368C5.82196 13.4668 5.64456 13.5303 5.50458 13.6572C5.36461 13.7842 5.29462 13.9519 5.29462 14.1602C5.29462 14.362 5.36461 14.5264 5.50458 14.6533C5.64456 14.7803 5.82196 14.8438 6.0368 14.8438Z"/>
</symbol>
<symbol id="icon-add" viewBox="0 0 21 21">
<path d="M0.697662 8.92776C0.697662 9.16865 0.783925 9.37373 0.956451 9.543C1.12898 9.71227 1.33243 9.7969 1.5668 9.7969H7.88516V16.1152C7.88516 16.3496 7.9698 16.5531 8.13907 16.7256C8.30834 16.8982 8.51342 16.9844 8.7543 16.9844C8.99519 16.9844 9.2019 16.8982 9.37442 16.7256C9.54695 16.5531 9.63321 16.3496 9.63321 16.1152V9.7969H15.9418C16.1762 9.7969 16.3796 9.71227 16.5522 9.543C16.7247 9.37373 16.811 9.16865 16.811 8.92776C16.811 8.68688 16.7247 8.48017 16.5522 8.30764C16.3796 8.13512 16.1762 8.04885 15.9418 8.04885H9.63321V1.74027C9.63321 1.50589 9.54695 1.30244 9.37442 1.12991C9.2019 0.957387 8.99519 0.871124 8.7543 0.871124C8.51342 0.871124 8.30834 0.957387 8.13907 1.12991C7.9698 1.30244 7.88516 1.50589 7.88516 1.74027V8.04885H1.5668C1.33243 8.04885 1.12898 8.13512 0.956451 8.30764C0.783925 8.48017 0.697662 8.68688 0.697662 8.92776Z"/>
</symbol>
<symbol id="icon-add-circle" viewBox="0 0 21 21">
<path d="M10.2499 20.8887C11.6106 20.8887 12.8915 20.6283 14.0926 20.1074C15.2938 19.5866 16.3534 18.8672 17.2713 17.9492C18.1893 17.0313 18.9087 15.9717 19.4295 14.7705C19.9504 13.5694 20.2108 12.2885 20.2108 10.9278C20.2108 9.56709 19.9504 8.28616 19.4295 7.08499C18.9087 5.88382 18.1893 4.82425 17.2713 3.90628C16.3534 2.98831 15.2922 2.26891 14.0877 1.74808C12.8833 1.22724 11.6008 0.966827 10.2401 0.966827C8.87944 0.966827 7.59851 1.22724 6.39734 1.74808C5.19617 2.26891 4.13822 2.98831 3.22351 3.90628C2.3088 4.82425 1.59102 5.88382 1.07019 7.08499C0.549357 8.28616 0.28894 9.56709 0.28894 10.9278C0.28894 12.2885 0.549357 13.5694 1.07019 14.7705C1.59102 15.9717 2.31042 17.0313 3.22839 17.9492C4.14636 18.8672 5.20593 19.5866 6.4071 20.1074C7.60827 20.6283 8.8892 20.8887 10.2499 20.8887ZM10.2499 19.2285C9.09753 19.2285 8.02006 19.0137 7.01746 18.584C6.01485 18.1544 5.13432 17.5603 4.37585 16.8018C3.61739 16.0434 3.02494 15.1628 2.59851 14.1602C2.17208 13.1576 1.95886 12.0801 1.95886 10.9278C1.95886 9.77542 2.17208 8.69795 2.59851 7.69535C3.02494 6.69274 3.61576 5.81058 4.37097 5.04886C5.12618 4.28714 6.00508 3.69306 7.00769 3.26663C8.0103 2.8402 9.08777 2.62699 10.2401 2.62699C11.3925 2.62699 12.4699 2.8402 13.4725 3.26663C14.4751 3.69306 15.3573 4.28714 16.119 5.04886C16.8808 5.81058 17.4765 6.69274 17.9061 7.69535C18.3358 8.69795 18.5506 9.77542 18.5506 10.9278C18.5506 12.0801 18.3374 13.1576 17.911 14.1602C17.4846 15.1628 16.8921 16.0434 16.1336 16.8018C15.3752 17.5603 14.493 18.1544 13.4871 18.584C12.4813 19.0137 11.4023 19.2285 10.2499 19.2285ZM5.71863 10.9278C5.71863 11.1621 5.79675 11.3542 5.953 11.5039C6.10925 11.6537 6.31108 11.7285 6.55847 11.7285H9.42956V14.6094C9.42956 14.8568 9.50443 15.057 9.65417 15.21C9.80391 15.363 9.99597 15.4395 10.2304 15.4395C10.4777 15.4395 10.6779 15.363 10.8309 15.21C10.9839 15.057 11.0604 14.8568 11.0604 14.6094V11.7285H13.9412C14.1886 11.7285 14.3888 11.6537 14.5418 11.5039C14.6948 11.3542 14.7713 11.1621 14.7713 10.9278C14.7713 10.6804 14.6948 10.4802 14.5418 10.3272C14.3888 10.1742 14.1886 10.0977 13.9412 10.0977H11.0604V7.2266C11.0604 6.97269 10.9839 6.76924 10.8309 6.61624C10.6779 6.46324 10.4777 6.38675 10.2304 6.38675C9.99597 6.38675 9.80391 6.46487 9.65417 6.62113C9.50443 6.77737 9.42956 6.9792 9.42956 7.2266V10.0977H6.55847C6.30456 10.0977 6.10111 10.1742 5.94812 10.3272C5.79513 10.4802 5.71863 10.6804 5.71863 10.9278Z"/>
</symbol>
<symbol id="icon-add-circle-fill" viewBox="0 0 21 21">
<path d="M14.7926 20.1074C13.5915 20.6283 12.3105 20.8887 10.9498 20.8887C9.58915 20.8887 8.30822 20.6283 7.10705 20.1074C5.90588 19.5866 4.84631 18.8672 3.92834 17.9492C3.01038 17.0313 2.29097 15.9717 1.77014 14.7705C1.24931 13.5694 0.988892 12.2885 0.988892 10.9278C0.988892 9.56709 1.24931 8.28616 1.77014 7.08499C2.29097 5.88382 3.00875 4.82425 3.92346 3.90628C4.83818 2.98831 5.89612 2.26891 7.09729 1.74808C8.29846 1.22724 9.57939 0.966827 10.9401 0.966827C12.3007 0.966827 13.5833 1.22724 14.7877 1.74808C15.9922 2.26891 17.0534 2.98831 17.9713 3.90628C18.8893 4.82425 19.6087 5.88382 20.1295 7.08499C20.6504 8.28616 20.9108 9.56709 20.9108 10.9278C20.9108 12.2885 20.6504 13.5694 20.1295 14.7705C19.6087 15.9717 18.8893 17.0313 17.9713 17.9492C17.0534 18.8672 15.9938 19.5866 14.7926 20.1074ZM6.42834 10.3174C6.26558 10.4769 6.1842 10.6836 6.1842 10.9375C6.1842 11.1849 6.26558 11.3851 6.42834 11.5381C6.5911 11.6911 6.79943 11.7676 7.05334 11.7676H10.11V14.834C10.11 15.0879 10.1865 15.2946 10.3395 15.4541C10.4925 15.6137 10.6927 15.6934 10.9401 15.6934C11.1939 15.6934 11.4007 15.6137 11.5602 15.4541C11.7197 15.2946 11.7994 15.0879 11.7994 14.834V11.7676H14.8659C15.1132 11.7676 15.3183 11.6911 15.4811 11.5381C15.6438 11.3851 15.7252 11.1849 15.7252 10.9375C15.7252 10.6836 15.6455 10.4769 15.486 10.3174C15.3265 10.1579 15.1198 10.0782 14.8659 10.0782H11.7994V7.02151C11.7994 6.76761 11.7197 6.55927 11.5602 6.39651C11.4007 6.23375 11.1939 6.15237 10.9401 6.15237C10.6927 6.15237 10.4925 6.23375 10.3395 6.39651C10.1865 6.55927 10.11 6.76761 10.11 7.02151V10.0782H7.05334C6.79943 10.0782 6.5911 10.1579 6.42834 10.3174Z"/>
<symbol id="icon-cancel" viewBox="0 0 17 16">
<path d="M1.23528 15.4277C1.35247 15.5384 1.48593 15.6133 1.63567 15.6523C1.78541 15.6914 1.93515 15.6914 2.08489 15.6523C2.23463 15.6133 2.36484 15.5384 2.47551 15.4277L8.72551 9.17775L14.9755 15.4277C15.0862 15.5384 15.2164 15.6133 15.3661 15.6523C15.5158 15.6914 15.6672 15.693 15.8202 15.6572C15.9732 15.6214 16.105 15.5449 16.2157 15.4277C16.3264 15.3171 16.3997 15.1869 16.4355 15.0371C16.4713 14.8874 16.4713 14.7377 16.4355 14.5879C16.3997 14.4382 16.3264 14.308 16.2157 14.1972L9.96575 7.93752L16.2157 1.68752C16.3264 1.57684 16.4013 1.44664 16.4404 1.2969C16.4795 1.14716 16.4795 0.997419 16.4404 0.847679C16.4013 0.69794 16.3264 0.567731 16.2157 0.457054C16.0986 0.339867 15.9651 0.263369 15.8154 0.227562C15.6656 0.191755 15.5158 0.191755 15.3661 0.227562C15.2164 0.263369 15.0862 0.339867 14.9755 0.457054L8.72551 6.70705L2.47551 0.457054C2.36484 0.339867 2.23301 0.263369 2.08001 0.227562C1.92702 0.191755 1.77565 0.191755 1.62591 0.227562C1.47617 0.263369 1.34596 0.339867 1.23528 0.457054C1.12461 0.567731 1.05136 0.69794 1.01556 0.847679C0.979749 0.997419 0.979749 1.14716 1.01556 1.2969C1.05136 1.44664 1.12461 1.57684 1.23528 1.68752L7.48528 7.93752L1.23528 14.1972C1.12461 14.308 1.04974 14.4382 1.01067 14.5879C0.971611 14.7377 0.969983 14.8874 1.00579 15.0371C1.0416 15.1869 1.1181 15.3171 1.23528 15.4277Z"/>
</symbol>
<symbol id="icon-cancel-circle" viewBox="0 0 21 21">
<path d="M10.2087 20.8887C11.5694 20.8887 12.8503 20.6283 14.0514 20.1074C15.2526 19.5866 16.3122 18.8672 17.2301 17.9492C18.1481 17.0313 18.8675 15.9717 19.3883 14.7705C19.9092 13.5694 20.1696 12.2885 20.1696 10.9278C20.1696 9.56709 19.9092 8.28616 19.3883 7.08499C18.8675 5.88382 18.1481 4.82425 17.2301 3.90628C16.3122 2.98831 15.251 2.26891 14.0465 1.74808C12.8421 1.22724 11.5596 0.966827 10.1989 0.966827C8.83824 0.966827 7.55731 1.22724 6.35614 1.74808C5.15497 2.26891 4.09703 2.98831 3.18231 3.90628C2.2676 4.82425 1.54982 5.88382 1.02899 7.08499C0.508158 8.28616 0.247742 9.56709 0.247742 10.9278C0.247742 12.2885 0.508158 13.5694 1.02899 14.7705C1.54982 15.9717 2.26923 17.0313 3.18719 17.9492C4.10517 18.8672 5.16473 19.5866 6.3659 20.1074C7.56707 20.6283 8.848 20.8887 10.2087 20.8887ZM10.2087 19.2285C9.05634 19.2285 7.97886 19.0137 6.97626 18.584C5.97365 18.1544 5.09312 17.5603 4.33465 16.8018C3.57619 16.0434 2.98375 15.1628 2.55731 14.1602C2.13088 13.1576 1.91766 12.0801 1.91766 10.9278C1.91766 9.77542 2.13088 8.69795 2.55731 7.69535C2.98375 6.69274 3.57456 5.81058 4.32977 5.04886C5.08498 4.28714 5.96389 3.69306 6.96649 3.26663C7.9691 2.8402 9.04657 2.62699 10.1989 2.62699C11.3513 2.62699 12.4287 2.8402 13.4313 3.26663C14.4339 3.69306 15.3161 4.28714 16.0778 5.04886C16.8396 5.81058 17.4353 6.69274 17.8649 7.69535C18.2946 8.69795 18.5094 9.77542 18.5094 10.9278C18.5094 12.0801 18.2962 13.1576 17.8698 14.1602C17.4434 15.1628 16.8509 16.0434 16.0924 16.8018C15.334 17.5603 14.4518 18.1544 13.4459 18.584C12.4401 19.0137 11.3611 19.2285 10.2087 19.2285ZM6.86883 15.0586C7.0967 15.0586 7.2855 14.9773 7.43524 14.8145L10.1989 12.041L12.9821 14.8145C13.1384 14.9773 13.3239 15.0586 13.5387 15.0586C13.7536 15.0586 13.9375 14.9805 14.0905 14.8242C14.2435 14.668 14.32 14.4824 14.32 14.2676C14.32 14.0528 14.2419 13.8672 14.0856 13.7109L11.3122 10.9375L14.0954 8.14456C14.2516 7.98831 14.3297 7.80602 14.3297 7.59769C14.3297 7.38284 14.2532 7.19892 14.1002 7.04593C13.9472 6.89293 13.7633 6.81644 13.5485 6.81644C13.3467 6.81644 13.1676 6.89782 13.0114 7.06058L10.1989 9.84378L7.41571 7.07035C7.27248 6.91409 7.09019 6.83597 6.86883 6.83597C6.65399 6.83597 6.47008 6.91084 6.31708 7.06058C6.16408 7.21032 6.08758 7.39261 6.08758 7.60745C6.08758 7.82229 6.16571 8.00459 6.32196 8.15433L9.0954 10.9375L6.32196 13.7207C6.16571 13.8705 6.08758 14.0528 6.08758 14.2676C6.08758 14.4824 6.16408 14.668 6.31708 14.8242C6.47008 14.9805 6.65399 15.0586 6.86883 15.0586Z"/>
</symbol>
<symbol id="icon-cancel-circle-fill" viewBox="0 0 21 21">
<path d="M14.7514 20.1074C13.5503 20.6283 12.2693 20.8887 10.9086 20.8887C9.54795 20.8887 8.26703 20.6283 7.06585 20.1074C5.86469 19.5866 4.80512 18.8672 3.88714 17.9492C2.96918 17.0313 2.24978 15.9717 1.72894 14.7705C1.20811 13.5694 0.947693 12.2885 0.947693 10.9278C0.947693 9.56709 1.20811 8.28616 1.72894 7.08499C2.24978 5.88382 2.96755 4.82425 3.88226 3.90628C4.79698 2.98831 5.85492 2.26891 7.05609 1.74808C8.25727 1.22724 9.53819 0.966827 10.8989 0.966827C12.2595 0.966827 13.5421 1.22724 14.7465 1.74808C15.951 2.26891 17.0122 2.98831 17.9301 3.90628C18.8481 4.82425 19.5675 5.88382 20.0883 7.08499C20.6092 8.28616 20.8696 9.56709 20.8696 10.9278C20.8696 12.2885 20.6092 13.5694 20.0883 14.7705C19.5675 15.9717 18.8481 17.0313 17.9301 17.9492C17.0122 18.8672 15.9526 19.5866 14.7514 20.1074ZM7.06097 14.79C7.21722 14.9496 7.40603 15.0293 7.62738 15.0293C7.86175 15.0293 8.06032 14.9512 8.22308 14.7949L10.9184 12.0801L13.6235 14.7949C13.7732 14.9512 13.9653 15.0293 14.1997 15.0293C14.4276 15.0293 14.6196 14.9496 14.7758 14.79C14.9321 14.6306 15.0102 14.4402 15.0102 14.2188C15.0102 13.9779 14.9321 13.7858 14.7758 13.6426L12.061 10.9375L14.7856 8.22268C14.9419 8.05992 15.02 7.86787 15.02 7.64651C15.02 7.42516 14.9419 7.23636 14.7856 7.0801C14.6293 6.92386 14.4405 6.84573 14.2192 6.84573C14.0043 6.84573 13.8188 6.92386 13.6625 7.0801L10.9184 9.80471L8.19378 7.08987C8.03102 6.94013 7.84222 6.86526 7.62738 6.86526C7.40603 6.86526 7.21722 6.94176 7.06097 7.09475C6.90472 7.24775 6.8266 7.43818 6.8266 7.66604C6.8266 7.88088 6.90472 8.06968 7.06097 8.23244L9.77581 10.9375L7.06097 13.6523C6.90472 13.8086 6.8266 13.9974 6.8266 14.2188C6.8266 14.4402 6.90472 14.6306 7.06097 14.79Z"/>
</symbol>
<symbol id="icon-play-cricle" viewBox="0 0 21 20">
<path d="M10.6353 19.9219C11.996 19.9219 13.2769 19.6615 14.478 19.1406C15.6792 18.6198 16.7388 17.9004 17.6567 16.9824C18.5747 16.0645 19.2941 15.0049 19.8149 13.8037C20.3358 12.6026 20.5962 11.3216 20.5962 9.96094C20.5962 8.60026 20.3358 7.31933 19.8149 6.11816C19.2941 4.91699 18.5747 3.85742 17.6567 2.93945C16.7388 2.02148 15.6776 1.30208 14.4731 0.78125C13.2687 0.260417 11.9862 0 10.6255 0C9.26481 0 7.98389 0.260417 6.78272 0.78125C5.58154 1.30208 4.5236 2.02148 3.60889 2.93945C2.69417 3.85742 1.9764 4.91699 1.45557 6.11816C0.934733 7.31933 0.674316 8.60026 0.674316 9.96094C0.674316 11.3216 0.934733 12.6026 1.45557 13.8037C1.9764 15.0049 2.6958 16.0645 3.61377 16.9824C4.53174 17.9004 5.59131 18.6198 6.79248 19.1406C7.99365 19.6615 9.27458 19.9219 10.6353 19.9219ZM10.6353 18.2617C9.48291 18.2617 8.40544 18.0469 7.40284 17.6172C6.40023 17.1875 5.51969 16.5935 4.76123 15.835C4.00277 15.0765 3.41032 14.196 2.98389 13.1934C2.55745 12.1908 2.34424 11.1133 2.34424 9.96094C2.34424 8.80859 2.55745 7.73112 2.98389 6.72852C3.41032 5.72591 4.00114 4.84375 4.75635 4.08203C5.51155 3.32031 6.39046 2.72623 7.39307 2.2998C8.39567 1.87337 9.47315 1.66016 10.6255 1.66016C11.7778 1.66016 12.8553 1.87337 13.8579 2.2998C14.8605 2.72623 15.7427 3.32031 16.5044 4.08203C17.2661 4.84375 17.8619 5.72591 18.2915 6.72852C18.7212 7.73112 18.936 8.80859 18.936 9.96094C18.936 11.1133 18.7228 12.1908 18.2964 13.1934C17.87 14.196 17.2775 15.0765 16.519 15.835C15.7605 16.5935 14.8784 17.1875 13.8725 17.6172C12.8667 18.0469 11.7876 18.2617 10.6353 18.2617ZM8.80909 13.7793L14.3755 10.498C14.5773 10.3743 14.6766 10.1986 14.6733 9.9707C14.67 9.74284 14.5708 9.57031 14.3755 9.45312L8.80909 6.15234C8.60075 6.02865 8.38591 6.00912 8.16455 6.09375C7.94319 6.17838 7.83252 6.33789 7.83252 6.57227V13.3594C7.83252 13.6003 7.93831 13.7646 8.14991 13.8525C8.36149 13.9404 8.58122 13.916 8.80909 13.7793Z"/>
</symbol>
<symbol id="icon-info-account" viewBox="0 0 24 19">
<path d="M14.5461 6.39459H19.8781C20.0474 6.39459 20.1906 6.33599 20.3078 6.21881C20.425 6.10162 20.4836 5.95839 20.4836 5.78913C20.4836 5.61985 20.425 5.47825 20.3078 5.36432C20.1906 5.25038 20.0474 5.19342 19.8781 5.19342H14.5461C14.3703 5.19342 14.2238 5.25038 14.1066 5.36432C13.9894 5.47825 13.9308 5.61985 13.9308 5.78913C13.9308 5.95839 13.9894 6.10162 14.1066 6.21881C14.2238 6.33599 14.3703 6.39459 14.5461 6.39459ZM14.5461 10.2227H19.8781C20.0474 10.2227 20.1906 10.1641 20.3078 10.0469C20.425 9.92975 20.4836 9.78327 20.4836 9.60749C20.4836 9.44472 20.425 9.30637 20.3078 9.19245C20.1906 9.07851 20.0474 9.02155 19.8781 9.02155H14.5461C14.3703 9.02155 14.2238 9.07851 14.1066 9.19245C13.9894 9.30637 13.9308 9.44472 13.9308 9.60749C13.9308 9.78327 13.9894 9.92975 14.1066 10.0469C14.2238 10.1641 14.3703 10.2227 14.5461 10.2227ZM14.5461 14.0411H19.8781C20.0474 14.0411 20.1906 13.9841 20.3078 13.8702C20.425 13.7563 20.4836 13.6179 20.4836 13.4551C20.4836 13.2858 20.425 13.141 20.3078 13.0206C20.1906 12.9001 20.0474 12.8399 19.8781 12.8399H14.5461C14.3703 12.8399 14.2238 12.9001 14.1066 13.0206C13.9894 13.141 13.9308 13.2858 13.9308 13.4551C13.9308 13.6179 13.9894 13.7563 14.1066 13.8702C14.2238 13.9841 14.3703 14.0411 14.5461 14.0411ZM4.3703 14.0411H11.9972C12.1535 14.0411 12.2723 13.9923 12.3537 13.8946C12.4351 13.7969 12.4757 13.6765 12.4757 13.5333C12.4757 13.3054 12.3895 13.0092 12.217 12.6446C12.0445 12.28 11.7808 11.9138 11.4259 11.546C11.0711 11.1781 10.6235 10.8705 10.0832 10.6231C9.54283 10.3757 8.90806 10.252 8.17889 10.252C7.44973 10.252 6.81659 10.3757 6.27948 10.6231C5.74237 10.8705 5.29641 11.1781 4.94159 11.546C4.58677 11.9138 4.3231 12.28 4.15057 12.6446C3.97805 13.0092 3.89178 13.3054 3.89178 13.5333C3.89178 13.6765 3.93247 13.7969 4.01385 13.8946C4.09523 13.9923 4.21405 14.0411 4.3703 14.0411ZM8.17889 9.56842C8.77134 9.56842 9.2759 9.34706 9.69256 8.90436C10.1092 8.46165 10.3176 7.90501 10.3176 7.23444C10.3176 6.81777 10.2215 6.43691 10.0295 6.09186C9.83742 5.7468 9.58026 5.47011 9.25799 5.26178C8.93573 5.05344 8.57603 4.94928 8.17889 4.94928C7.78827 4.94928 7.43019 5.05344 7.10467 5.26178C6.77915 5.47011 6.52037 5.7468 6.32831 6.09186C6.13625 6.43691 6.04022 6.81777 6.04022 7.23444C6.04022 7.90501 6.25018 8.46165 6.6701 8.90436C7.09003 9.34706 7.59296 9.56842 8.17889 9.56842ZM3.79413 18.6016H20.6886C21.7173 18.6016 22.4855 18.3493 22.9933 17.8448C23.5011 17.3402 23.755 16.5866 23.755 15.584V3.65045C23.755 2.64785 23.5011 1.89264 22.9933 1.38483C22.4855 0.877014 21.7173 0.623108 20.6886 0.623108H3.79413C2.77199 0.623108 2.00539 0.875387 1.49432 1.37994C0.983256 1.8845 0.727722 2.64133 0.727722 3.65045V15.584C0.727722 16.5866 0.983256 17.3402 1.49432 17.8448C2.00539 18.3493 2.77199 18.6016 3.79413 18.6016ZM3.81366 17.0293C3.32538 17.0293 2.95103 16.9007 2.69061 16.6436C2.4302 16.3865 2.29999 16.004 2.29999 15.4961V3.73834C2.29999 3.23053 2.4302 2.84642 2.69061 2.586C2.95103 2.32558 3.32538 2.19538 3.81366 2.19538H20.6691C21.1509 2.19538 21.5237 2.32558 21.7873 2.586C22.051 2.84642 22.1828 3.23053 22.1828 3.73834V15.4961C22.1828 16.004 22.051 16.3865 21.7873 16.6436C21.5237 16.9007 21.1509 17.0293 20.6691 17.0293H3.81366Z"/>
</symbol>
<symbol id="icon-eye" viewBox="0 0 28 18">
<path d="M14.1479 17.3711C15.463 17.3711 16.7049 17.2132 17.8735 16.8975C19.0421 16.5818 20.1212 16.1651 21.1108 15.6475C22.1004 15.1299 22.9874 14.5586 23.7719 13.9336C24.5564 13.3086 25.2254 12.682 25.7788 12.0538C26.3321 11.4255 26.7553 10.8428 27.0483 10.3057C27.3413 9.76861 27.4878 9.33404 27.4878 9.00202C27.4878 8.66998 27.3413 8.23541 27.0483 7.69831C26.7553 7.16119 26.3321 6.57851 25.7788 5.95026C25.2254 5.322 24.5564 4.69538 23.7719 4.07038C22.9874 3.44538 22.0987 2.87409 21.1059 2.35651C20.1131 1.83893 19.0323 1.42226 17.8637 1.10651C16.6951 0.790751 15.4565 0.632874 14.1479 0.632874C12.8523 0.632874 11.6234 0.790751 10.4614 1.10651C9.29926 1.42226 8.22178 1.83893 7.22894 2.35651C6.23611 2.87409 5.34418 3.44538 4.55316 4.07038C3.76215 4.69538 3.08669 5.322 2.5268 5.95026C1.9669 6.57851 1.53884 7.16119 1.24261 7.69831C0.946391 8.23541 0.798279 8.66998 0.798279 9.00202C0.798279 9.33404 0.946391 9.76861 1.24261 10.3057C1.53884 10.8428 1.9669 11.4255 2.5268 12.0538C3.08669 12.682 3.76052 13.3086 4.54828 13.9336C5.33604 14.5586 6.22634 15.1299 7.21918 15.6475C8.21202 16.1651 9.28949 16.5818 10.4516 16.8975C11.6137 17.2132 12.8458 17.3711 14.1479 17.3711ZM14.1479 15.8282C13.0737 15.8282 12.0418 15.6947 11.0522 15.4278C10.0626 15.1609 9.13486 14.8077 8.26898 14.3682C7.4031 13.9287 6.6186 13.4486 5.91547 12.9278C5.21234 12.4069 4.60525 11.891 4.09418 11.3799C3.58311 10.8689 3.19086 10.4018 2.91742 9.97858C2.64398 9.5554 2.50726 9.22988 2.50726 9.00202C2.50726 8.8067 2.64398 8.50722 2.91742 8.10358C3.19086 7.69993 3.58311 7.23932 4.09418 6.72174C4.60525 6.20416 5.21234 5.6817 5.91547 5.15436C6.6186 4.62701 7.4031 4.1371 8.26898 3.68463C9.13486 3.23215 10.0626 2.86757 11.0522 2.59088C12.0418 2.31418 13.0737 2.17584 14.1479 2.17584C15.2156 2.17584 16.2426 2.31418 17.229 2.59088C18.2153 2.86757 19.1414 3.23215 20.0073 3.68463C20.8731 4.1371 21.6593 4.62701 22.3657 5.15436C23.0721 5.6817 23.6792 6.20416 24.187 6.72174C24.6948 7.23932 25.087 7.69993 25.3637 8.10358C25.6404 8.50722 25.7788 8.8067 25.7788 9.00202C25.7788 9.22988 25.6404 9.5554 25.3637 9.97858C25.087 10.4018 24.6948 10.8689 24.187 11.3799C23.6792 11.891 23.0721 12.4069 22.3657 12.9278C21.6593 13.4486 20.8731 13.9287 20.0073 14.3682C19.1414 14.8077 18.2153 15.1609 17.229 15.4278C16.2426 15.6947 15.2156 15.8282 14.1479 15.8282ZM14.1479 14.4708C14.9031 14.4708 15.6127 14.3276 16.2768 14.0411C16.9408 13.7546 17.5235 13.3591 18.0249 12.8545C18.5261 12.35 18.9184 11.7673 19.2016 11.1065C19.4848 10.4457 19.6264 9.7442 19.6264 9.00202C19.6264 8.2403 19.4848 7.5274 19.2016 6.86334C18.9184 6.19928 18.5261 5.61822 18.0249 5.12018C17.5235 4.62213 16.9408 4.23313 16.2768 3.95319C15.6127 3.67324 14.9031 3.53327 14.1479 3.53327C13.3797 3.53327 12.6635 3.67324 11.9995 3.95319C11.3354 4.23313 10.7527 4.62213 10.2514 5.12018C9.7501 5.61822 9.35785 6.19928 9.07465 6.86334C8.79144 7.5274 8.64984 8.2403 8.64984 9.00202C8.65635 9.7442 8.80121 10.4457 9.08441 11.1065C9.36762 11.7673 9.75987 12.35 10.2612 12.8545C10.7624 13.3591 11.3435 13.7546 12.0044 14.0411C12.6652 14.3276 13.3797 14.4708 14.1479 14.4708ZM14.1479 10.8184C13.6401 10.8184 13.2071 10.6394 12.8491 10.2813C12.491 9.92323 12.312 9.4968 12.312 9.00202C12.312 8.50071 12.491 8.07265 12.8491 7.71784C13.2071 7.36302 13.6401 7.18561 14.1479 7.18561C14.6492 7.18561 15.0789 7.36302 15.437 7.71784C15.795 8.07265 15.9741 8.50071 15.9741 9.00202C15.9741 9.4968 15.795 9.92323 15.437 10.2813C15.0789 10.6394 14.6492 10.8184 14.1479 10.8184Z"/>
</symbol>
<symbol id="icon-eye-slash" viewBox="0 0 28 19">
<path d="M14.335 17.8625C15.2399 17.8625 16.1091 17.7876 16.9424 17.6378C17.7757 17.4881 18.57 17.283 19.3252 17.0226L18.0459 15.7433C17.4665 15.9191 16.8676 16.0591 16.2491 16.1632C15.6306 16.2674 14.9925 16.3195 14.335 16.3195C13.2608 16.3195 12.2289 16.1861 11.2393 15.9191C10.2497 15.6522 9.322 15.299 8.45611 14.8595C7.59023 14.4201 6.80573 13.9399 6.1026 13.4191C5.39948 12.8983 4.79238 12.3823 4.28131 11.8712C3.77025 11.3602 3.37799 10.8931 3.10455 10.4699C2.83111 10.0467 2.69439 9.72119 2.69439 9.49333C2.69439 9.32406 2.80344 9.0669 3.02154 8.72185C3.23964 8.37679 3.55214 7.98291 3.95904 7.54021C4.36594 7.09749 4.85748 6.63851 5.43365 6.16325C6.00983 5.68799 6.65924 5.23551 7.38189 4.80583L6.17096 3.59489C5.35716 4.09619 4.62962 4.62842 3.98834 5.19157C3.34707 5.75472 2.80345 6.30973 2.35748 6.85661C1.91152 7.40349 1.57135 7.90642 1.33697 8.3654C1.1026 8.82438 0.985413 9.20036 0.985413 9.49333C0.985413 9.82536 1.13352 10.2599 1.42975 10.797C1.72597 11.3342 2.15403 11.9169 2.71393 12.5451C3.27383 13.1734 3.94765 13.8 4.73541 14.425C5.52317 15.05 6.41347 15.6213 7.40631 16.1388C8.39915 16.6564 9.47663 17.0731 10.6387 17.3888C11.8009 17.7046 13.0329 17.8625 14.335 17.8625ZM14.335 1.12419C13.4821 1.12419 12.67 1.19255 11.8985 1.32927C11.127 1.46599 10.3799 1.65479 9.65729 1.89568L10.9464 3.17497C11.4867 3.01872 12.0352 2.89502 12.5918 2.80388C13.1485 2.71273 13.7295 2.66716 14.335 2.66716C15.4027 2.66716 16.4314 2.8055 17.4209 3.0822C18.4105 3.35889 19.3383 3.72347 20.2042 4.17595C21.0701 4.62842 21.8546 5.11833 22.5577 5.64568C23.2608 6.17302 23.8663 6.69548 24.3741 7.21306C24.8819 7.73064 25.2741 8.19125 25.5508 8.59489C25.8275 8.99853 25.9659 9.29801 25.9659 9.49333C25.9659 9.69515 25.8634 9.96696 25.6583 10.3088C25.4532 10.6505 25.1569 11.0347 24.7696 11.4611C24.3822 11.8875 23.9183 12.3254 23.378 12.7746C22.8376 13.2238 22.2289 13.6568 21.5518 14.0734L22.753 15.2746C23.5212 14.7733 24.2097 14.2459 24.8184 13.6925C25.4271 13.1392 25.9431 12.5972 26.3663 12.0666C26.7894 11.536 27.1133 11.0461 27.3379 10.5968C27.5626 10.1476 27.6749 9.77979 27.6749 9.49333C27.6749 9.16129 27.5284 8.72672 27.2354 8.18962C26.9424 7.65251 26.5192 7.06983 25.9659 6.44157C25.4125 5.81331 24.7435 5.18669 23.959 4.56169C23.1745 3.93669 22.2875 3.3654 21.2979 2.84782C20.3083 2.33024 19.2292 1.91358 18.0606 1.59782C16.892 1.28206 15.6501 1.12419 14.335 1.12419ZM14.335 14.9621C14.7647 14.9621 15.1797 14.9117 15.5801 14.8107C15.9805 14.7098 16.363 14.5715 16.7276 14.3957L9.40338 7.07146C9.22109 7.43604 9.08112 7.82178 8.98346 8.22868C8.8858 8.63558 8.83697 9.05713 8.83697 9.49333C8.84349 10.2355 8.98672 10.937 9.26666 11.5978C9.54661 12.2586 9.93723 12.8413 10.4385 13.3459C10.9399 13.8505 11.5225 14.246 12.1866 14.5324C12.8507 14.8189 13.5668 14.9621 14.335 14.9621ZM19.3448 11.632C19.4945 11.3065 19.6101 10.963 19.6915 10.6017C19.7728 10.2404 19.8135 9.87093 19.8135 9.49333C19.8135 8.73161 19.6719 8.01872 19.3887 7.35466C19.1055 6.6906 18.7133 6.10954 18.212 5.6115C17.7107 5.11345 17.128 4.72445 16.4639 4.4445C15.7998 4.16455 15.0902 4.02458 14.335 4.02458C13.9509 4.02458 13.5781 4.06364 13.2168 4.14177C12.8555 4.21989 12.5121 4.33057 12.1866 4.4738L19.3448 11.632ZM21.9327 17.9503C22.0824 18.1001 22.2598 18.1783 22.4649 18.1847C22.67 18.1912 22.8474 18.1131 22.9971 17.9503C23.1599 17.7876 23.238 17.607 23.2315 17.4084C23.225 17.2098 23.1468 17.0357 22.9971 16.8859L6.669 0.567547C6.52578 0.424318 6.34837 0.351076 6.13678 0.347821C5.92519 0.344566 5.74453 0.417808 5.59479 0.567547C5.45156 0.710777 5.37994 0.888186 5.37994 1.09977C5.37994 1.31136 5.45156 1.48877 5.59479 1.632L21.9327 17.9503Z"/>
</symbol>
<symbol id="icon-globe" viewBox="0 0 21 20">
<path d="M2.60712 14.2676C2.9717 13.9877 3.25653 13.6768 3.46161 13.335C3.66669 12.9932 3.8262 12.666 3.94013 12.3535C4.05406 12.041 4.15497 11.7839 4.24286 11.582C4.33075 11.3802 4.44631 11.2793 4.58954 11.2793C4.73928 11.2793 4.89879 11.3509 5.06806 11.4941C5.23733 11.6374 5.45542 11.8783 5.72235 12.2168C6.17157 12.7962 6.55731 13.2308 6.87958 13.5205C7.20185 13.8102 7.51597 13.9551 7.82196 13.9551C8.01077 13.9551 8.20282 13.877 8.39813 13.7207C8.59344 13.5644 8.7562 13.3707 8.88641 13.1396C9.01662 12.9085 9.08173 12.6823 9.08173 12.4609C9.08173 12.3568 9.0329 12.2461 8.93524 12.1289C8.83759 12.0117 8.73993 11.8994 8.64227 11.792C8.54461 11.6846 8.49579 11.5918 8.49579 11.5137C8.49579 11.377 8.60647 11.3086 8.82782 11.3086C9.28355 11.3086 9.70835 11.1995 10.1022 10.9814C10.4961 10.7633 10.8135 10.4948 11.0544 10.1758C11.2953 9.85678 11.4157 9.54427 11.4157 9.23828C11.4157 9.01693 11.3278 8.80534 11.152 8.60352C10.9763 8.40169 10.7989 8.21289 10.6198 8.03711C10.4408 7.86133 10.3513 7.70182 10.3513 7.55859C10.3513 7.46745 10.3838 7.39584 10.4489 7.34375C10.514 7.29166 10.5889 7.26562 10.6735 7.26562C10.7321 7.26562 10.7972 7.27864 10.8688 7.30469C10.9405 7.33073 11.0186 7.3763 11.1032 7.44141C11.4613 7.72136 11.7559 7.87435 11.987 7.90039C12.2181 7.92643 12.3972 7.8776 12.5241 7.75391C12.6511 7.63021 12.7309 7.48047 12.7634 7.30469C12.7829 7.19401 12.8383 7.07845 12.9294 6.95801C13.0205 6.83756 13.2061 6.70898 13.486 6.57227C13.8767 6.37044 14.2201 6.14746 14.5163 5.90332C14.8125 5.65918 15.0453 5.41341 15.2146 5.16602C15.3839 4.91862 15.4685 4.68424 15.4685 4.46289C15.4685 4.2806 15.4018 4.10644 15.2683 3.94043C15.1348 3.77442 14.9802 3.61979 14.8044 3.47656C14.6286 3.33333 14.474 3.20638 14.3405 3.0957C14.207 2.98503 14.1403 2.89388 14.1403 2.82227C14.1403 2.74414 14.2087 2.66764 14.3454 2.59277C14.4821 2.5179 14.71 2.43164 15.029 2.33398C14.6905 2.02799 14.2901 1.75456 13.8278 1.51367C13.3656 1.27278 12.8415 1.08398 12.2556 0.947266C11.6697 0.810547 11.0251 0.742188 10.322 0.742188C9.2217 0.787761 8.20119 0.973308 7.26044 1.29883C6.31968 1.62435 5.47821 2.06706 4.73602 2.62695C3.99383 3.18685 3.35907 3.84278 2.83173 4.59473C2.30438 5.34668 1.90074 6.17676 1.62079 7.08496C1.34084 7.99317 1.19761 8.95183 1.1911 9.96094C1.18459 10.7487 1.30341 11.5202 1.54755 12.2754C1.79169 13.0306 2.14488 13.6947 2.60712 14.2676ZM14.6872 18.2129C16.6013 16.989 18.0075 15.5144 18.906 13.7891C18.8279 13.1641 18.6456 12.6791 18.3591 12.334C18.0726 11.9889 17.7211 11.8164 17.3044 11.8164C17.1872 11.8164 17.0619 11.8262 16.9284 11.8457C16.7949 11.8652 16.6664 11.8978 16.5427 11.9434C16.3734 11.9955 16.2514 12.0101 16.1765 11.9873C16.1016 11.9645 15.9958 11.875 15.8591 11.7188C15.6638 11.4974 15.4701 11.3411 15.278 11.25C15.0859 11.1589 14.8565 11.1133 14.5896 11.1133C14.0817 11.1133 13.6699 11.2549 13.3542 11.5381C13.0385 11.8213 12.7699 12.2949 12.5485 12.959C12.4899 13.1608 12.3971 13.3122 12.2702 13.4131C12.1433 13.514 11.9073 13.6296 11.5622 13.7598L11.152 13.9062C10.7679 14.056 10.5238 14.2823 10.4196 14.585C10.3154 14.8877 10.3285 15.3255 10.4587 15.8984C10.6996 16.9205 11.1716 17.4316 11.8747 17.4316C12.1872 17.4316 12.4509 17.3942 12.6657 17.3193C12.8806 17.2444 13.0954 17.207 13.3103 17.207C13.6228 17.2005 13.875 17.2901 14.0671 17.4756C14.2592 17.6611 14.4659 17.9069 14.6872 18.2129ZM12.6853 9.36523C12.8936 9.36523 13.0759 9.31478 13.2321 9.21387C13.3884 9.11296 13.5479 9.00065 13.7106 8.87695C13.8734 8.75326 14.0752 8.6556 14.3161 8.58398C14.5505 8.51888 14.7295 8.38216 14.8532 8.17383C14.9769 7.9655 15.0388 7.76042 15.0388 7.55859C15.0388 7.38932 14.9965 7.24447 14.9118 7.12402C14.8272 7.00358 14.6937 6.94336 14.5114 6.94336C14.1143 6.94336 13.792 7.20703 13.5446 7.73438C13.4795 7.87109 13.3851 7.98177 13.2614 8.06641C13.1377 8.15104 12.9457 8.22917 12.6853 8.30078C12.3142 8.41146 12.1286 8.60677 12.1286 8.88672C12.1286 9.04948 12.1839 9.16992 12.2946 9.24805C12.4053 9.32617 12.5355 9.36523 12.6853 9.36523ZM9.85321 13.877C10.1332 13.877 10.387 13.7451 10.6149 13.4814C10.8428 13.2177 10.9567 12.9427 10.9567 12.6562C10.9567 12.2981 10.8932 12.0345 10.7663 11.8652C10.6394 11.6959 10.4912 11.6113 10.322 11.6113C10.1397 11.6113 9.99318 11.7122 9.88251 11.9141C9.77183 12.1159 9.71649 12.3828 9.71649 12.7148C9.71649 12.9036 9.66115 13.0322 9.55048 13.1006C9.4398 13.1689 9.38446 13.2975 9.38446 13.4863C9.38446 13.7468 9.54071 13.877 9.85321 13.877ZM8.14423 15.6641C8.60647 15.6641 8.83759 15.472 8.83759 15.0879C8.83759 14.7884 8.67157 14.6387 8.33954 14.6387C7.94891 14.6387 7.6592 14.5834 7.4704 14.4727C7.2816 14.362 7.12698 14.2513 7.00653 14.1406C6.88609 14.0299 6.73147 13.9746 6.54267 13.9746C6.38642 13.9746 6.25946 14.0169 6.16181 14.1016C6.06415 14.1862 6.01532 14.2969 6.01532 14.4336C6.01532 14.5443 6.06415 14.6354 6.16181 14.707C6.25946 14.7787 6.3799 14.8145 6.52313 14.8145C6.67938 14.8145 6.79332 14.8568 6.86493 14.9414C6.93654 15.0261 7.00979 15.1254 7.08466 15.2393C7.15953 15.3532 7.27509 15.4525 7.43134 15.5371C7.58759 15.6218 7.82522 15.6641 8.14423 15.6641ZM10.3317 19.9219C11.6924 19.9219 12.9734 19.6615 14.1745 19.1406C15.3757 18.6198 16.4353 17.9004 17.3532 16.9824C18.2712 16.0645 18.9906 15.0049 19.5114 13.8037C20.0323 12.6026 20.2927 11.3216 20.2927 9.96094C20.2927 8.60026 20.0323 7.31933 19.5114 6.11816C18.9906 4.91699 18.2712 3.85742 17.3532 2.93945C16.4353 2.02148 15.3741 1.30208 14.1696 0.78125C12.9652 0.260417 11.6826 0 10.322 0C8.96129 0 7.68036 0.260417 6.47919 0.78125C5.27802 1.30208 4.22007 2.02148 3.30536 2.93945C2.39065 3.85742 1.67287 4.91699 1.15204 6.11816C0.631205 7.31933 0.370789 8.60026 0.370789 9.96094C0.370789 11.3216 0.631205 12.6026 1.15204 13.8037C1.67287 15.0049 2.39227 16.0645 3.31024 16.9824C4.22821 17.9004 5.28778 18.6198 6.48895 19.1406C7.69012 19.6615 8.97105 19.9219 10.3317 19.9219ZM10.3317 18.5938C9.15334 18.5938 8.04331 18.3675 7.00165 17.915C5.95998 17.4625 5.04201 16.8392 4.24774 16.0449C3.45347 15.2506 2.8301 14.3327 2.37763 13.291C1.92515 12.2493 1.69891 11.1393 1.69891 9.96094C1.69891 8.78255 1.92515 7.67253 2.37763 6.63086C2.8301 5.58919 3.45185 4.67122 4.24286 3.87695C5.03387 3.08268 5.95021 2.45931 6.99188 2.00684C8.03355 1.55436 9.14357 1.32812 10.322 1.32812C11.5004 1.32812 12.6104 1.55436 13.652 2.00684C14.6937 2.45931 15.6133 3.08268 16.4108 3.87695C17.2083 4.67122 17.8333 5.58919 18.2858 6.63086C18.7383 7.67253 18.9646 8.78255 18.9646 9.96094C18.9646 11.1393 18.7383 12.2493 18.2858 13.291C17.8333 14.3327 17.21 15.2506 16.4157 16.0449C15.6214 16.8392 14.7035 17.4625 13.6618 17.915C12.6201 18.3675 11.5101 18.5938 10.3317 18.5938Z"/>
</symbol>
<symbol id="icon-trending" viewBox="0 0 17 23">
<path d="M8.34247 21.123C9.63153 21.123 10.8018 20.9147 11.8532 20.498C12.9047 20.0813 13.8112 19.4889 14.5729 18.7207C15.3346 17.9525 15.919 17.0313 16.3259 15.957C16.7328 14.8828 16.9362 13.6914 16.9362 12.3828C16.9362 10.9245 16.7474 9.60611 16.3698 8.42773C15.9922 7.24935 15.4763 6.2028 14.822 5.28809C14.1677 4.37338 13.4173 3.58236 12.571 2.91504C11.7247 2.24772 10.8311 1.69759 9.89032 1.26465C8.94956 0.831706 8.0023 0.512695 7.04853 0.307617C6.09475 0.102539 5.18817 0 4.3288 0C3.86656 0 3.50035 0.0797527 3.23017 0.239258C2.95998 0.398763 2.82489 0.634766 2.82489 0.947266C2.82489 1.07096 2.85093 1.19466 2.90302 1.31836C2.9551 1.44206 3.03322 1.5625 3.13739 1.67969C3.52151 2.14193 3.89097 2.63347 4.24579 3.1543C4.60061 3.67513 4.89358 4.22526 5.1247 4.80469C5.35582 5.38412 5.47463 5.99609 5.48114 6.64062C5.48114 6.86198 5.45998 7.07845 5.41767 7.29004C5.37535 7.50163 5.27606 7.74414 5.11981 8.01758L5.6081 7.91992C5.45836 7.43815 5.24188 7.01335 4.95868 6.64551C4.67548 6.27767 4.35647 5.98958 4.00165 5.78125C3.64683 5.57292 3.29689 5.46875 2.95185 5.46875C2.75002 5.46875 2.58726 5.53711 2.46357 5.67383C2.33987 5.81055 2.27802 5.98633 2.27802 6.20117C2.27802 6.32487 2.28941 6.5153 2.3122 6.77246C2.33498 7.02962 2.34638 7.26562 2.34638 7.48047C2.34638 7.91667 2.29104 8.32683 2.18036 8.71094C2.06968 9.09505 1.92971 9.48242 1.76044 9.87305C1.59117 10.2637 1.42352 10.6787 1.25751 11.1182C1.09149 11.5576 0.951518 12.0508 0.837585 12.5977C0.723653 13.1446 0.666687 13.7696 0.666687 14.4727C0.666687 15.8073 0.985697 16.9727 1.62372 17.9688C2.26174 18.9649 3.15529 19.7396 4.30439 20.293C5.45347 20.8463 6.7995 21.123 8.34247 21.123ZM8.56708 18.3789C7.65562 18.3789 6.92157 18.1266 6.36493 17.6221C5.80829 17.1175 5.52997 16.4551 5.52997 15.6348C5.52997 15.2051 5.59344 14.8356 5.7204 14.5264C5.84735 14.2171 5.99546 13.9372 6.16474 13.6865C6.334 13.4358 6.49025 13.195 6.63349 12.9639C6.77671 12.7328 6.86786 12.4772 6.90692 12.1973C6.91343 12.1517 6.93134 12.124 6.96064 12.1143C6.98993 12.1045 7.02085 12.1126 7.05341 12.1387C7.28127 12.3405 7.4717 12.5635 7.6247 12.8076C7.77769 13.0517 7.91604 13.3138 8.03974 13.5938C8.30015 13.2422 8.4857 12.723 8.59638 12.0361C8.70705 11.3493 8.72007 10.6055 8.63544 9.80469C8.62892 9.75912 8.63869 9.72494 8.66474 9.70215C8.69078 9.67936 8.72658 9.67774 8.77216 9.69727C9.4883 10.0358 10.0873 10.4785 10.569 11.0254C11.0508 11.5723 11.4138 12.168 11.6579 12.8125C11.902 13.457 12.0241 14.0983 12.0241 14.7363C12.0241 15.3808 11.8972 15.9798 11.6433 16.5332C11.3894 17.0866 11.0069 17.5326 10.4958 17.8711C9.98472 18.2096 9.34182 18.3789 8.56708 18.3789Z"/>
</symbol>
<symbol id="icon-play-fill" viewBox="0 0 16 17">
<path d="M1.50904 16.5527C1.70434 16.5527 1.88989 16.5185 2.06568 16.4502C2.24146 16.3819 2.427 16.2891 2.62232 16.1719L14.0091 9.58984C14.4192 9.34896 14.704 9.13575 14.8636 8.9502C15.023 8.76465 15.1028 8.54167 15.1028 8.28125C15.1028 8.02083 15.023 7.79785 14.8636 7.6123C14.704 7.42675 14.4192 7.21679 14.0091 6.98242L2.62232 0.390625C2.427 0.279948 2.24146 0.190429 2.06568 0.12207C1.88989 0.0537108 1.70434 0.0195312 1.50904 0.0195312C1.15096 0.0195312 0.86613 0.146485 0.654541 0.400391C0.442953 0.654297 0.337158 0.99284 0.337158 1.41602V15.1465C0.337158 15.5696 0.442953 15.9098 0.654541 16.167C0.86613 16.4241 1.15096 16.5527 1.50904 16.5527Z"/>
</symbol>
<symbol id="icon-reset" viewBox="0 0 18 24">
<path d="M0.374329 12.7307C0.374329 13.9352 0.59731 15.0598 1.04327 16.1047C1.48924 17.1496 2.1061 18.0676 2.89386 18.8586C3.68162 19.6497 4.59796 20.2665 5.64288 20.7092C6.68781 21.1519 7.80923 21.3733 9.00714 21.3733C10.1985 21.3733 11.3167 21.1519 12.3616 20.7092C13.4066 20.2665 14.3229 19.6497 15.1106 18.8586C15.8984 18.0676 16.5153 17.1496 16.9612 16.1047C17.4072 15.0598 17.6302 13.9352 17.6302 12.7307C17.6302 11.5393 17.4072 10.4211 16.9612 9.37622C16.5153 8.3313 15.8984 7.41496 15.1106 6.6272C14.3229 5.83944 13.4066 5.22258 12.3616 4.77661C11.3167 4.33065 10.1985 4.10767 9.00714 4.10767C8.70766 4.10767 8.41469 4.12232 8.12824 4.15161C7.84178 4.18091 7.5716 4.2216 7.31769 4.27368L9.91535 1.70532C9.98696 1.62719 10.0407 1.5393 10.0765 1.44165C10.1123 1.34399 10.1302 1.24634 10.1302 1.14868C10.1302 0.920817 10.0569 0.730387 9.91046 0.577392C9.76398 0.424398 9.58331 0.3479 9.36847 0.3479C9.12758 0.3479 8.93552 0.426025 8.7923 0.582275L4.76886 4.66431C4.6061 4.83358 4.52472 5.02889 4.52472 5.25024C4.52472 5.36092 4.54425 5.46509 4.58331 5.56274C4.62238 5.6604 4.68423 5.75155 4.76886 5.83618L8.7923 9.87915C8.93552 10.0289 9.12433 10.1038 9.35871 10.1038C9.58006 10.1038 9.76398 10.0289 9.91046 9.87915C10.0569 9.72941 10.1302 9.54386 10.1302 9.32251C10.1302 9.21834 10.1123 9.11906 10.0765 9.02466C10.0407 8.93026 9.98371 8.844 9.90558 8.76587L6.99542 5.87524C7.28188 5.81014 7.59438 5.76131 7.93292 5.72876C8.27147 5.69621 8.62954 5.67993 9.00714 5.67993C9.98373 5.67993 10.8985 5.86222 11.7513 6.22681C12.6041 6.59139 13.3528 7.09595 13.9973 7.74048C14.6419 8.38501 15.1464 9.13371 15.511 9.98657C15.8756 10.8395 16.0579 11.7542 16.0579 12.7307C16.0579 13.7138 15.8756 14.6334 15.511 15.4895C15.1464 16.3456 14.6419 17.0976 13.9973 17.7454C13.3528 18.3931 12.6041 18.8977 11.7513 19.259C10.8985 19.6203 9.98373 19.801 9.00714 19.801C8.02407 19.801 7.1061 19.6203 6.25324 19.259C5.40037 18.8977 4.65167 18.3931 4.00714 17.7454C3.36261 17.0976 2.85806 16.3456 2.49347 15.4895C2.12889 14.6334 1.9466 13.7138 1.9466 12.7307C1.9466 12.4963 1.87824 12.3026 1.74152 12.1497C1.6048 11.9967 1.41925 11.9202 1.18488 11.9202C0.9505 11.9202 0.756815 11.9967 0.603821 12.1497C0.450826 12.3026 0.374329 12.4963 0.374329 12.7307Z"/>
</symbol>
<symbol id="icon-shutdown" viewBox="0 0 21 22">
<path d="M10.4003 21.2012C11.761 21.2012 13.042 20.9408 14.2431 20.4199C15.4443 19.8991 16.5039 19.1797 17.4218 18.2617C18.3398 17.3438 19.0592 16.2842 19.58 15.083C20.1009 13.8819 20.3613 12.6009 20.3613 11.2402C20.3613 10.2441 20.2213 9.29688 19.9414 8.39845C19.6614 7.50001 19.2773 6.67481 18.789 5.92286C18.3007 5.17091 17.7441 4.50847 17.1191 3.93556C16.9498 3.7793 16.7757 3.69304 16.5966 3.67677C16.4176 3.66049 16.2565 3.69467 16.1132 3.77931C15.97 3.86394 15.8593 3.98113 15.7812 4.13087C15.7031 4.28061 15.6787 4.44337 15.708 4.61915C15.7373 4.79493 15.8365 4.9642 16.0058 5.12696C16.8391 5.88217 17.4951 6.78549 17.9736 7.83692C18.4521 8.88835 18.6946 10.0228 18.7011 11.2402C18.7011 12.3926 18.4879 13.4701 18.0615 14.4727C17.635 15.4753 17.0426 16.3558 16.2841 17.1143C15.5256 17.8728 14.6435 18.4668 13.6376 18.8965C12.6318 19.3262 11.5527 19.541 10.4003 19.541C9.24799 19.541 8.17051 19.3262 7.16791 18.8965C6.16531 18.4668 5.28477 17.8728 4.5263 17.1143C3.76784 16.3558 3.1754 15.4753 2.74896 14.4727C2.32253 13.4701 2.10931 12.3926 2.10931 11.2402C2.11583 10.0163 2.35834 8.87859 2.83685 7.82716C3.31537 6.77573 3.96804 5.87241 4.79486 5.1172C4.96414 4.95444 5.06342 4.78516 5.09271 4.60938C5.12201 4.4336 5.09923 4.27084 5.02435 4.1211C4.94949 3.97136 4.83881 3.85417 4.69232 3.76954C4.54584 3.6849 4.38308 3.65072 4.20404 3.667C4.025 3.68328 3.85085 3.76954 3.68158 3.92579C3.05658 4.49871 2.49994 5.16277 2.01166 5.91798C1.52338 6.67318 1.13926 7.50001 0.859314 8.39845C0.579366 9.29688 0.439392 10.2441 0.439392 11.2402C0.439392 12.6009 0.699809 13.8819 1.22064 15.083C1.74148 16.2842 2.46088 17.3438 3.37884 18.2617C4.29682 19.1797 5.35639 19.8991 6.55755 20.4199C7.75873 20.9408 9.03965 21.2012 10.4003 21.2012ZM10.4003 11.1426C10.6347 11.1426 10.8251 11.0661 10.9716 10.9131C11.1181 10.7601 11.1914 10.5599 11.1914 10.3125V1.54298C11.1914 1.29558 11.1181 1.09538 10.9716 0.94239C10.8251 0.789396 10.6347 0.712898 10.4003 0.712898C10.166 0.712898 9.97716 0.789396 9.83392 0.94239C9.6907 1.09538 9.61908 1.29558 9.61908 1.54298V10.3125C9.61908 10.5599 9.6907 10.7601 9.83392 10.9131C9.97716 11.0661 10.166 11.1426 10.4003 11.1426Z"/>
</symbol>
<symbol id="icon-people" viewBox="0 0 25 22">
<path d="M14.3907 20.5156C15.7514 20.5156 17.0323 20.2552 18.2335 19.7344C19.4347 19.2135 20.4942 18.4941 21.4122 17.5762C22.3302 16.6582 23.0496 15.5986 23.5704 14.3975C24.0912 13.1963 24.3516 11.9154 24.3516 10.5547C24.3516 9.19401 24.0896 7.91309 23.5655 6.71191C23.0415 5.51074 22.3204 4.45117 21.4024 3.5332C20.4845 2.61524 19.4249 1.89584 18.2237 1.375C17.0226 0.854167 15.7417 0.59375 14.3809 0.59375C13.1114 0.59375 11.9102 0.821615 10.7774 1.27734C9.64464 1.73307 8.63066 2.36458 7.73548 3.17187C6.84029 3.97917 6.11112 4.91992 5.54798 5.99414C4.98482 7.06836 4.63489 8.22396 4.49817 9.46093C4.73254 9.41536 5.00761 9.38444 5.32337 9.36816C5.63912 9.35189 5.9272 9.36003 6.18762 9.39257C6.32434 8.38346 6.62707 7.44433 7.09583 6.57519C7.56457 5.70605 8.16679 4.94922 8.90247 4.30468C9.63814 3.66016 10.4715 3.15723 11.4024 2.79589C12.3334 2.43457 13.3263 2.2539 14.3809 2.2539C15.5333 2.2539 16.6108 2.46712 17.6134 2.89355C18.616 3.31999 19.4982 3.91406 20.2598 4.67578C21.0216 5.4375 21.6173 6.31966 22.047 7.32226C22.4767 8.32487 22.6915 9.40235 22.6915 10.5547C22.6915 11.6289 22.5027 12.6413 22.1251 13.5918C21.7475 14.5423 21.2234 15.3822 20.5528 16.1113C20.2338 15.7337 19.7781 15.374 19.1856 15.0322C18.5932 14.6904 17.8901 14.4121 17.0763 14.1973C16.2625 13.9824 15.3641 13.875 14.3809 13.875C13.9122 13.875 13.463 13.9027 13.0333 13.958C12.6037 14.0133 12.1968 14.0866 11.8126 14.1777C11.9298 14.6465 11.9884 15.138 11.9884 15.6523C11.9884 16.414 11.8566 17.14 11.5929 17.8301C11.3293 18.5202 10.963 19.1419 10.4943 19.6953C11.0932 19.9557 11.7215 20.1575 12.379 20.3008C13.0366 20.444 13.7071 20.5156 14.3907 20.5156ZM14.3809 12.2149C15.0059 12.2214 15.5707 12.0635 16.0753 11.7412C16.5799 11.4189 16.9819 10.9795 17.2813 10.4229C17.5809 9.86621 17.7306 9.23633 17.7306 8.5332C17.7306 7.87565 17.5809 7.27344 17.2813 6.72656C16.9819 6.17969 16.5799 5.74349 16.0753 5.41797C15.5707 5.09245 15.0059 4.92968 14.3809 4.92968C13.7559 4.92968 13.1895 5.09245 12.6817 5.41797C12.1739 5.74349 11.7703 6.17969 11.4708 6.72656C11.1714 7.27344 11.0249 7.87565 11.0313 8.5332C11.0313 9.22982 11.1811 9.85482 11.4806 10.4082C11.7801 10.9616 12.1821 11.3994 12.6866 11.7217C13.1912 12.044 13.7559 12.2084 14.3809 12.2149ZM5.68958 20.6231C6.36015 20.6231 6.99491 20.4929 7.59387 20.2324C8.19283 19.972 8.7218 19.6139 9.18079 19.1582C9.63977 18.7025 9.99947 18.1751 10.2599 17.5762C10.5203 16.9772 10.6505 16.3392 10.6505 15.6621C10.6505 14.9785 10.5219 14.3372 10.2648 13.7383C10.0076 13.1394 9.65116 12.612 9.19544 12.1563C8.7397 11.7006 8.21236 11.3441 7.61341 11.0869C7.01445 10.8298 6.37317 10.7012 5.68958 10.7012C5.01249 10.7012 4.37447 10.8298 3.77552 11.0869C3.17656 11.3441 2.64921 11.7022 2.19348 12.1611C1.73775 12.6201 1.37968 13.1475 1.11926 13.7432C0.858846 14.3389 0.728638 14.9785 0.728638 15.6621C0.728638 16.3457 0.858846 16.987 1.11926 17.5859C1.37968 18.1849 1.73775 18.7123 2.19348 19.168C2.64921 19.6237 3.17656 19.9802 3.77552 20.2373C4.37447 20.4945 5.01249 20.6231 5.68958 20.6231Z"/>
</symbol>
<symbol id="icon-left" viewBox="0 0 11 18">
<path d="M0.628815 8.62298C0.628815 8.74668 0.651601 8.86224 0.697174 8.96966C0.742747 9.07709 0.811107 9.17637 0.902253 9.26751L8.64639 16.8359C8.82218 17.0117 9.03376 17.0995 9.28115 17.0995C9.45043 17.0995 9.6018 17.0605 9.73526 16.9823C9.86872 16.9043 9.97614 16.7985 10.0575 16.665C10.1389 16.5316 10.1796 16.3802 10.1796 16.2109C10.1796 15.97 10.0917 15.7584 9.91593 15.5761L2.80654 8.62298L9.91593 1.66986C10.0917 1.48757 10.1796 1.27598 10.1796 1.0351C10.1796 0.865825 10.1389 0.714457 10.0575 0.580993C9.97614 0.44753 9.86872 0.341736 9.73526 0.263611C9.6018 0.185486 9.45043 0.146423 9.28115 0.146423C9.03376 0.146423 8.82218 0.231059 8.64639 0.400329L0.902253 7.97845C0.811107 8.0696 0.742747 8.16888 0.697174 8.2763C0.651601 8.38373 0.628815 8.49929 0.628815 8.62298Z"/>
</symbol>
<symbol id="icon-right" viewBox="0 0 11 18">
<path d="M10.4717 8.62298C10.4717 8.49929 10.4473 8.38373 10.3985 8.2763C10.3497 8.16888 10.2797 8.0696 10.1885 7.97845L2.45416 0.400329C2.27838 0.231059 2.06354 0.146423 1.80963 0.146423C1.64687 0.146423 1.49713 0.185486 1.36041 0.263611C1.22369 0.341736 1.11627 0.44753 1.03815 0.580993C0.960022 0.714457 0.920959 0.865825 0.920959 1.0351C0.920959 1.27598 1.00559 1.48757 1.17487 1.66986L8.28424 8.62298L1.17487 15.5761C1.00559 15.7584 0.920959 15.97 0.920959 16.2109C0.920959 16.3802 0.960022 16.5316 1.03815 16.665C1.11627 16.7985 1.22369 16.9043 1.36041 16.9823C1.49713 17.0605 1.64687 17.0995 1.80963 17.0995C2.06354 17.0995 2.27838 17.0117 2.45416 16.8359L10.1885 9.26751C10.2797 9.17637 10.3497 9.07709 10.3985 8.96966C10.4473 8.86224 10.4717 8.74668 10.4717 8.62298Z"/>
</symbol>
<symbol id="icon-left-2" viewBox="0 0 19 18">
<path d="M8.6972 17.2851C8.78184 17.3698 8.87624 17.4349 8.98041 17.4804C9.08458 17.526 9.20176 17.5488 9.33197 17.5488C9.50124 17.5488 9.65261 17.5097 9.78607 17.4316C9.91954 17.3535 10.0253 17.2477 10.1035 17.1142C10.1816 16.9807 10.2206 16.8294 10.2206 16.6601C10.2206 16.4192 10.136 16.2077 9.96674 16.0254L2.32025 8.54489V9.58982L9.96674 2.11911C10.136 1.93682 10.2206 1.72523 10.2206 1.48434C10.2206 1.31507 10.1816 1.16208 10.1035 1.02536C10.0253 0.888641 9.91954 0.78122 9.78607 0.703095C9.65261 0.62497 9.50124 0.585907 9.33197 0.585907C9.08458 0.585907 8.87299 0.673798 8.6972 0.849579L0.96283 8.41794C0.865173 8.49606 0.791931 8.59372 0.743103 8.71091C0.694275 8.82809 0.669861 8.94854 0.669861 9.07224C0.669861 9.31963 0.764262 9.53773 0.953064 9.72653L8.6972 17.2851ZM17.4179 17.2851C17.5025 17.3698 17.5986 17.4349 17.706 17.4804C17.8134 17.526 17.929 17.5488 18.0527 17.5488C18.2219 17.5488 18.3749 17.5097 18.5117 17.4316C18.6484 17.3535 18.7558 17.2477 18.834 17.1142C18.912 16.9807 18.9511 16.8294 18.9511 16.6601C18.9511 16.4192 18.8632 16.2077 18.6875 16.0254L11.0508 8.54489V9.58982L18.6875 2.11911C18.8632 1.93682 18.9511 1.72523 18.9511 1.48434C18.9511 1.31507 18.912 1.16208 18.834 1.02536C18.7558 0.888641 18.6484 0.78122 18.5117 0.703095C18.3749 0.62497 18.2219 0.585907 18.0527 0.585907C17.8118 0.585907 17.6002 0.673798 17.4179 0.849579L9.68353 8.41794C9.59238 8.49606 9.52077 8.59372 9.46869 8.71091C9.4166 8.82809 9.39056 8.94854 9.39056 9.07224C9.39056 9.31963 9.48822 9.53773 9.68353 9.72653L17.4179 17.2851Z"/>
</symbol>
<symbol id="icon-left-2" viewBox="0 0 19 18">
<path d="M1.47614 17.5488C1.60634 17.5488 1.72516 17.526 1.83258 17.4804C1.94 17.4349 2.03603 17.3698 2.12066 17.2851L9.85504 9.72653C10.0438 9.53773 10.1382 9.31963 10.1382 9.07224C10.1382 8.94854 10.1138 8.82809 10.065 8.71091C10.0162 8.59372 9.94619 8.49606 9.85504 8.41794L2.1109 0.849579C1.93512 0.673798 1.72353 0.585907 1.47614 0.585907C1.30686 0.585907 1.1555 0.62497 1.02203 0.703095C0.88857 0.78122 0.782776 0.888641 0.704651 1.02536C0.626526 1.16208 0.587463 1.31507 0.587463 1.48434C0.587463 1.72523 0.672099 1.93682 0.841369 2.11911L8.48785 9.58982V8.54489L0.841369 16.0254C0.672099 16.2077 0.587463 16.4192 0.587463 16.6601C0.587463 16.8294 0.626526 16.9807 0.704651 17.1142C0.782776 17.2477 0.88857 17.3535 1.02203 17.4316C1.1555 17.5097 1.30686 17.5488 1.47614 17.5488ZM10.2066 17.5488C10.3303 17.5488 10.4459 17.526 10.5533 17.4804C10.6607 17.4349 10.7568 17.3698 10.8414 17.2851L18.5758 9.72653C18.771 9.53773 18.8687 9.31963 18.8687 9.07224C18.8687 8.94854 18.8426 8.82809 18.7906 8.71091C18.7385 8.59372 18.6669 8.49606 18.5758 8.41794L10.8414 0.849579C10.6591 0.673798 10.4475 0.585907 10.2066 0.585907C10.0373 0.585907 9.88596 0.62497 9.7525 0.703095C9.61904 0.78122 9.51161 0.888641 9.43023 1.02536C9.34885 1.16208 9.30816 1.31507 9.30816 1.48434C9.30816 1.72523 9.39606 1.93682 9.57184 2.11911L17.2086 9.58982V8.54489L9.57184 16.0254C9.39606 16.2077 9.30816 16.4192 9.30816 16.6601C9.30816 16.8294 9.34885 16.9807 9.43023 17.1142C9.51161 17.2477 9.61904 17.3535 9.7525 17.4316C9.88596 17.5097 10.0373 17.5488 10.2066 17.5488Z"/>
</symbol>
<symbol id="icon-up-fill" viewBox="0 0 21 21">
<path fill-rule="evenodd" clip-rule="evenodd" d="M14.6312 19.7265C13.4301 20.2474 12.1491 20.5078 10.7884 20.5078C9.42774 20.5078 8.14682 20.2474 6.94564 19.7265C5.74448 19.2057 4.68491 18.4863 3.76693 17.5683C2.84897 16.6504 2.12957 15.5908 1.60873 14.3896C1.0879 13.1885 0.827484 11.9076 0.827484 10.5468C0.827484 9.18617 1.0879 7.90524 1.60873 6.70407C2.12957 5.5029 2.84734 4.44333 3.76205 3.52536C4.67677 2.60739 5.73471 1.88799 6.93588 1.36716C8.13706 0.846324 9.41798 0.585907 10.7787 0.585907C12.1393 0.585907 13.4219 0.846324 14.6263 1.36716C15.8308 1.88799 16.892 2.60739 17.8099 3.52536C18.7279 4.44333 19.4473 5.5029 19.9681 6.70407C20.489 7.90524 20.7494 9.18617 20.7494 10.5468C20.7494 11.9076 20.489 13.1885 19.9681 14.3896C19.4473 15.5908 18.7279 16.6504 17.8099 17.5683C16.892 18.4863 15.8324 19.2057 14.6312 19.7265ZM5.61264 12.3779C5.60612 12.583 5.67448 12.7539 5.81771 12.8906C5.97396 13.0533 6.15788 13.1363 6.36947 13.1396C6.58106 13.1429 6.75847 13.0664 6.9017 12.9101L10.7982 8.77926L14.6947 12.9101C14.8379 13.0664 15.0153 13.1429 15.2269 13.1396C15.4385 13.1363 15.6224 13.0533 15.7787 12.8906C15.9219 12.7539 15.9902 12.583 15.9837 12.3779C15.9772 12.1728 15.8958 11.9889 15.7396 11.8261L11.8041 7.63668C11.5892 7.40882 11.3678 7.25908 11.14 7.18746C10.9121 7.11585 10.6842 7.11748 10.4564 7.19235C10.2285 7.26722 10.0072 7.41533 9.79232 7.63668L5.85678 11.8261C5.70052 11.9889 5.61914 12.1728 5.61264 12.3779Z"/>
</symbol>
<symbol id="icon-left-cricle-fill" viewBox="0 0 20 21">
<path fill-rule="evenodd" clip-rule="evenodd" d="M13.823 19.287C12.6219 19.8079 11.3409 20.0683 9.98023 20.0683C8.61955 20.0683 7.33862 19.8079 6.13745 19.287C4.93628 18.7662 3.87671 18.0468 2.95874 17.1288C2.04077 16.2109 1.32137 15.1513 0.800537 13.9501C0.279704 12.749 0.0192871 11.4681 0.0192871 10.1074C0.0192871 8.74668 0.279704 7.46576 0.800537 6.26458C1.32137 5.06342 2.03914 4.00385 2.95386 3.08587C3.86857 2.16791 4.92651 1.44851 6.12769 0.927673C7.32886 0.40684 8.60978 0.146423 9.97046 0.146423C11.3311 0.146423 12.6137 0.40684 13.8181 0.927673C15.0226 1.44851 16.0838 2.16791 17.0017 3.08587C17.9197 4.00385 18.6391 5.06342 19.1599 6.26458C19.6808 7.46576 19.9412 8.74668 19.9412 10.1074C19.9412 11.4681 19.6808 12.749 19.1599 13.9501C18.6391 15.1513 17.9197 16.2109 17.0017 17.1288C16.0838 18.0468 15.0242 18.7662 13.823 19.287ZM11.4011 15.1073C11.6127 15.1138 11.7836 15.0553 11.9138 14.9316C12.0635 14.7883 12.1384 14.6125 12.1384 14.4042C12.1384 14.1959 12.0668 14.0233 11.9236 13.8866L7.90991 10.1074L11.9236 6.33782C12.0733 6.19459 12.1449 6.0188 12.1384 5.81047C12.1319 5.60214 12.0538 5.42961 11.9041 5.29289C11.7674 5.15618 11.5997 5.09107 11.4011 5.09758C11.2026 5.10409 11.0284 5.17896 10.8787 5.32219L6.8064 9.15032C6.62411 9.31959 6.50204 9.52141 6.44019 9.75579C6.37834 9.99016 6.37834 10.2245 6.44019 10.4589C6.50204 10.6933 6.62411 10.8951 6.8064 11.0644L10.8787 14.9023C11.0154 15.0325 11.1896 15.1008 11.4011 15.1073Z"/>
</symbol>
<symbol id="icon-right-cricle-fill" viewBox="0 0 21 21">
<path fill-rule="evenodd" clip-rule="evenodd" d="M14.1152 19.287C12.914 19.8079 11.6331 20.0683 10.2724 20.0683C8.91172 20.0683 7.6308 19.8079 6.42962 19.287C5.22846 18.7662 4.16889 18.0468 3.25091 17.1288C2.33295 16.2109 1.61355 15.1513 1.09271 13.9501C0.571879 12.749 0.311462 11.4681 0.311462 10.1074C0.311462 8.74668 0.571879 7.46576 1.09271 6.26458C1.61355 5.06342 2.33132 4.00385 3.24603 3.08587C4.16075 2.16791 5.21869 1.44851 6.41986 0.927673C7.62104 0.40684 8.90196 0.146423 10.2626 0.146423C11.6233 0.146423 12.9059 0.40684 14.1103 0.927673C15.3147 1.44851 16.3759 2.16791 17.2939 3.08587C18.2119 4.00385 18.9313 5.06342 19.4521 6.26458C19.9729 7.46576 20.2334 8.74668 20.2334 10.1074C20.2334 11.4681 19.9729 12.749 19.4521 13.9501C18.9313 15.1513 18.2119 16.2109 17.2939 17.1288C16.3759 18.0468 15.3164 18.7662 14.1152 19.287ZM7.73335 14.5458C7.73335 14.7574 7.81147 14.9413 7.96772 15.0976C8.09792 15.2213 8.2737 15.2799 8.49506 15.2734C8.71641 15.2669 8.8987 15.1952 9.04194 15.0585L13.2314 11.1132C13.4267 10.9374 13.5553 10.7274 13.6172 10.4833C13.679 10.2392 13.679 9.99505 13.6172 9.75091C13.5553 9.50677 13.4267 9.29681 13.2314 9.12103L9.04194 5.18548C8.88568 5.03574 8.70502 4.95598 8.49995 4.94622C8.29487 4.93646 8.12071 5.00319 7.97749 5.14642C7.82123 5.29616 7.73985 5.47845 7.73335 5.6933C7.72683 5.90814 7.8017 6.08717 7.95795 6.2304L12.0986 10.1171L7.95795 14.0136C7.80821 14.1568 7.73335 14.3342 7.73335 14.5458Z" fill="#151515"/>
</symbol>
</defs>
</svg>