<svg aria-hidden="true" style="position: absolute; width= 0 height= 0 overflow: hidden;" version="1.1" xmlns="http://www.w3.org/2000/svg" xmlns:xlink="http://www.w3.org/1999/xlink">
<defs>
<symbol id="icon-instagram" viewBox="0 0 24 24">
<path d="M 8 3 C 5.243 3 3 5.243 3 8 L 3 16 C 3 18.757 5.243 21 8 21 L 16 21 C 18.757 21 21 18.757 21 16 L 21 8 C 21 5.243 18.757 3 16 3 L 8 3 z M 8 5 L 16 5 C 17.654 5 19 6.346 19 8 L 19 16 C 19 17.654 17.654 19 16 19 L 8 19 C 6.346 19 5 17.654 5 16 L 5 8 C 5 6.346 6.346 5 8 5 z M 17 6 A 1 1 0 0 0 16 7 A 1 1 0 0 0 17 8 A 1 1 0 0 0 18 7 A 1 1 0 0 0 17 6 z M 12 7 C 9.243 7 7 9.243 7 12 C 7 14.757 9.243 17 12 17 C 14.757 17 17 14.757 17 12 C 17 9.243 14.757 7 12 7 z M 12 9 C 13.654 9 15 10.346 15 12 C 15 13.654 13.654 15 12 15 C 10.346 15 9 13.654 9 12 C 9 10.346 10.346 9 12 9 z"/>
</symbol>
<symbol id="icon-facebook" viewBox="0 0 30 30">
<path d="M15,3C8.373,3,3,8.373,3,15c0,6.016,4.432,10.984,10.206,11.852V18.18h-2.969v-3.154h2.969v-2.099c0-3.475,1.693-5,4.581-5 c1.383,0,2.115,0.103,2.461,0.149v2.753h-1.97c-1.226,0-1.654,1.163-1.654,2.473v1.724h3.593L19.73,18.18h-3.106v8.697 C22.481,26.083,27,21.075,27,15C27,8.373,21.627,3,15,3z"/>
</symbol>
<symbol id="icon-twitch" viewBox="0 0 24 24">
<path d="M 5.3632812 2 L 2 6.6367188 L 2 20 L 7 20 L 7 23 L 10 23 L 13 20 L 17 20 L 22 15 L 22 2 L 5.3632812 2 z M 6 4 L 20 4 L 20 13 L 17 16 L 12 16 L 9 19 L 9 16 L 6 16 L 6 4 z M 11 7 L 11 12 L 13 12 L 13 7 L 11 7 z M 16 7 L 16 12 L 18 12 L 18 7 L 16 7 z"/>
</symbol>
<symbol id="icon-twitter" viewBox="0 0 30 30">
<path d="M28,6.937c-0.957,0.425-1.985,0.711-3.064,0.84c1.102-0.66,1.947-1.705,2.345-2.951c-1.03,0.611-2.172,1.055-3.388,1.295 c-0.973-1.037-2.359-1.685-3.893-1.685c-2.946,0-5.334,2.389-5.334,5.334c0,0.418,0.048,0.826,0.138,1.215 c-4.433-0.222-8.363-2.346-10.995-5.574C3.351,6.199,3.088,7.115,3.088,8.094c0,1.85,0.941,3.483,2.372,4.439 c-0.874-0.028-1.697-0.268-2.416-0.667c0,0.023,0,0.044,0,0.067c0,2.585,1.838,4.741,4.279,5.23 c-0.447,0.122-0.919,0.187-1.406,0.187c-0.343,0-0.678-0.034-1.003-0.095c0.679,2.119,2.649,3.662,4.983,3.705 c-1.825,1.431-4.125,2.284-6.625,2.284c-0.43,0-0.855-0.025-1.273-0.075c2.361,1.513,5.164,2.396,8.177,2.396 c9.812,0,15.176-8.128,15.176-15.177c0-0.231-0.005-0.461-0.015-0.69C26.38,8.945,27.285,8.006,28,6.937z"/>
</symbol>
<symbol id="icon-youtube" viewBox="0 0 24 24">
<path d="M21.582,6.186c-0.23-0.86-0.908-1.538-1.768-1.768C18.254,4,12,4,12,4S5.746,4,4.186,4.418 c-0.86,0.23-1.538,0.908-1.768,1.768C2,7.746,2,12,2,12s0,4.254,0.418,5.814c0.23,0.86,0.908,1.538,1.768,1.768 C5.746,20,12,20,12,20s6.254,0,7.814-0.418c0.861-0.23,1.538-0.908,1.768-1.768C22,16.254,22,12,22,12S22,7.746,21.582,6.186z M10,14.598V9.402c0-0.385,0.417-0.625,0.75-0.433l4.5,2.598c0.333,0.192,0.333,0.674,0,0.866l-4.5,2.598 C10.417,15.224,10,14.983,10,14.598z"/>
</symbol>
<symbol id="icon-moviestore" viewBox="0 0 207.21 29.831371">
<path d="M17.53,20.63,26.38,2.76c.59-1.18,4-2.08,5-1.34.46.34.3.87.3,1.31.09,4.79.15,9.58.21,14.37.05,3.68.05,7.36.17,11,0,1-.26,1.15-1.14,1.18-3.92.13-3.93.16-3.94-3.8s0-7.95,0-12c-.79.25-.85.88-1.08,1.33-2.23,4.43-4.21,9-6.6,13.33-.8,1.46-2.56,1.11-4,1.13-1.16,0-1-.94-1.12-1.61C13.07,23,11.94,18.37,10.8,13.73c-.07-.32,0-.73-.59-1C9.1,17.14,8,21.5,6.9,25.86,6,29.33,6,29.34,2.41,29.3c-.46,0-.92,0-1.5-.08C3,21.05,5,13,7.1,4.9c.07-.28.13-.56.19-.85C8,1.33,8,1.41,10.76,1.29c1.53-.06,2.19.29,2.55,1.93C14.56,8.92,16,14.56,17.53,20.63Z" transform="translate(-0.91 -0.16)"/><path d="M61.75,8.69c4.9-.41,4.9-.41,6.16,4.08.62,2.18,1.23,4.37,1.85,6.56,0,.09.11.17.27.41,1.85-3.19,3.71-6.28,5.43-9.44.68-1.27,1.44-2,3-1.74a24.36,24.36,0,0,0,3.31,0c.29.57-.15.9-.37,1.27C77.87,15.92,74.31,22,70.88,28.05a2.38,2.38,0,0,1-2.55,1.27c-1.18,0-1-1-1.21-1.61-1.7-5.83-3.36-11.66-5-17.5C62,9.72,61.87,9.2,61.75,8.69Z" transform="translate(-0.91 -0.16)"/><path d="M124.67,30a7.83,7.83,0,0,1-7.76-6c-.2-.94.39-1,.93-1.08s1.26-1,1.75.11c.17.37.28.77.45,1.14,1.19,2.55,3.63,3.7,6,2.86a5.28,5.28,0,0,0,3.21-5.95c-.47-2.39-2.07-4-3.76-5.55-2.13-1.93-4.23-3.86-4.73-6.93A6.67,6.67,0,0,1,125.52.84a7.09,7.09,0,0,1,8.37,4.9c.14.52.2,1-.48,1s-1.65,1.07-2.26-.2a5.78,5.78,0,0,0-1.68-2.2,3.59,3.59,0,0,0-3.94-.51,3.4,3.4,0,0,0-1.87,3.31,6.17,6.17,0,0,0,2,4.53c1.3,1.34,2.72,2.56,4,4,4.7,5.19,3,12.39-3.37,14.11A12,12,0,0,1,124.67,30Z" transform="translate(-0.91 -0.16)"/><path d="M85.14,29.3c-2.68,0-2.66,0-2.3-2.55.79-5.61,1.6-11.22,2.31-16.84.13-1.05.47-1.34,1.5-1.35,4,0,3.91-.08,3.33,3.79-.71,4.8-1.34,9.61-2,14.41C87.69,29.3,87.74,29.3,85.14,29.3Z" transform="translate(-0.91 -0.16)"/><path d="M140.18,29.27c-1.83.33-1.3-.9-1.19-1.72.64-4.8,1.32-9.59,2-14.39.29-2.13.26-2.22-1.85-2.13-1.3.05-1.39-.47-1.25-1.52s.68-1,1.36-.91c2,.37,2.68-.45,2.68-2.38,0-1.44.41-2.88.53-4.33s1.19-.93,2-1c1.13-.12.82.7.75,1.29-.21,1.73-.38,3.48-.71,5.19-.21,1.1.17,1.34,1.13,1.24a4.69,4.69,0,0,1,1.4,0c.51.09,1.47-.48,1.36.71-.08.8.07,1.71-1.35,1.71-3.11,0-3.09.09-3.48,3.18-.58,4.63-1.23,9.25-1.78,13.89C141.59,29.22,141.08,29.5,140.18,29.27Z" transform="translate(-0.91 -0.16)"/><path d="M179.51,10.59c1.78-1.76,3.79-2.82,6.32-2.38.48.08,1.43,0,1.07.88S186.61,11,185.42,11c-3.76,0-5.43,1.2-6.52,4.83-1,3.26-1.15,6.66-1.7,10-.12.69-.2,1.39-.31,2.08a1.71,1.71,0,0,1-2.42,1.42c-.64-.21-.37-.63-.33-1,.82-6.08,1.71-12.14,2.42-18.23.22-1.82,1.33-1.67,2.43-1.45C180.29,8.89,178.92,9.94,179.51,10.59Z" transform="translate(-0.91 -0.16)"/><path d="M88.93,6.48a3,3,0,0,1-3.21-3A3.15,3.15,0,0,1,88.81.17,3.23,3.23,0,0,1,92,3.39,3.07,3.07,0,0,1,88.93,6.48Z" transform="translate(-0.91 -0.16)"/><path d="M108.26,8.75a11,11,0,0,0-11.71,2.46c-3.42,3.2-4.38,7.26-3.39,11.72a8.25,8.25,0,0,0,6.93,6.6c4.77.94,9-.07,12.47-4a21.7,21.7,0,0,0-4.35-2.12c-.72-.18-1.71.78-2.59,1.18a5.94,5.94,0,0,1-1.18.35c-2.84.59-5.34-.51-6.19-2.72-.45-1.17-.5-1.85,1.2-1.8,4.56.12,9.12,0,13.69.05.8,0,1.22-.1,1.35-1.06C115.1,15,112.46,10.18,108.26,8.75Zm.7,7.7c-.21.42-.73.2-1.11.21-3,0-5.92,0-9.16,0A5.83,5.83,0,0,1,103.9,13a4.82,4.82,0,0,1,4.62,2.25C108.76,15.58,109.2,16,109,16.45Z" transform="translate(-0.91 -0.16)"/><path d="M51.3,8.36c-6.41-1.63-13.51,3.3-14.21,9.9-.6,5.61,1.49,9.5,5.9,11a11.78,11.78,0,0,0,15.58-11C58.59,13.25,55.86,9.52,51.3,8.36ZM47.1,25a4.72,4.72,0,0,1-5-5.05c0-3.94,2.68-6.94,6.28-7a4.92,4.92,0,0,1,5.18,5A6.62,6.62,0,0,1,47.1,25Z" transform="translate(-0.91 -0.16)"/><path d="M191.56,19.42c5.49.12,11,0,16.48,0,0-1.17.05-2.34.08-3.51a8.71,8.71,0,0,0-8.73-7.75,12,12,0,0,0-12.3,11c-.45,4.62,2.34,9.13,6.47,10.26a12.06,12.06,0,0,0,11.31-2.52c1-.83,1.23-1.38,0-2.33s-1.37,0-1.91.46a8.62,8.62,0,0,1-8.49,1.93c-2.67-.76-4-2.81-4.58-5.48C189.64,20.13,189.74,19.38,191.56,19.42Zm-.77-3.61A8.91,8.91,0,0,1,200.85,11a6.32,6.32,0,0,1,4.66,4.95c.23.9,0,1.27-1,1.24-2.17-.06-4.33,0-6.49,0s-4.21,0-6.31,0C190.64,17.18,190.2,17,190.79,15.81Z" transform="translate(-0.91 -0.16)"/><path d="M161.7,8.12a11.75,11.75,0,0,0-11.73,12,9.37,9.37,0,0,0,9.7,9.74,11.7,11.7,0,0,0,11.72-12C171.33,12.09,167.35,8.1,161.7,8.12Zm-2,19.16a7,7,0,0,1-7-7.56,9.07,9.07,0,0,1,9.22-9c4.08.06,6.94,3.19,6.85,7.47C168.61,23.41,164.59,27.45,159.65,27.28Z" transform="translate(-0.91 -0.16)"/>
</symbol>
</defs>
</svg>