<svg aria-hidden="true" style="position: absolute; width= 0 height= 0 overflow: hidden;" version="1.1" xmlns="http://www.w3.org/2000/svg" xmlns:xlink="http://www.w3.org/1999/xlink">
<defs>
<symbol id="icon-maximize" viewBox="0 0 28 28">
<path d="M16.5 3H24C24.5128 3 24.9355 3.38604 24.9933 3.88338L25 4V11.5C25 12.0523 24.5523 12.5 24 12.5C23.4872 12.5 23.0645 12.114 23.0067 11.6166L23 11.5V6.414L6.414 23H11.5C12.0128 23 12.4355 23.386 12.4933 23.8834L12.5 24C12.5 24.5128 12.114 24.9355 11.6166 24.9933L11.5 25H4C3.48716 25 3.06449 24.614 3.00673 24.1166L3 24V16.5C3 15.9477 3.44772 15.5 4 15.5C4.51284 15.5 4.93551 15.886 4.99327 16.3834L5 16.5V21.585L21.585 5H16.5C15.9872 5 15.5645 4.61396 15.5067 4.11662L15.5 4C15.5 3.48716 15.886 3.06449 16.3834 3.00673L16.5 3H24H16.5Z"/>
</symbol>
<symbol id="icon-caret-down" viewBox="0 0 24 24">
<path d="M6.10204 8C5.0281 8 4.45412 9.2649 5.16132 10.0731L10.6831 16.3838C11.3804 17.1806 12.6199 17.1806 13.3172 16.3838L18.839 10.0731C19.5462 9.2649 18.9722 8 17.8983 8H6.10204Z"/>
</symbol>
<symbol id="icon-dismiss" viewBox="0 0 28 28">
<path d="M22.4697 4.46967C22.7626 4.17678 23.2374 4.17678 23.5303 4.46967C23.8232 4.76256 23.8232 5.23744 23.5303 5.53033L15.0607 14L23.5303 22.4697C23.8232 22.7626 23.8232 23.2374 23.5303 23.5303C23.2374 23.8232 22.7626 23.8232 22.4697 23.5303L14 15.0607L5.53033 23.5303C5.23744 23.8232 4.76256 23.8232 4.46967 23.5303C4.17678 23.2374 4.17678 22.7626 4.46967 22.4697L12.9393 14L4.46967 5.53033C4.17678 5.23744 4.17678 4.76256 4.46967 4.46967C4.76256 4.17678 5.23744 4.17678 5.53033 4.46967L14 12.9393L22.4697 4.46967Z"/>
</symbol>
<symbol id="icon-dismiss-circle" viewBox="0 0 24 24">
<path d="M18.2803 9.71967C18.5732 10.0126 18.5732 10.4874 18.2803 10.7803L15.0607 14L18.2803 17.2197C18.5732 17.5126 18.5732 17.9874 18.2803 18.2803C17.9874 18.5732 17.5126 18.5732 17.2197 18.2803L14 15.0607L10.7803 18.2803C10.4874 18.5732 10.0126 18.5732 9.71967 18.2803C9.42678 17.9874 9.42678 17.5126 9.71967 17.2197L12.9393 14L9.71967 10.7803C9.42678 10.4874 9.42678 10.0126 9.71967 9.71967C10.0126 9.42678 10.4874 9.42678 10.7803 9.71967L14 12.9393L17.2197 9.71967C17.5126 9.42678 17.9874 9.42678 18.2803 9.71967ZM26 14C26 7.37258 20.6274 2 14 2C7.37258 2 2 7.37258 2 14C2 20.6274 7.37258 26 14 26C20.6274 26 26 20.6274 26 14ZM3.5 14C3.5 8.20101 8.20101 3.5 14 3.5C19.799 3.5 24.5 8.20101 24.5 14C24.5 19.799 19.799 24.5 14 24.5C8.20101 24.5 3.5 19.799 3.5 14Z"/>
</symbol>
<symbol id="icon-door-out" viewBox="0 0 28 28">
<path d="M5 5C5 3.34315 6.34315 2 8 2H20C21.6569 2 23 3.34315 23 5V13.4268C22.5205 13.2573 22.0186 13.1352 21.5 13.0661V5C21.5 4.17157 20.8284 3.5 20 3.5H8C7.17157 3.5 6.5 4.17157 6.5 5V23C6.5 23.8284 7.17157 24.5 8 24.5H14.1546C14.5039 25.053 14.9235 25.5572 15.4009 26H8C6.34315 26 5 24.6569 5 23V5ZM9.5 15C10.3284 15 11 14.3284 11 13.5C11 12.6716 10.3284 12 9.5 12C8.67157 12 8 12.6716 8 13.5C8 14.3284 8.67157 15 9.5 15ZM27 20.5C27 24.0899 24.0899 27 20.5 27C16.9101 27 14 24.0899 14 20.5C14 16.9101 16.9101 14 20.5 14C24.0899 14 27 16.9101 27 20.5ZM16.5 20C16.2239 20 16 20.2239 16 20.5C16 20.7761 16.2239 21 16.5 21H23.2929L21.1464 23.1464C20.9512 23.3417 20.9512 23.6583 21.1464 23.8536C21.3417 24.0488 21.6583 24.0488 21.8536 23.8536L24.8536 20.8536C24.9015 20.8056 24.9377 20.7504 24.9621 20.6914C24.9861 20.6333 24.9996 20.5697 25 20.503L25 20.5L25 20.497C24.9992 20.37 24.9504 20.2433 24.8536 20.1464L21.8536 17.1464C21.6583 16.9512 21.3417 16.9512 21.1464 17.1464C20.9512 17.3417 20.9512 17.6583 21.1464 17.8536L23.2929 20H16.5Z"/>
</symbol>
<symbol id="icon-emoji-meh" viewBox="0 0 24 24">
<path d="M9.00051 8.75122C9.69047 8.75122 10.2498 9.31055 10.2498 10.0005C10.2498 10.6905 9.69047 11.2498 9.00051 11.2498C8.31055 11.2498 7.75122 10.6905 7.75122 10.0005C7.75122 9.31055 8.31055 8.75122 9.00051 8.75122ZM15.0005 8.75122C15.6905 8.75122 16.2498 9.31055 16.2498 10.0005C16.2498 10.6905 15.6905 11.2498 15.0005 11.2498C14.3105 11.2498 13.7512 10.6905 13.7512 10.0005C13.7512 9.31055 14.3105 8.75122 15.0005 8.75122ZM8.25 15C7.83579 15 7.5 15.3358 7.5 15.75C7.5 16.1642 7.83579 16.5 8.25 16.5H15.75C16.1642 16.5 16.5 16.1642 16.5 15.75C16.5 15.3358 16.1642 15 15.75 15H8.25ZM2 12C2 6.47715 6.47715 2 12 2C17.5228 2 22 6.47715 22 12C22 17.5228 17.5228 22 12 22C6.47715 22 2 17.5228 2 12ZM12 3.5C7.30558 3.5 3.5 7.30558 3.5 12C3.5 16.6944 7.30558 20.5 12 20.5C16.6944 20.5 20.5 16.6944 20.5 12C20.5 7.30558 16.6944 3.5 12 3.5Z"/>
</symbol>
<symbol id="icon-emoji" viewBox="0 0 32 32">
<path d="M12 15C13.1046 15 14 14.1046 14 13C14 11.8954 13.1046 11 12 11C10.8954 11 10 11.8954 10 13C10 14.1046 10.8954 15 12 15ZM22 13C22 14.1046 21.1046 15 20 15C18.8954 15 18 14.1046 18 13C18 11.8954 18.8954 11 20 11C21.1046 11 22 11.8954 22 13ZM9.553 19.1056C10.0445 18.8598 10.6416 19.0568 10.8909 19.5453L10.8944 19.5518C10.8999 19.5618 10.9111 19.5816 10.9282 19.6099C10.9626 19.6666 11.0207 19.7565 11.1049 19.8688C11.2737 20.0938 11.5446 20.4049 11.9374 20.7191C12.7104 21.3375 13.9931 22 16.0002 22C18.0073 22 19.29 21.3375 20.063 20.7191C20.4558 20.4049 20.7268 20.0938 20.8955 19.8688C20.9797 19.7565 21.0378 19.6666 21.0722 19.6099C21.0894 19.5816 21.1005 19.5618 21.1061 19.5518L21.1096 19.5453C21.3589 19.0568 21.9559 18.8598 22.4474 19.1056C22.9414 19.3526 23.1416 19.9532 22.8946 20.4472L22.8941 20.4483L22.8935 20.4495L22.8922 20.452L22.8893 20.4579L22.8815 20.4729C22.8755 20.4843 22.8678 20.4987 22.8585 20.5156C22.8398 20.5495 22.8144 20.5941 22.7818 20.6479C22.7165 20.7553 22.6222 20.8998 22.4955 21.0688C22.2424 21.4062 21.8571 21.8451 21.3124 22.2809C20.2104 23.1625 18.4931 24 16.0002 24C13.5073 24 11.79 23.1625 10.688 22.2809C10.1433 21.8451 9.75802 21.4062 9.5049 21.0688C9.37817 20.8998 9.28388 20.7553 9.21867 20.6479C9.18603 20.5941 9.16059 20.5495 9.14194 20.5156C9.13261 20.4987 9.12497 20.4843 9.11896 20.4729L9.11117 20.4579L9.10818 20.452L9.10691 20.4495L9.10633 20.4483L9.10578 20.4472C8.85881 19.9532 9.05902 19.3526 9.553 19.1056ZM16 2C8.26801 2 2 8.26801 2 16C2 23.732 8.26801 30 16 30C23.732 30 30 23.732 30 16C30 8.26801 23.732 2 16 2ZM4 16C4 9.37258 9.37258 4 16 4C22.6274 4 28 9.37258 28 16C28 22.6274 22.6274 28 16 28C9.37258 28 4 22.6274 4 16Z"/>
</symbol>
<symbol id="icon-error" viewBox="0 0 24 24">
<path d="M12 2C17.523 2 22 6.478 22 12C22 17.522 17.523 22 12 22C6.477 22 2 17.522 2 12C2 6.478 6.477 2 12 2ZM12 3.667C7.405 3.667 3.667 7.405 3.667 12C3.667 16.595 7.405 20.333 12 20.333C16.595 20.333 20.333 16.595 20.333 12C20.333 7.405 16.595 3.667 12 3.667ZM11.9987 14.5022C12.5502 14.5022 12.9973 14.9494 12.9973 15.5009C12.9973 16.0524 12.5502 16.4996 11.9987 16.4996C11.4471 16.4996 11 16.0524 11 15.5009C11 14.9494 11.4471 14.5022 11.9987 14.5022ZM11.9945 7C12.3742 6.9997 12.6882 7.2816 12.7381 7.64764L12.7451 7.7494L12.7487 12.251C12.749 12.6652 12.4135 13.0013 11.9993 13.0016C11.6196 13.0019 11.3055 12.72 11.2556 12.354L11.2487 12.2522L11.2451 7.7506C11.2447 7.33639 11.5802 7.00033 11.9945 7Z"/>
</symbol>
<symbol id="icon-expand" viewBox="0 0 28 28">
<path d="M21.25 4.5C22.4926 4.5 23.5 5.50736 23.5 6.75V14H16.75C15.2312 14 14 15.2312 14 16.75V23.5H6.75C5.50736 23.5 4.5 22.4926 4.5 21.25V16.25C4.5 15.8358 4.16421 15.5 3.75 15.5C3.33579 15.5 3 15.8358 3 16.25V21.25C3 23.3211 4.67893 25 6.75 25L21.25 25.0001C23.1917 25.0001 24.7887 23.5244 24.9806 21.6334C24.9934 21.5074 25 21.3795 25 21.2501V6.75C25 4.67893 23.3211 3 21.25 3H16.25C15.8358 3 15.5 3.33579 15.5 3.75C15.5 4.16421 15.8358 4.5 16.25 4.5H21.25ZM12.5 3.75C12.5 3.33579 12.1642 3 11.75 3H3.75015C3.33594 3 3.00015 3.33579 3.00015 3.75V11.75C3.00015 12.1642 3.33594 12.5 3.75015 12.5C4.16436 12.5 4.50015 12.1642 4.50015 11.75V5.56081L10.7197 11.7803C11.0126 12.0732 11.4874 12.0732 11.7803 11.7803C12.0732 11.4874 12.0732 11.0126 11.7803 10.7197L5.56066 4.5H11.75C12.1642 4.5 12.5 4.16421 12.5 3.75Z"/>
</symbol>
<symbol id="icon-eye-off" viewBox="0 0 24 24">
<path d="M2.21967 2.21967C1.9534 2.48594 1.9292 2.9026 2.14705 3.19621L2.21967 3.28033L6.25424 7.3149C4.33225 8.66437 2.89577 10.6799 2.29888 13.0644C2.1983 13.4662 2.4425 13.8735 2.84431 13.9741C3.24613 14.0746 3.6534 13.8305 3.75399 13.4286C4.28346 11.3135 5.59112 9.53947 7.33416 8.39452L9.14379 10.2043C8.43628 10.9258 8 11.9143 8 13.0046C8 15.2138 9.79086 17.0046 12 17.0046C13.0904 17.0046 14.0788 16.5683 14.8004 15.8608L20.7197 21.7803C21.0126 22.0732 21.4874 22.0732 21.7803 21.7803C22.0466 21.5141 22.0708 21.0974 21.8529 20.8038L21.7803 20.7197L15.6668 14.6055L15.668 14.604L14.4679 13.4061L11.598 10.5368L11.6 10.536L8.71877 7.65782L8.72 7.656L7.58672 6.52549L3.28033 2.21967C2.98744 1.92678 2.51256 1.92678 2.21967 2.21967ZM10.2041 11.2655L13.7392 14.8006C13.2892 15.2364 12.6759 15.5046 12 15.5046C10.6193 15.5046 9.5 14.3853 9.5 13.0046C9.5 12.3287 9.76824 11.7154 10.2041 11.2655ZM12 5.5C10.9997 5.5 10.0291 5.64807 9.11109 5.925L10.3481 7.16119C10.8839 7.05532 11.4364 7 12 7C15.9231 7 19.3099 9.68026 20.2471 13.4332C20.3475 13.835 20.7546 14.0794 21.1565 13.9791C21.5584 13.8787 21.8028 13.4716 21.7024 13.0697C20.5994 8.65272 16.6155 5.5 12 5.5ZM12.1947 9.00928L15.996 12.81C15.8942 10.7531 14.2472 9.10764 12.1947 9.00928Z"/>
</symbol>
<symbol id="icon-eye" viewBox="0 0 24 24">
<path d="M12.0004 9.00462C14.2095 9.00462 16.0004 10.7955 16.0004 13.0046C16.0004 15.2138 14.2095 17.0046 12.0004 17.0046C9.79122 17.0046 8.00036 15.2138 8.00036 13.0046C8.00036 10.7955 9.79122 9.00462 12.0004 9.00462ZM12.0004 10.5046C10.6196 10.5046 9.50036 11.6239 9.50036 13.0046C9.50036 14.3853 10.6196 15.5046 12.0004 15.5046C13.3811 15.5046 14.5004 14.3853 14.5004 13.0046C14.5004 11.6239 13.3811 10.5046 12.0004 10.5046ZM12.0004 5.5C16.6139 5.5 20.5965 8.65001 21.7015 13.0644C21.8021 13.4662 21.5579 13.8735 21.1561 13.9741C20.7542 14.0746 20.347 13.8305 20.2464 13.4286C19.3075 9.67796 15.9217 7 12.0004 7C8.07729 7 4.69046 9.68026 3.75322 13.4332C3.65286 13.835 3.24572 14.0794 2.84385 13.9791C2.44197 13.8787 2.19755 13.4716 2.29792 13.0697C3.40101 8.65272 7.38484 5.5 12.0004 5.5Z"/>
</symbol>
<symbol id="icon-top" viewBox="0 0 28 28">
<path d="M8.96967 13.7803C9.26256 14.0732 9.73744 14.0732 10.0303 13.7803L13.25 10.5607V19.25C13.25 19.6642 13.5858 20 14 20C14.4142 20 14.75 19.6642 14.75 19.25V10.5607L17.9697 13.7803C18.2626 14.0732 18.7374 14.0732 19.0303 13.7803C19.3232 13.4874 19.3232 13.0126 19.0303 12.7197L14.5303 8.21967C14.2374 7.92678 13.7626 7.92678 13.4697 8.21967L8.96967 12.7197C8.67678 13.0126 8.67678 13.4874 8.96967 13.7803ZM2 14C2 20.6274 7.37258 26 14 26C20.6274 26 26 20.6274 26 14C26 7.37258 20.6274 2 14 2C7.37258 2 2 7.37258 2 14ZM14 24.5C8.20101 24.5 3.5 19.799 3.5 14C3.5 8.20101 8.20101 3.5 14 3.5C19.799 3.5 24.5 8.20101 24.5 14C24.5 19.799 19.799 24.5 14 24.5Z"/>
</symbol>
<symbol id="icon-home" viewBox="0 0 28 28">
<path d="M12.5919 3.49507C13.4146 2.83498 14.5854 2.83498 15.4081 3.49507L23.1581 9.7134C23.6903 10.1404 24 10.786 24 11.4683V22.7487C24 23.9914 22.9926 24.9987 21.75 24.9987H18.75C17.5074 24.9987 16.5 23.9914 16.5 22.7487V16.7487C16.5 16.3345 16.1642 15.9987 15.75 15.9987H12.25C11.8358 15.9987 11.5 16.3345 11.5 16.7487V22.7487C11.5 23.9914 10.4926 24.9987 9.25 24.9987H6.25C5.00736 24.9987 4 23.9914 4 22.7487V11.4683C4 10.786 4.30967 10.1404 4.84191 9.7134L12.5919 3.49507ZM14.4694 4.66502C14.1951 4.44499 13.8049 4.44499 13.5306 4.66502L5.78064 10.8834C5.60322 11.0257 5.5 11.2409 5.5 11.4683V22.7487C5.5 23.1629 5.83579 23.4987 6.25 23.4987H9.25C9.66421 23.4987 10 23.1629 10 22.7487V16.7487C10 15.5061 11.0074 14.4987 12.25 14.4987H15.75C16.9926 14.4987 18 15.5061 18 16.7487V22.7487C18 23.1629 18.3358 23.4987 18.75 23.4987H21.75C22.1642 23.4987 22.5 23.1629 22.5 22.7487V11.4683C22.5 11.2409 22.3968 11.0257 22.2194 10.8834L14.4694 4.66502Z"/>
</symbol>
<symbol id="icon-more-circle" viewBox="0 0 32 32">
<path d="M10 18C11.1046 18 12 17.1046 12 16C12 14.8954 11.1046 14 10 14C8.89543 14 8 14.8954 8 16C8 17.1046 8.89543 18 10 18ZM16 18C17.1046 18 18 17.1046 18 16C18 14.8954 17.1046 14 16 14C14.8954 14 14 14.8954 14 16C14 17.1046 14.8954 18 16 18ZM24 16C24 17.1046 23.1046 18 22 18C20.8954 18 20 17.1046 20 16C20 14.8954 20.8954 14 22 14C23.1046 14 24 14.8954 24 16ZM30 16C30 23.732 23.732 30 16 30C8.26801 30 2 23.732 2 16C2 8.26801 8.26801 2 16 2C23.732 2 30 8.26801 30 16ZM28 16C28 9.37258 22.6274 4 16 4C9.37258 4 4 9.37258 4 16C4 22.6274 9.37258 28 16 28C22.6274 28 28 22.6274 28 16Z"/>
</symbol>
<symbol id="icon-more-circle-fill" viewBox="0 0 32 32">
<path d="M16 30C23.732 30 30 23.732 30 16C30 8.26801 23.732 2 16 2C8.26801 2 2 8.26801 2 16C2 23.732 8.26801 30 16 30ZM10 18C8.89543 18 8 17.1046 8 16C8 14.8954 8.89543 14 10 14C11.1046 14 12 14.8954 12 16C12 17.1046 11.1046 18 10 18ZM18 16C18 17.1046 17.1046 18 16 18C14.8954 18 14 17.1046 14 16C14 14.8954 14.8954 14 16 14C17.1046 14 18 14.8954 18 16ZM22 18C20.8954 18 20 17.1046 20 16C20 14.8954 20.8954 14 22 14C23.1046 14 24 14.8954 24 16C24 17.1046 23.1046 18 22 18Z"/>
</symbol>
<symbol id="icon-select-all" viewBox="0 0 24 24">
<path d="M20.4962 5.62668C21.3721 5.93448 22 6.76891 22 7.75V17.75C22 20.0972 20.0972 22 17.75 22H7.75C6.76891 22 5.93448 21.3721 5.62668 20.4962L7.72396 20.4996L17.75 20.5C19.2688 20.5 20.5 19.2688 20.5 17.75V7.75L20.496 7.69902L20.4962 5.62668ZM17.2468 2C18.4895 2 19.4968 3.00736 19.4968 4.25V17.2468C19.4968 18.4895 18.4895 19.4968 17.2468 19.4968H4.25C3.00736 19.4968 2 18.4895 2 17.2468V4.25C2 3.00736 3.00736 2 4.25 2H17.2468ZM17.2468 3.5H4.25C3.83579 3.5 3.5 3.83579 3.5 4.25V17.2468C3.5 17.661 3.83579 17.9968 4.25 17.9968H17.2468C17.661 17.9968 17.9968 17.661 17.9968 17.2468V4.25C17.9968 3.83579 17.661 3.5 17.2468 3.5Z"/>
</symbol>
<symbol id="icon-select-all-checked" viewBox="0 0 24 24">
<path d="M20.4962 5.62668C21.3721 5.93448 22 6.76891 22 7.75V17.75C22 20.0972 20.0972 22 17.75 22H7.75C6.76891 22 5.93448 21.3721 5.62668 20.4962L7.72396 20.4996L17.75 20.5C19.2688 20.5 20.5 19.2688 20.5 17.75V7.75L20.496 7.69902L20.4962 5.62668ZM17.2468 2C18.4895 2 19.4968 3.00736 19.4968 4.25V17.2468C19.4968 18.4895 18.4895 19.4968 17.2468 19.4968H4.25C3.00736 19.4968 2 18.4895 2 17.2468V4.25C2 3.00736 3.00736 2 4.25 2H17.2468ZM17.2468 3.5H4.25C3.83579 3.5 3.5 3.83579 3.5 4.25V17.2468C3.5 17.661 3.83579 17.9968 4.25 17.9968H17.2468C17.661 17.9968 17.9968 17.661 17.9968 17.2468V4.25C17.9968 3.83579 17.661 3.5 17.2468 3.5ZM9.58115 11.3582L13.4697 7.46967C13.7626 7.17678 14.2374 7.17678 14.5303 7.46967C14.7966 7.73594 14.8208 8.1526 14.6029 8.44621L14.5303 8.53033L10.0303 13.0303C9.73449 13.3262 9.26134 13.3189 8.9736 13.0344L8.9 12.95L7.4 10.95C7.15147 10.6186 7.21863 10.1485 7.55 9.9C7.85125 9.67407 8.26715 9.70903 8.527 9.96622L8.6 10.05L9.58115 11.3582L13.4697 7.46967L9.58115 11.3582Z"/>
</symbol>
<symbol id="icon-star" viewBox="0 0 28 28">
<path d="M12.7013 3.90789C13.2332 2.83018 14.7699 2.83018 15.3018 3.90789L17.9928 9.36041L24.01 10.2348C25.1993 10.4076 25.6742 11.8691 24.8136 12.708L20.4595 16.9522L21.4874 22.9451C21.6905 24.1296 20.4473 25.0329 19.3835 24.4737L14.0015 21.6442L8.61958 24.4737C7.55582 25.0329 6.31254 24.1296 6.5157 22.9451L7.54357 16.9522L3.18947 12.708C2.32887 11.8691 2.80376 10.4076 3.99308 10.2348L10.0103 9.36041L12.7013 3.90789ZM14.0015 4.66259L11.3438 10.0478C11.1326 10.4758 10.7243 10.7724 10.252 10.841L4.30903 11.7046L8.60941 15.8964C8.95115 16.2296 9.1071 16.7095 9.02642 17.1799L8.01124 23.0988L13.3268 20.3043C13.7492 20.0822 14.2539 20.0822 14.6763 20.3043L19.9918 23.0988L18.9767 17.1799C18.896 16.7095 19.0519 16.2296 19.3937 15.8964L23.6941 11.7046L17.7511 10.841C17.2788 10.7724 16.8705 10.4758 16.6593 10.0478L14.0015 4.66259Z"/>
</symbol>
<symbol id="icon-star-fill" viewBox="0 0 20 20">
<path d="M9.10433 2.89923C9.47114 2.15598 10.531 2.15599 10.8978 2.89923L12.8282 6.81073L17.1448 7.43797C17.9651 7.55715 18.2926 8.56513 17.699 9.14366L14.5755 12.1883L15.3129 16.4875C15.453 17.3044 14.5956 17.9274 13.8619 17.5417L10.0011 15.5119L6.14018 17.5417C5.40655 17.9274 4.54913 17.3044 4.68924 16.4875L5.4266 12.1883L2.30308 9.14366C1.70956 8.56512 2.03708 7.55715 2.8573 7.43797L7.17389 6.81073L9.10433 2.89923Z"/>
</symbol>
<symbol id="icon-star-fill-half" viewBox="0 0 28 28">
<path d="M12.7013 3.90789C12.9673 3.36889 13.4847 3.09947 14.002 3.09961C14.519 3.09975 15.0359 3.36918 15.3018 3.90789L17.9928 9.36041L24.01 10.2348C25.1993 10.4076 25.6742 11.8691 24.8136 12.708L20.4595 16.9522L21.4874 22.9451C21.6905 24.1296 20.4473 25.0329 19.3835 24.4737L14.002 21.6444L8.61958 24.4737C7.55582 25.0329 6.31254 24.1296 6.5157 22.9451L7.54357 16.9522L3.18947 12.708C2.32887 11.8691 2.80376 10.4076 3.99308 10.2348L10.0103 9.36041L12.7013 3.90789ZM14.002 20.1377C14.2336 20.1378 14.4652 20.1933 14.6763 20.3043L19.9918 23.0988L18.9767 17.1799C18.896 16.7095 19.0519 16.2296 19.3937 15.8964L23.6941 11.7046L17.7511 10.841C17.2788 10.7724 16.8705 10.4758 16.6593 10.0478L14.002 4.66342V20.1377Z"/>
</symbol>
<symbol id="icon-tag" viewBox="0 0 28 28">
<path d="M19.4996 10C20.328 10 20.9996 9.32843 20.9996 8.5C20.9996 7.67157 20.328 7 19.4996 7C18.6712 7 17.9996 7.67157 17.9996 8.5C17.9996 9.32843 18.6712 10 19.4996 10ZM15.2852 3C14.4232 3 13.5966 3.34241 12.9871 3.9519L3.73706 13.2019C2.46786 14.4711 2.46785 16.5289 3.73706 17.7981L10.2015 24.2626C11.4707 25.5318 13.5285 25.5318 14.7977 24.2626L24.0477 15.0126C24.6572 14.4031 24.9996 13.5764 24.9996 12.7145V5.75C24.9996 4.23122 23.7684 3 22.2496 3H15.2852ZM14.0477 5.01256C14.3759 4.68437 14.821 4.5 15.2852 4.5H22.2496C22.94 4.5 23.4996 5.05964 23.4996 5.75V12.7145C23.4996 13.1786 23.3152 13.6237 22.9871 13.9519L13.7371 23.2019C13.0536 23.8853 11.9456 23.8853 11.2622 23.2019L4.79772 16.7374C4.1143 16.054 4.1143 14.946 4.79772 14.2626L14.0477 5.01256Z"/>
</symbol>
<symbol id="icon-tap" viewBox="0 0 32 32">
<path d="M16 5C12.6863 5 10 7.68629 10 11C10 12.3023 10.4149 13.5077 11.1198 14.4912C10.3863 14.476 9.66549 14.6092 8.99747 14.8714C8.36188 13.7243 8 12.4044 8 11C8 6.58172 11.5817 3 16 3C20.4183 3 24 6.58172 24 11C24 11.895 23.853 12.7556 23.5819 13.5591C23.408 13.5073 23.2298 13.4635 23.0477 13.4283L21.6037 13.1489C21.8597 12.4817 22 11.7573 22 11C22 7.68629 19.3137 5 16 5ZM15.0023 11C15.0023 10.4477 15.45 10 16.0023 10C16.5546 10 17.0023 10.4477 17.0023 11V15C17.0023 15.479 17.342 15.8908 17.8123 15.9818L22.3817 16.866C23.5258 17.0874 24.2391 18.2362 23.9301 19.3599L22.4106 24.8853C22.2992 25.2905 21.9464 25.5828 21.5276 25.6169L16.7686 26.0044C16.7686 26.0044 16.762 26.0022 16.7538 25.9965C16.7349 25.9834 16.711 25.9567 16.6968 25.9176C15.9152 23.7652 14.0172 21.1829 9.10557 19.3633C9.46891 18.2652 10.6976 17.696 11.7784 18.1502L13.6149 18.9219C13.9236 19.0516 14.2768 19.0182 14.5557 18.8329C14.8347 18.6475 15.0023 18.3349 15.0023 18V11ZM16.0023 8C14.3454 8 13.0023 9.34315 13.0023 11V16.4951L12.5533 16.3064C10.3222 15.3688 7.77606 16.6117 7.14293 18.9475L7.05279 19.2801C6.84144 20.0598 7.28534 20.8419 8.01589 21.0968C12.7552 22.7505 14.2434 25.0211 14.817 26.6003C15.1161 27.424 15.933 28.0791 16.9304 27.9978L21.6899 27.6103C22.9463 27.508 24.0048 26.6311 24.339 25.4157L25.8585 19.8902C26.4766 17.6429 25.05 15.3453 22.7617 14.9024L19.0023 14.175V11C19.0023 9.34315 17.6591 8 16.0023 8Z"/>
</symbol>
<symbol id="icon-trending" viewBox="0 0 24 24">
<path d="M14.003 5.5H20.9998C21.5126 5.5 21.9353 5.88604 21.993 6.38338L21.9998 6.5V13.5C21.9998 14.0523 21.552 14.5 20.9998 14.5C20.4869 14.5 20.0643 14.114 20.0065 13.6166L19.9998 13.5L19.999 8.914L12.7069 16.2071C12.3466 16.5674 11.7798 16.5953 11.3875 16.2908L11.2933 16.2077L8.99726 13.9157L3.70917 19.2055C3.31871 19.5961 2.68555 19.5962 2.29496 19.2057C1.93442 18.8453 1.9066 18.2781 2.21156 17.8857L2.29473 17.7915L8.28932 11.795C8.64956 11.4346 9.21645 11.4066 9.6088 11.7112L9.70303 11.7943L11.9991 14.0864L18.584 7.5H14.003C13.4902 7.5 13.0675 7.11396 13.0098 6.61662L13.003 6.5C13.003 5.98716 13.3891 5.56449 13.8864 5.50673L14.003 5.5H20.9998H14.003Z"/>
</symbol>
</defs>
</svg>