<svg aria-hidden="true" style="position: absolute; width: 0; height: 0; overflow: hidden;" version="1.1" xmlns="http://www.w3.org/2000/svg" xmlns:xlink="http://www.w3.org/1999/xlink">
<defs>
<symbol id="icon-google-play-white" viewBox="0 0 135 40">
<path fill-rule="evenodd" clip-rule="evenodd" d="M130 40H4.99988C2.24988 40 -0.00012207 37.75 -0.00012207 35V5C-0.00012207 2.25 2.24988 0 4.99988 0H130C132.75 0 135 2.25 135 5V35C135 37.75 132.75 40 130 40Z" fill="white"/>
<path fill-rule="evenodd" clip-rule="evenodd" d="M72.968 8.34847L72.9681 8.34855C73.3916 8.77681 73.6062 9.32558 73.6062 10.0002C73.6062 10.6748 73.3916 11.2226 72.968 11.652C72.5432 12.0825 72.025 12.2962 71.4092 12.2962C70.7923 12.2962 70.2751 12.0825 69.8504 11.652V11.6521C69.4278 11.2227 69.2132 10.6748 69.2132 10.0002C69.2132 9.32557 69.4278 8.77675 69.8504 8.34847C70.2752 7.91786 70.7924 7.70324 71.4092 7.70324C72.0249 7.70324 72.5431 7.91787 72.968 8.34847ZM73.6769 7.70954L73.6768 7.70948C73.0645 7.0806 72.3074 6.76624 71.4092 6.76624C70.5063 6.76624 69.7471 7.07937 69.1385 7.70548C68.5295 8.33098 68.2262 9.09835 68.2262 10.0002C68.2262 10.9021 68.5296 11.6685 69.1385 12.294L69.1385 12.294C69.7471 12.9212 70.5064 13.2342 71.4092 13.2342C72.3121 13.2342 73.0713 12.9211 73.6809 12.2939C74.2887 11.6685 74.5932 10.9022 74.5932 10.0002C74.5932 9.10297 74.2875 8.33774 73.6769 7.70954ZM47.4184 10.2432C47.4184 11.0812 47.1704 11.7482 46.6734 12.2462C46.1084 12.8382 45.3734 13.1342 44.4694 13.1342C43.6034 13.1342 42.8664 12.8342 42.2614 12.2332C41.6544 11.6332 41.3524 10.8882 41.3524 10.0002C41.3524 9.11121 41.6544 8.36721 42.2614 7.76621C42.8664 7.16621 43.6034 6.86621 44.4694 6.86621C44.8984 6.86621 45.3104 6.95021 45.7004 7.11721C46.0914 7.28521 46.4044 7.50821 46.6394 7.78721L46.1114 8.31521C45.7144 7.84121 45.1674 7.60321 44.4694 7.60321C43.8374 7.60321 43.2914 7.82521 42.8304 8.26921C42.3694 8.71421 42.1394 9.29021 42.1394 10.0002C42.1394 10.7092 42.3694 11.2862 42.8304 11.7302C43.2914 12.1752 43.8374 12.3962 44.4694 12.3962C45.1394 12.3962 45.6974 12.1732 46.1454 11.7262C46.4354 11.4352 46.6034 11.0312 46.6474 10.5112H44.4694V9.79021H47.3764C47.4044 9.94721 47.4184 10.0972 47.4184 10.2432ZM52.0277 7.737H49.2957V9.639H51.7587V10.36H49.2957V12.262H52.0277V13H48.5247V7H52.0277V7.737ZM55.2787 13H54.5077V7.737H52.8317V7H56.9547V7.737H55.2787V13ZM59.938 13H60.709V7H59.938V13ZM64.1283 13H63.3573V7.737H61.6813V7H65.8043V7.737H64.1283V13ZM76.3461 9.263L76.3121 8.106H76.3461L79.3961 13H80.2011V7H79.4291V10.511L79.4631 11.667H79.4291L76.5131 7H75.5751V13H76.3461V9.263ZM108.801 29.9999H106.936V17.4989H108.801V29.9999ZM121.604 27.4219L123.743 22.0019H125.818L120.687 33.7909H118.741L120.64 29.5769L117.31 22.0019H119.32L121.54 27.4219H121.604ZM111.697 27.5179C111.697 28.2739 112.55 28.5799 113.16 28.5799C114.238 28.5799 115.235 27.7599 115.38 26.6009C114.882 26.3609 114.495 26.1829 113.676 26.1829C112.759 26.1829 111.697 26.5539 111.697 27.5179ZM110.057 23.6419C110.636 22.3239 112.035 21.7279 113.386 21.7279C115.524 21.7279 117.182 22.9669 117.182 25.1859V29.9789H115.38V29.0139H115.315C114.882 29.6739 114.189 30.2369 112.935 30.2369C111.295 30.2369 109.831 29.1589 109.831 27.4859C109.831 25.6529 111.648 24.6719 113.434 24.6719C114.318 24.6719 115.042 24.9609 115.38 25.1539V25.0249C115.364 23.9959 114.383 23.4169 113.418 23.4169C112.726 23.4169 112.067 23.6419 111.713 24.3339L110.057 23.6419ZM99.2 23.5239H101.854C103.249 23.5239 104.041 22.3499 104.041 21.3809C104.041 20.3929 103.249 19.2389 101.854 19.2389H99.2V23.5239ZM97.335 17.4979H101.806C103.874 17.4979 105.907 18.9959 105.907 21.3809C105.907 23.7659 103.874 25.2639 101.806 25.2639H99.2V29.9999H97.335V17.4979ZM75.057 26.0209C75.057 27.5029 76.136 28.5819 77.425 28.5819C78.697 28.5819 79.696 27.5029 79.696 26.0209C79.696 24.5219 78.697 23.4269 77.425 23.4269C76.136 23.4269 75.057 24.5219 75.057 26.0209ZM79.503 22.7019H79.567V22.0089H81.34V29.6449C81.34 32.7869 79.487 34.0759 77.296 34.0759C75.233 34.0759 73.993 32.6899 73.526 31.5629L75.153 30.8859C75.443 31.5789 76.152 32.3999 77.296 32.3999C78.697 32.3999 79.567 31.5309 79.567 29.9029V29.2909H79.503C79.084 29.8069 78.278 30.2579 77.264 30.2579C75.137 30.2579 73.187 28.4049 73.187 26.0209C73.187 23.6199 75.137 21.7509 77.264 21.7509C78.278 21.7509 79.084 22.2029 79.503 22.7019ZM84.497 29.9999H82.629V17.4989H84.497V29.9999ZM89.475 23.3949C88.525 23.3949 87.204 24.2319 87.252 25.8759L91.055 24.2969C90.845 23.7659 90.217 23.3949 89.475 23.3949ZM89.411 21.7509C91.618 21.7509 92.697 23.5079 93.052 24.4579L93.245 24.9409L87.559 27.2929C87.993 28.1469 88.67 28.5819 89.62 28.5819C90.571 28.5819 91.231 28.1149 91.715 27.4059L93.165 28.3729C92.697 29.0659 91.569 30.2579 89.62 30.2579C87.204 30.2579 85.399 28.3889 85.399 26.0049C85.399 23.4749 87.22 21.7509 89.411 21.7509ZM47.744 24.8609V23.0569H53.817C53.882 23.3789 53.914 23.7659 53.914 24.1839C53.914 25.5369 53.543 27.2129 52.351 28.4049C51.191 29.6129 49.709 30.2579 47.744 30.2579C44.102 30.2579 41.041 27.2929 41.041 23.6529C41.041 20.0119 44.102 17.0469 47.744 17.0469C49.758 17.0469 51.191 17.8369 52.271 18.8679L50.998 20.1409C50.225 19.4149 49.178 18.8509 47.744 18.8509C45.085 18.8509 43.007 20.9949 43.007 23.6529C43.007 26.3109 45.085 28.4539 47.744 28.4539C49.467 28.4539 50.45 27.7609 51.079 27.1319C51.594 26.6169 51.933 25.8759 52.061 24.8609H47.744ZM56.422 26.0049C56.422 27.5189 57.534 28.5819 58.822 28.5819C60.111 28.5819 61.223 27.5189 61.223 26.0049C61.223 24.4739 60.111 23.4269 58.822 23.4269C57.534 23.4269 56.422 24.4739 56.422 26.0049ZM54.553 26.0049C54.553 23.5399 56.47 21.7509 58.822 21.7509C61.175 21.7509 63.092 23.5399 63.092 26.0049C63.092 28.4539 61.175 30.2579 58.822 30.2579C56.47 30.2579 54.553 28.4539 54.553 26.0049ZM65.735 26.0049C65.735 27.5189 66.847 28.5819 68.136 28.5819C69.425 28.5819 70.536 27.5189 70.536 26.0049C70.536 24.4739 69.425 23.4269 68.136 23.4269C66.847 23.4269 65.735 24.4739 65.735 26.0049ZM63.867 26.0049C63.867 23.5399 65.784 21.7509 68.136 21.7509C70.488 21.7509 72.405 23.5399 72.405 26.0049C72.405 28.4539 70.488 30.2579 68.136 30.2579C65.784 30.2579 63.867 28.4539 63.867 26.0049Z" fill="black"/>
<path d="M10.223 31.0588C10.223 31.551 10.3395 31.9203 10.5195 32.1718L18 22.5L22 20C22 20 20.1599 18.1831 19 17C15.5851 13.5167 10.6999 7.57662 10.5197 7.82908C10.3395 8.08154 10.446 7.88574 10.223 8.94287C10 10 10.223 31.0588 10.223 31.0588Z" stroke="white" stroke-width="0.5"/>
<path d="M10.5195 32.1719C10.3395 31.9204 10.223 31.5511 10.223 31.0589V8.94289C10.223 8.45161 10.3395 8.08156 10.5197 7.8291L22.649 19.9585V20.0009V20.0434L10.5195 32.1719Z" fill="black" stroke="white" stroke-width="0.5"/>
<path fill-rule="evenodd" clip-rule="evenodd" d="M22.899 19.8551V20.0011V20.1471L27.028 24.2781L27.122 24.2261L32.015 21.4461C33.412 20.6511 33.412 19.3511 32.015 18.5571L27.122 15.7771L27.029 15.7241L22.899 19.8551Z" fill="white"/>
<path d="M27.0711 16.0356L23.149 19.9586V20.001V20.0435L27.0711 23.9674L31.8914 21.2287L27.0711 16.0356ZM27.0711 16.0356L31.8915 18.7744C32.5445 19.1455 32.8128 19.5996 32.8128 20.0011C32.8128 20.4027 32.5445 20.8571 31.8915 21.2287L27.0711 16.0356Z" fill="black" stroke="white" stroke-width="0.5"/>
<path fill-rule="evenodd" clip-rule="evenodd" d="M10.436 32.463C10.896 32.951 11.657 33.012 12.514 32.525L27.122 24.225L22.899 20.001L10.436 32.463Z" fill="white"/>
<path d="M22.899 20.3545L26.7133 24.1697L12.3905 32.3076L12.5136 32.5242L12.3905 32.3076C11.7187 32.6894 11.1718 32.6819 10.8054 32.4472L22.899 20.3545Z" fill="black" stroke="white" stroke-width="0.5"/>
<path fill-rule="evenodd" clip-rule="evenodd" d="M10.436 7.53814L22.899 20.0011L27.122 15.7771L12.514 7.47714C12.112 7.24814 11.731 7.14014 11.393 7.14014C11.009 7.14014 10.68 7.27914 10.436 7.53814Z" fill="white"/>
<path fill-rule="evenodd" clip-rule="evenodd" d="M10.436 7.53814L22.899 20.0011L27.122 15.7771L12.514 7.47714C12.112 7.24814 11.731 7.14014 11.393 7.14014C11.009 7.14014 10.68 7.27914 10.436 7.53814Z" fill="white"/>
<path fill-rule="evenodd" clip-rule="evenodd" d="M10.436 7.53814L22.899 20.0011L27.122 15.7771L12.514 7.47714C12.112 7.24814 11.731 7.14014 11.393 7.14014C11.009 7.14014 10.68 7.27914 10.436 7.53814Z" fill="black"/>
<path d="M22.899 20.0011L22.5455 20.3547L22.8991 20.7083L23.2526 20.3546L22.899 20.0011ZM27.122 15.7771L27.4756 16.1306L27.9396 15.6666L27.369 15.3424L27.122 15.7771ZM12.514 7.47714L12.2665 7.91159L12.267 7.91187L12.514 7.47714ZM10.0825 7.89169L22.5455 20.3547L23.2526 19.6476L10.7896 7.18458L10.0825 7.89169ZM23.2526 20.3546L27.4756 16.1306L26.7684 15.4236L22.5454 19.6476L23.2526 20.3546ZM27.369 15.3424L12.761 7.04241L12.267 7.91187L26.875 16.2119L27.369 15.3424ZM12.7615 7.04268C12.3025 6.78122 11.8368 6.64014 11.393 6.64014V7.64014C11.6253 7.64014 11.9215 7.71506 12.2665 7.91159L12.7615 7.04268ZM11.393 6.64014C10.8801 6.64014 10.4165 6.82972 10.0721 7.19528L10.8 7.88099C10.9436 7.72856 11.138 7.64014 11.393 7.64014V6.64014Z" fill="white"/>
</symbol>
<symbol id="icon-app-store-white" viewBox="0 0 119 40">
<path d="M8.44487 39.125C8.14019 39.125 7.84287 39.1211 7.54058 39.1143C6.91436 39.1061 6.2896 39.0516 5.67144 38.9512C5.09503 38.8519 4.53664 38.6673 4.0147 38.4033C3.49754 38.1415 3.02585 37.7983 2.6177 37.3867C2.20364 36.98 1.85891 36.5082 1.59719 35.9902C1.33258 35.4688 1.14945 34.9099 1.05419 34.333C0.951311 33.7131 0.895651 33.0863 0.887687 32.458C0.881347 32.2471 0.873047 31.5449 0.873047 31.5449V8.44434C0.873047 8.44434 0.881887 7.75293 0.887737 7.5498C0.895363 6.92248 0.950699 6.29665 1.05327 5.67773C1.14871 5.09925 1.33197 4.53875 1.59673 4.01563C1.85749 3.49794 2.2003 3.02586 2.61187 2.61768C3.02297 2.20562 3.49617 1.8606 4.01421 1.59521C4.53495 1.33209 5.09228 1.14873 5.66753 1.05127C6.28772 0.949836 6.91465 0.894996 7.54304 0.88721L8.44536 0.875H111.214L112.127 0.8877C112.75 0.895099 113.371 0.94945 113.985 1.05029C114.566 1.14898 115.13 1.33362 115.656 1.59814C116.694 2.13299 117.539 2.97916 118.071 4.01807C118.332 4.53758 118.512 5.09351 118.607 5.66699C118.71 6.29099 118.768 6.92174 118.78 7.5542C118.783 7.8374 118.783 8.1416 118.783 8.44434C118.791 8.81934 118.791 9.17627 118.791 9.53613V30.4648C118.791 30.8281 118.791 31.1826 118.783 31.54C118.783 31.8652 118.783 32.1631 118.779 32.4697C118.768 33.0909 118.711 33.7104 118.608 34.3232C118.515 34.9043 118.333 35.4675 118.068 35.9932C117.805 36.5056 117.462 36.9733 117.053 37.3789C116.644 37.7927 116.172 38.1379 115.653 38.4014C115.128 38.6674 114.566 38.8527 113.985 38.9512C113.367 39.0522 112.742 39.1067 112.116 39.1143C111.823 39.1211 111.517 39.125 111.219 39.125L110.135 39.127L8.44487 39.125Z" fill="white"/>
<path fill-rule="evenodd" clip-rule="evenodd" d="M59.9823 8.43701H59.0937V14.6978H59.9823V8.43701ZM22.0372 12.2108C22.8487 11.2366 23.2485 9.98446 23.1517 8.72021C21.9119 8.85044 20.7666 9.443 19.9442 10.3798C19.132 11.3041 18.7205 12.5134 18.8004 13.7412C20.0569 13.7542 21.2499 13.1901 22.0372 12.2108ZM24.7689 20.3008C24.7907 18.6043 25.6801 17.0373 27.1254 16.1488C26.2095 14.8407 24.7304 14.041 23.1343 13.9911C22.1071 13.8832 21.0991 14.2833 20.2753 14.6103C19.7524 14.8178 19.3037 14.9959 18.9714 14.9959C18.5934 14.9959 18.1318 14.8105 17.6145 14.6027C16.9382 14.3311 16.1668 14.0212 15.3629 14.0378C13.4962 14.0981 11.7981 15.1337 10.89 16.7656C8.95594 20.1141 10.3985 25.0351 12.2512 27.7417C13.1781 29.0671 14.2613 30.5475 15.6788 30.495C16.3218 30.4683 16.778 30.2763 17.2493 30.078C17.7946 29.8485 18.36 29.6105 19.2582 29.6105C20.105 29.6105 20.6462 29.841 21.1656 30.0623C21.6635 30.2744 22.1413 30.4779 22.8492 30.4616C24.3376 30.4375 25.2753 29.1304 26.1697 27.7925C26.8357 26.8481 27.3481 25.8044 27.6881 24.7C25.9204 23.9523 24.7709 22.2202 24.7689 20.3008ZM42.3022 27.1397H37.5688L36.4321 30.4961H34.4272L38.9106 18.0781H40.9936L45.477 30.4961H43.438L42.3022 27.1397ZM38.0591 25.5908H41.8111L39.9615 20.1436H39.9097L38.0591 25.5908ZM51.3814 30.591C53.6538 30.591 55.1597 28.7834 55.1597 25.9699C55.1597 23.1643 53.645 21.3479 51.3472 21.3479C50.1648 21.3097 49.0572 21.9247 48.4644 22.9485H48.4302V21.4426H46.6313V33.4914H48.4897V29.007H48.5327C49.1003 30.0372 50.2068 30.6525 51.3814 30.591ZM50.857 22.9319C52.3023 22.9319 53.2495 24.1369 53.2495 25.9699C53.2495 27.8196 52.3023 29.0158 50.857 29.0158C49.437 29.0158 48.482 27.7942 48.482 25.9699C48.482 24.1623 49.437 22.9319 50.857 22.9319ZM65.1245 25.9699C65.1245 28.7834 63.6187 30.591 61.3462 30.591C60.1716 30.6525 59.0652 30.0372 58.4976 29.007H58.4546V33.4914H56.5962V21.4426H58.395V22.9484H58.4292C59.022 21.9247 60.1296 21.3097 61.312 21.3479C63.6099 21.3479 65.1245 23.1643 65.1245 25.9699ZM63.2144 25.9699C63.2144 24.1369 62.2671 22.9318 60.8218 22.9318C59.4019 22.9318 58.4468 24.1623 58.4468 25.9699C58.4468 27.7942 59.4019 29.0158 60.8218 29.0158C62.2671 29.0158 63.2144 27.8195 63.2144 25.9699ZM71.7105 27.0362C71.8482 28.2676 73.0445 29.0762 74.6792 29.0762C76.2456 29.0762 77.3726 28.2676 77.3726 27.1572C77.3726 26.1934 76.6929 25.6162 75.0835 25.2207L73.4742 24.833C71.1939 24.2822 70.1353 23.2158 70.1353 21.4854C70.1353 19.3428 72.0025 17.8711 74.6538 17.8711C77.2778 17.8711 79.0767 19.3428 79.1372 21.4854H77.2612C77.1489 20.2461 76.1245 19.4981 74.6274 19.4981C73.1304 19.4981 72.106 20.2549 72.106 21.3565C72.106 22.2344 72.7603 22.751 74.3608 23.1465L75.729 23.4824C78.2769 24.0849 79.3355 25.1084 79.3355 26.9248C79.3355 29.248 77.4849 30.7031 74.5415 30.7031C71.7876 30.7031 69.9282 29.2822 69.8081 27.0361L71.7105 27.0362ZM83.3462 21.4424V19.2998H81.479V21.4424H80.1626V22.9141H81.479V28.1035C81.479 29.8593 82.1938 30.5478 84.0268 30.5478C84.3729 30.5543 84.7188 30.5255 85.0591 30.4619V28.999C84.8562 29.0241 84.6521 29.0384 84.4477 29.042C83.6909 29.042 83.3462 28.6807 83.3462 27.9053V22.9141H85.0679V21.4424H83.3462ZM90.3589 21.3311C87.7427 21.3311 86.0649 23.1211 86.0649 25.9697C86.0649 28.8262 87.726 30.6084 90.3589 30.6084C92.9927 30.6084 94.6538 28.8262 94.6538 25.9697C94.6538 23.1211 92.9839 21.3311 90.3589 21.3311ZM90.3589 22.8623C91.8647 22.8623 92.7603 24.0156 92.7603 25.9697H92.7602C92.7602 27.9316 91.8647 29.0762 90.3589 29.0762C88.853 29.0762 87.9585 27.9316 87.9585 25.9697C87.9585 24.0244 88.853 22.8623 90.3589 22.8623ZM97.9585 21.4425H96.186V30.4962H98.0444V25.1261C97.9826 24.5828 98.1612 24.0396 98.5335 23.6391C98.9059 23.2387 99.4346 23.0209 99.981 23.0431C100.264 23.0349 100.546 23.0728 100.816 23.1554V21.4171C100.607 21.3703 100.393 21.347 100.179 21.3478C99.1576 21.3088 98.2487 21.9915 98.0015 22.9835H97.9585V21.4425ZM105.486 30.6084C107.534 30.6084 109.134 29.4805 109.384 27.8369H107.62C107.281 28.677 106.431 29.1948 105.529 29.1103C104.853 29.1352 104.198 28.8684 103.732 28.3778C103.266 27.8871 103.034 27.2199 103.093 26.5459V26.4336H109.488V25.7969C109.488 23.0518 107.913 21.3311 105.408 21.3311C102.861 21.3311 101.217 23.1729 101.217 26.0127C101.217 28.8437 102.852 30.6084 105.486 30.6084ZM107.628 25.1348H103.102C103.1 24.5235 103.343 23.9369 103.776 23.5054C104.209 23.0739 104.796 22.8333 105.408 22.8369C106.014 22.8239 106.599 23.0644 107.02 23.5006C107.442 23.9368 107.662 24.5291 107.628 25.1348ZM37.8262 8.7309C38.6151 8.67429 39.3879 8.97445 39.9317 9.54877C40.4756 10.1231 40.7333 10.911 40.6338 11.6957C40.6338 13.602 39.6035 14.6977 37.8262 14.6977H35.6709V8.7309H37.8262ZM36.5976 13.8539H37.7226C38.2865 13.8876 38.8355 13.6655 39.2172 13.2492C39.5989 12.8328 39.7728 12.2667 39.6904 11.7079C39.7668 11.1514 39.5904 10.5899 39.2096 10.177C38.8289 9.76412 38.2835 9.54299 37.7226 9.57411H36.5976V13.8539ZM42.6795 10.4285C41.9905 10.8561 41.6035 11.6372 41.6807 12.4443C41.6021 13.2523 41.9887 14.0349 42.6783 14.4633C43.3678 14.8918 44.2407 14.8918 44.9303 14.4633C45.6198 14.0349 46.0065 13.2523 45.9278 12.4443C46.005 11.6372 45.618 10.8561 44.9291 10.4285C44.2401 10.001 43.3684 10.001 42.6795 10.4285ZM43.8057 10.8974C44.5753 10.8974 45.0137 11.4682 45.0137 12.4443C45.0137 13.4243 44.5753 13.9946 43.8057 13.9946C43.0333 13.9946 42.5987 13.4282 42.5987 12.4443C42.5987 11.4682 43.0333 10.8974 43.8057 10.8974ZM50.6514 14.6978H51.5732L52.8096 10.1948H51.9209L51.1182 13.6308H51.0479L50.1221 10.1948H49.2695L48.3438 13.6308H48.2773L47.4707 10.1948H46.5693L47.8105 14.6978H48.7236L49.6504 11.3813H49.7207L50.6514 14.6978ZM53.8535 10.1949H54.709V10.9102H54.7754C55.0063 10.3836 55.546 10.0614 56.1191 10.108C56.563 10.0746 56.9979 10.2449 57.3011 10.5707C57.6043 10.8965 57.7429 11.3425 57.6777 11.7828V14.6978H56.7891V12.0059C56.7891 11.2823 56.4746 10.9224 55.8174 10.9224C55.5164 10.9084 55.2242 11.0266 55.0175 11.2459C54.8109 11.4652 54.7103 11.7639 54.7422 12.0635V14.6978H53.8535V10.1949ZM62.2167 10.4286C61.5277 10.8561 61.1407 11.6372 61.2178 12.4444C61.1392 13.2524 61.526 14.035 62.2155 14.4634C62.9051 14.8918 63.7781 14.8918 64.4676 14.4634C65.1572 14.035 65.544 13.2524 65.4654 12.4444C65.5425 11.6372 65.1555 10.8561 64.4665 10.4286C63.7775 10.001 62.9057 10.001 62.2167 10.4286ZM63.3428 10.8975C64.1123 10.8975 64.5508 11.4683 64.5508 12.4444C64.5508 13.4244 64.1123 13.9947 63.3428 13.9947C62.5704 13.9947 62.1358 13.4283 62.1358 12.4444C62.1358 11.4683 62.5704 10.8975 63.3428 10.8975ZM66.4009 13.4243C66.4009 12.6138 67.0044 12.1465 68.0757 12.0801L69.2954 12.0098V11.6211C69.2954 11.1455 68.981 10.877 68.3735 10.877C67.8774 10.877 67.5337 11.0591 67.4351 11.3774H66.5747C66.6655 10.604 67.3931 10.1079 68.4145 10.1079C69.5435 10.1079 70.1802 10.6699 70.1802 11.6211V14.6978H69.3247V14.0649H69.2544C68.9638 14.5271 68.4472 14.7972 67.9019 14.7719C67.5196 14.8117 67.1384 14.6879 66.8524 14.4311C66.5664 14.1744 66.4024 13.8086 66.4009 13.4243ZM69.2954 13.0395V12.6631L68.1958 12.7334C67.5757 12.7749 67.2944 12.9858 67.2944 13.3828C67.2944 13.7881 67.646 14.0239 68.1294 14.0239C68.4156 14.0529 68.7013 13.9645 68.9211 13.7789C69.1409 13.5933 69.276 13.3265 69.2954 13.0395ZM73.2173 10.1201C72.0796 10.1201 71.3481 11.0215 71.3481 12.4444C71.3481 13.8706 72.0718 14.772 73.2173 14.772C73.7981 14.7934 74.3428 14.4907 74.6314 13.9863H74.7017V14.6978H75.5532V8.43701H74.6646V10.9101H74.5981C74.3298 10.4015 73.7918 10.0937 73.2173 10.1201ZM73.4693 13.9741C72.7163 13.9741 72.2661 13.3994 72.2661 12.4444C72.2661 11.4971 72.7212 10.9185 73.4693 10.9185C74.2134 10.9185 74.6812 11.5098 74.6812 12.4483C74.6812 13.3911 74.2183 13.9741 73.4693 13.9741ZM79.23 12.4443C79.1528 11.6372 79.5399 10.8561 80.2288 10.4285C80.9177 10.001 81.7895 10.001 82.4784 10.4285C83.1673 10.8561 83.5543 11.6372 83.4771 12.4443C83.5558 13.2523 83.1691 14.0349 82.4796 14.4633C81.7901 14.8918 80.9171 14.8918 80.2276 14.4633C79.538 14.0349 79.1514 13.2523 79.23 12.4443ZM82.563 12.4443C82.563 11.4682 82.1246 10.8974 81.355 10.8974C80.5826 10.8974 80.148 11.4682 80.148 12.4443C80.148 13.4282 80.5826 13.9946 81.355 13.9946C82.1246 13.9946 82.563 13.4243 82.563 12.4443ZM84.6694 10.1949H85.5249V10.9102H85.5913C85.8222 10.3836 86.3619 10.0614 86.9351 10.108C87.3789 10.0746 87.8138 10.2449 88.117 10.5707C88.4202 10.8965 88.5588 11.3425 88.4937 11.7828V14.6978H87.605V12.0059C87.605 11.2823 87.2905 10.9224 86.6333 10.9224C86.3323 10.9084 86.0401 11.0266 85.8335 11.2459C85.6268 11.4652 85.5262 11.7639 85.5581 12.0635V14.6978H84.6694V10.1949ZM93.5151 10.2153V9.07373H92.6255V10.2153H91.9106V10.9638H92.6255V13.5068C92.6255 14.375 93.0191 14.7227 94.0073 14.7227C94.1694 14.721 94.3311 14.7058 94.4907 14.6772V13.937C94.3783 13.9503 94.2651 13.9572 94.1519 13.9575C93.7095 13.9575 93.5151 13.751 93.5151 13.2793V10.9639H94.4907V10.2153H93.5151ZM95.7046 8.43701H96.5854V10.9185H96.6558C96.8978 10.3872 97.4469 10.0646 98.0288 10.1118C98.4701 10.0878 98.8991 10.2618 99.199 10.5864C99.4989 10.9111 99.6384 11.3525 99.5795 11.7905V14.6978H98.69V12.0098C98.69 11.2905 98.355 10.9263 97.7271 10.9263C97.4179 10.9009 97.1133 11.0133 96.8947 11.2334C96.6761 11.4535 96.5658 11.7589 96.5933 12.0679V14.6977H95.7046V8.43701ZM104.761 13.482C104.512 14.3314 103.69 14.8802 102.81 14.7847C102.21 14.8006 101.633 14.5517 101.232 14.1041C100.831 13.6566 100.648 13.0555 100.73 12.4605C100.65 11.8639 100.833 11.2619 101.231 10.8105C101.63 10.3592 102.204 10.1029 102.806 10.108C104.059 10.108 104.815 10.964 104.815 12.378V12.6881H101.635V12.7379C101.607 13.072 101.721 13.4025 101.95 13.6481C102.178 13.8937 102.499 14.0316 102.835 14.0279C103.269 14.0801 103.693 13.8644 103.906 13.482H104.761ZM101.635 12.0308H103.91C103.932 11.7252 103.825 11.4243 103.614 11.2021C103.403 10.98 103.108 10.8573 102.801 10.8643C102.491 10.8604 102.192 10.9821 101.972 11.2017C101.753 11.4214 101.631 11.7203 101.635 12.0308Z" fill="black"/>
</symbol>
</defs>
</svg>