<svg id="Layer_1" data-name="Layer 1" xmlns="http://www.w3.org/2000/svg" viewBox="0 0 817.27 171.61"><defs><style>.cls-1,.cls-4{fill:#ffffff;}.cls-2{fill:#5B5A5F;}.cls-3{fill:#5B5A5F;}.cls-4{font-size:110.47px;font-family:CenturyGothic-BoldItalic, Century Gothic;font-style:italic;}.cls-5{font-weight:700;}.cls-6{font-family:CenturyGothic-Italic, Century Gothic;}</style></defs><title>logo-ms</title><path class="cls-1" d="M225.84,18c3.06-1,6.73-.69,6.12-5-.37-2.61-5.71-2.92-8.76-3.06-34.07-.28-68.28-.28-102.49-.55C103.46,9.34,86.22,9.2,69,9.2c-2.36,0-5.68.35-6.67,2.78-.81,2-1.67,4.45,1.25,6,7.79,4.17,4.73,9.87.14,13.07-4.87,3.2-5.15,7.37-5.56,12Q52.58,97.56,47.32,152.4a2.8,2.8,0,0,0,1.34,2.65c6.26,3.93,8.67,12.84,3.76,16.71-2.36,2-8.61,1.4-6.11,5.84,1.32,2.36,6.39,1.67,9.59,1.81,49.79.56,99.43,1.11,149.22,1.39,3.61,0,10.2.15,10.71-2.22.89-4.19-4.45-3.48-6.12-5.84-.84-1.12-.81-2.87-.7-4.45.81-11.95,4.3-9.88,8.9-13.07a2.82,2.82,0,0,0,1.19-2.12c.33-5,1.59-10.08,1.34-15.08-.14-2.64,1.06-8-3.5-7.7-5.7.33-15.58-3.89-16.41,3.34-1.25,12.1-8.48,8.62-14.74,8.9-8.9.14-17.94.14-27-.28-5.84-.28-14.74,2.92-11.54-9a2.69,2.69,0,0,0-2.37-3.47c-6.26-.28-12.65-1-18.77-.28-5,.55-2.92,5.7-3.62,8.76-1,4.87-4.59,3.75-7.23,3.75-12.93,0-25.86-.55-38.8-.14-7,.14-7.37-2.64-6.67-8.48,3-26.56,5.56-53.25,8.27-79.82a2.82,2.82,0,0,1,2.33-2.5c11.82-2,23.76.75,35.57-.56,10.43-1.25,16.13,3.61,18.35,13.49,1.95,9.18,3.9,18.21,7,27.12,1.19,3.22,1.77,8.08,6.22,8.25a2.8,2.8,0,0,0,2.85-2.4c2.06-13.73,3.56-27.47,3.31-41.33a2.09,2.09,0,0,1,0-.25c.34-4.45,3.64-3.63,6.67-3.77,11-.56,22-.14,33-1,8.9-.56,13.9,3.47,16.55,11.68,2.5,7.51,3.06,15.44,5.14,22.94,1,3.8,1.41,8.64,5.67,9.73a2.82,2.82,0,0,0,3.49-2.47c1.71-17.06,3.31-34.13,5-51.2.41-3.89,1.94-7.23-4.45-8.34C220.41,32.14,221.25,19.35,225.84,18ZM180,157.86c3-1.35,8-2.31,11.49,1.68a2.13,2.13,0,0,1,.49.81c1.82,7,.26,9.49-4.06,12.94-2.48,2-9.73,3.06-11.12-1.81C175.64,167.31,174.25,160.5,180,157.86Zm-34.63-.42a11.38,11.38,0,0,1,10.08.36c1,.54,1.92,3,2.13,4.11.79,4.25,1.59,6.9-4,11-3,2.19-10,2.64-11.4-1.26C140.59,167.31,139.34,160.22,145.32,157.44ZM111.11,157l.11,0a8.41,8.41,0,0,1,10.9,8.07c0,3.29-.05,6.32-3.36,7.68s-10.29,3.19-11.68-2.79C106.24,165.92,104.85,159.11,111.11,157Zm-35.6,0c3.31-1.24,9.9-3.3,11.91,1.95a2,2,0,0,0,.11.26c1.3,2.53,1.32,9.18-1.94,11.71-4.33,3.35-12.61,2-13.28-.85C71.37,166.11,70.09,159,75.51,157Zm23.8-125A7,7,0,0,1,97,33.7c-2.65,1.06-9.39,1.83-10.64-3.92-.84-4-2.23-10.85,3.61-12.66,3.34-1,10.29-3.06,11.82,2.51C102.79,23.13,103.12,28.33,99.31,32.07Zm32,.49c-3.47.83-9.87,3.34-10.56-2.92-.42-3.9-2.23-10.43,3.89-12.24,3-.83,6.93-1.66,10.28.78.94.69,1,1.86,1,3C136,25.47,137.6,31.19,131.27,32.56Zm34.35.42c-3.47.55-9.87,3.19-10.57-3.06-.55-4-2.36-11.13,4.45-12.66,3-.71,7.1-1.43,10.14,1.11.83.69.84,1.78.9,2.87C170.8,26,172.18,31.59,165.62,33ZM201,32.84c-3.2,1.25-9.74,3.06-11.13-2.23-1-3.89-2.5-10.84,3.34-12.93a14.16,14.16,0,0,1,10,.1,2.83,2.83,0,0,1,1.73,3.06C204.21,25.59,206.45,30.88,201,32.84Z" transform="translate(-45.73 -9.2)"/><path class="cls-2" d="M78.55,52.45a4.39,4.39,0,0,1,.31-3.24c1-1.82,3-2.45,5.09-2.46,13.62-.1,27.25.14,40.88.15,6.21,0,9.13,3.67,10.59,9.05,3.25,12,6.48,24,9.58,36,.63,2.45,4.74,12.62,5,13.9,1.15,5.62,5.09,14.39,0,17.54s-13.56,1.12-20.53,1.23c-5.07.08-10.14-.09-15.21-.1-17.27,0-17.32,0-20.47-17.64C90.43,88.25,83.59,70.61,78.55,52.45Z" transform="translate(-45.73 -9.2)"/><path class="cls-3" d="M153.69,55.57c-1.32-6.1,2.1-7.47,7.23-7.59,12.89-.3,25.78-.78,38.66-1.19,5.87-.18,9.14,2.83,11.54,8.08,4,8.69,5.1,18,6.79,27.15.9,4.92,9.27,28.25,10.43,35.93.79,5.2.41,8-6.12,7.65-12.46-.59-25-.8-37.42-.3-7.43.3-10.28-2.86-12-9.51C168,96.94,155.67,59.72,153.69,55.57Z" transform="translate(-45.73 -9.2)"/><text class="cls-4" transform="translate(218.27 126.85)"><tspan class="cls-5">Movie</tspan><tspan class="cls-6" x="329.19" y="0">Store</tspan></text></svg>