<?xml version="1.0" encoding="utf-8"?>
<!-- Generator: Adobe Illustrator 24.0.0, SVG Export Plug-In . SVG Version: 6.00 Build 0)  -->
<svg version="1.1" id="Layer_1" xmlns="http://www.w3.org/2000/svg" xmlns:xlink="http://www.w3.org/1999/xlink" x="0px" y="0px"
	 viewBox="0 0 72 72" style="enable-background:new 0 0 72 72;" xml:space="preserve">
<style type="text/css">
	.st0{fill:none;}
</style>
<title>play_circle</title>
<rect class="st0" width="72" height="72"/>
<g>
	<path d="M36,9C21.1,9,9,21.1,9,36s12.1,27,27,27c14.9,0,27-12.1,27-27S50.9,9,36,9z M36,59c-12.7,0-23-10.3-23-23
		c0-12.7,10.3-23,23-23c12.7,0,23,10.3,23,23C59,48.7,48.7,59,36,59z"/>
	<path d="M44.5,33.2L33.7,22.4c-1.3-1.3-3.4-0.4-3.4,1.4v24.4c0,1.8,2.2,2.7,3.4,1.4l10.8-10.8C46.1,37.3,46.1,34.7,44.5,33.2z
		 M34.3,28.6l7.4,7.4l-7.4,7.4V28.6z"/>
</g>
</svg>
