<svg aria-hidden="true" style="position: absolute; width: 0; height: 0; overflow: hidden;" version="1.1" xmlns="http://www.w3.org/2000/svg" xmlns:xlink="http://www.w3.org/1999/xlink">
<defs>
<symbol id="icon-instagram" viewBox="0 0 24 24">
<path d="M 8 3 C 5.243 3 3 5.243 3 8 L 3 16 C 3 18.757 5.243 21 8 21 L 16 21 C 18.757 21 21 18.757 21 16 L 21 8 C 21 5.243 18.757 3 16 3 L 8 3 z M 8 5 L 16 5 C 17.654 5 19 6.346 19 8 L 19 16 C 19 17.654 17.654 19 16 19 L 8 19 C 6.346 19 5 17.654 5 16 L 5 8 C 5 6.346 6.346 5 8 5 z M 17 6 A 1 1 0 0 0 16 7 A 1 1 0 0 0 17 8 A 1 1 0 0 0 18 7 A 1 1 0 0 0 17 6 z M 12 7 C 9.243 7 7 9.243 7 12 C 7 14.757 9.243 17 12 17 C 14.757 17 17 14.757 17 12 C 17 9.243 14.757 7 12 7 z M 12 9 C 13.654 9 15 10.346 15 12 C 15 13.654 13.654 15 12 15 C 10.346 15 9 13.654 9 12 C 9 10.346 10.346 9 12 9 z"/>
</symbol>
<symbol id="icon-facebook" viewBox="0 0 30 30">
<path d="M15,3C8.373,3,3,8.373,3,15c0,6.016,4.432,10.984,10.206,11.852V18.18h-2.969v-3.154h2.969v-2.099c0-3.475,1.693-5,4.581-5 c1.383,0,2.115,0.103,2.461,0.149v2.753h-1.97c-1.226,0-1.654,1.163-1.654,2.473v1.724h3.593L19.73,18.18h-3.106v8.697 C22.481,26.083,27,21.075,27,15C27,8.373,21.627,3,15,3z"/>
</symbol>
<symbol id="icon-twitch" viewBox="0 0 24 24">
<path d="M 5.3632812 2 L 2 6.6367188 L 2 20 L 7 20 L 7 23 L 10 23 L 13 20 L 17 20 L 22 15 L 22 2 L 5.3632812 2 z M 6 4 L 20 4 L 20 13 L 17 16 L 12 16 L 9 19 L 9 16 L 6 16 L 6 4 z M 11 7 L 11 12 L 13 12 L 13 7 L 11 7 z M 16 7 L 16 12 L 18 12 L 18 7 L 16 7 z"/>
</symbol>
<symbol id="icon-twitter" viewBox="0 0 30 30">
<path d="M28,6.937c-0.957,0.425-1.985,0.711-3.064,0.84c1.102-0.66,1.947-1.705,2.345-2.951c-1.03,0.611-2.172,1.055-3.388,1.295 c-0.973-1.037-2.359-1.685-3.893-1.685c-2.946,0-5.334,2.389-5.334,5.334c0,0.418,0.048,0.826,0.138,1.215 c-4.433-0.222-8.363-2.346-10.995-5.574C3.351,6.199,3.088,7.115,3.088,8.094c0,1.85,0.941,3.483,2.372,4.439 c-0.874-0.028-1.697-0.268-2.416-0.667c0,0.023,0,0.044,0,0.067c0,2.585,1.838,4.741,4.279,5.23 c-0.447,0.122-0.919,0.187-1.406,0.187c-0.343,0-0.678-0.034-1.003-0.095c0.679,2.119,2.649,3.662,4.983,3.705 c-1.825,1.431-4.125,2.284-6.625,2.284c-0.43,0-0.855-0.025-1.273-0.075c2.361,1.513,5.164,2.396,8.177,2.396 c9.812,0,15.176-8.128,15.176-15.177c0-0.231-0.005-0.461-0.015-0.69C26.38,8.945,27.285,8.006,28,6.937z"/>
</symbol>
<symbol id="icon-youtube" viewBox="0 0 24 24">
<path d="M21.582,6.186c-0.23-0.86-0.908-1.538-1.768-1.768C18.254,4,12,4,12,4S5.746,4,4.186,4.418 c-0.86,0.23-1.538,0.908-1.768,1.768C2,7.746,2,12,2,12s0,4.254,0.418,5.814c0.23,0.86,0.908,1.538,1.768,1.768 C5.746,20,12,20,12,20s6.254,0,7.814-0.418c0.861-0.23,1.538-0.908,1.768-1.768C22,16.254,22,12,22,12S22,7.746,21.582,6.186z M10,14.598V9.402c0-0.385,0.417-0.625,0.75-0.433l4.5,2.598c0.333,0.192,0.333,0.674,0,0.866l-4.5,2.598 C10.417,15.224,10,14.983,10,14.598z"/>
</symbol>
<symbol id="icon-moviestore" viewBox="0 0 207.21 29.831371">
<path d="M17.53,20.63,26.38,2.76c.59-1.18,4-2.08,5-1.34.46.34.3.87.3,1.31.09,4.79.15,9.58.21,14.37.05,3.68.05,7.36.17,11,0,1-.26,1.15-1.14,1.18-3.92.13-3.93.16-3.94-3.8s0-7.95,0-12c-.79.25-.85.88-1.08,1.33-2.23,4.43-4.21,9-6.6,13.33-.8,1.46-2.56,1.11-4,1.13-1.16,0-1-.94-1.12-1.61C13.07,23,11.94,18.37,10.8,13.73c-.07-.32,0-.73-.59-1C9.1,17.14,8,21.5,6.9,25.86,6,29.33,6,29.34,2.41,29.3c-.46,0-.92,0-1.5-.08C3,21.05,5,13,7.1,4.9c.07-.28.13-.56.19-.85C8,1.33,8,1.41,10.76,1.29c1.53-.06,2.19.29,2.55,1.93C14.56,8.92,16,14.56,17.53,20.63Z" transform="translate(-0.91 -0.16)"/><path d="M61.75,8.69c4.9-.41,4.9-.41,6.16,4.08.62,2.18,1.23,4.37,1.85,6.56,0,.09.11.17.27.41,1.85-3.19,3.71-6.28,5.43-9.44.68-1.27,1.44-2,3-1.74a24.36,24.36,0,0,0,3.31,0c.29.57-.15.9-.37,1.27C77.87,15.92,74.31,22,70.88,28.05a2.38,2.38,0,0,1-2.55,1.27c-1.18,0-1-1-1.21-1.61-1.7-5.83-3.36-11.66-5-17.5C62,9.72,61.87,9.2,61.75,8.69Z" transform="translate(-0.91 -0.16)"/><path d="M124.67,30a7.83,7.83,0,0,1-7.76-6c-.2-.94.39-1,.93-1.08s1.26-1,1.75.11c.17.37.28.77.45,1.14,1.19,2.55,3.63,3.7,6,2.86a5.28,5.28,0,0,0,3.21-5.95c-.47-2.39-2.07-4-3.76-5.55-2.13-1.93-4.23-3.86-4.73-6.93A6.67,6.67,0,0,1,125.52.84a7.09,7.09,0,0,1,8.37,4.9c.14.52.2,1-.48,1s-1.65,1.07-2.26-.2a5.78,5.78,0,0,0-1.68-2.2,3.59,3.59,0,0,0-3.94-.51,3.4,3.4,0,0,0-1.87,3.31,6.17,6.17,0,0,0,2,4.53c1.3,1.34,2.72,2.56,4,4,4.7,5.19,3,12.39-3.37,14.11A12,12,0,0,1,124.67,30Z" transform="translate(-0.91 -0.16)"/><path d="M85.14,29.3c-2.68,0-2.66,0-2.3-2.55.79-5.61,1.6-11.22,2.31-16.84.13-1.05.47-1.34,1.5-1.35,4,0,3.91-.08,3.33,3.79-.71,4.8-1.34,9.61-2,14.41C87.69,29.3,87.74,29.3,85.14,29.3Z" transform="translate(-0.91 -0.16)"/><path d="M140.18,29.27c-1.83.33-1.3-.9-1.19-1.72.64-4.8,1.32-9.59,2-14.39.29-2.13.26-2.22-1.85-2.13-1.3.05-1.39-.47-1.25-1.52s.68-1,1.36-.91c2,.37,2.68-.45,2.68-2.38,0-1.44.41-2.88.53-4.33s1.19-.93,2-1c1.13-.12.82.7.75,1.29-.21,1.73-.38,3.48-.71,5.19-.21,1.1.17,1.34,1.13,1.24a4.69,4.69,0,0,1,1.4,0c.51.09,1.47-.48,1.36.71-.08.8.07,1.71-1.35,1.71-3.11,0-3.09.09-3.48,3.18-.58,4.63-1.23,9.25-1.78,13.89C141.59,29.22,141.08,29.5,140.18,29.27Z" transform="translate(-0.91 -0.16)"/><path d="M179.51,10.59c1.78-1.76,3.79-2.82,6.32-2.38.48.08,1.43,0,1.07.88S186.61,11,185.42,11c-3.76,0-5.43,1.2-6.52,4.83-1,3.26-1.15,6.66-1.7,10-.12.69-.2,1.39-.31,2.08a1.71,1.71,0,0,1-2.42,1.42c-.64-.21-.37-.63-.33-1,.82-6.08,1.71-12.14,2.42-18.23.22-1.82,1.33-1.67,2.43-1.45C180.29,8.89,178.92,9.94,179.51,10.59Z" transform="translate(-0.91 -0.16)"/><path d="M88.93,6.48a3,3,0,0,1-3.21-3A3.15,3.15,0,0,1,88.81.17,3.23,3.23,0,0,1,92,3.39,3.07,3.07,0,0,1,88.93,6.48Z" transform="translate(-0.91 -0.16)"/><path d="M108.26,8.75a11,11,0,0,0-11.71,2.46c-3.42,3.2-4.38,7.26-3.39,11.72a8.25,8.25,0,0,0,6.93,6.6c4.77.94,9-.07,12.47-4a21.7,21.7,0,0,0-4.35-2.12c-.72-.18-1.71.78-2.59,1.18a5.94,5.94,0,0,1-1.18.35c-2.84.59-5.34-.51-6.19-2.72-.45-1.17-.5-1.85,1.2-1.8,4.56.12,9.12,0,13.69.05.8,0,1.22-.1,1.35-1.06C115.1,15,112.46,10.18,108.26,8.75Zm.7,7.7c-.21.42-.73.2-1.11.21-3,0-5.92,0-9.16,0A5.83,5.83,0,0,1,103.9,13a4.82,4.82,0,0,1,4.62,2.25C108.76,15.58,109.2,16,109,16.45Z" transform="translate(-0.91 -0.16)"/><path d="M51.3,8.36c-6.41-1.63-13.51,3.3-14.21,9.9-.6,5.61,1.49,9.5,5.9,11a11.78,11.78,0,0,0,15.58-11C58.59,13.25,55.86,9.52,51.3,8.36ZM47.1,25a4.72,4.72,0,0,1-5-5.05c0-3.94,2.68-6.94,6.28-7a4.92,4.92,0,0,1,5.18,5A6.62,6.62,0,0,1,47.1,25Z" transform="translate(-0.91 -0.16)"/><path d="M191.56,19.42c5.49.12,11,0,16.48,0,0-1.17.05-2.34.08-3.51a8.71,8.71,0,0,0-8.73-7.75,12,12,0,0,0-12.3,11c-.45,4.62,2.34,9.13,6.47,10.26a12.06,12.06,0,0,0,11.31-2.52c1-.83,1.23-1.38,0-2.33s-1.37,0-1.91.46a8.62,8.62,0,0,1-8.49,1.93c-2.67-.76-4-2.81-4.58-5.48C189.64,20.13,189.74,19.38,191.56,19.42Zm-.77-3.61A8.91,8.91,0,0,1,200.85,11a6.32,6.32,0,0,1,4.66,4.95c.23.9,0,1.27-1,1.24-2.17-.06-4.33,0-6.49,0s-4.21,0-6.31,0C190.64,17.18,190.2,17,190.79,15.81Z" transform="translate(-0.91 -0.16)"/><path d="M161.7,8.12a11.75,11.75,0,0,0-11.73,12,9.37,9.37,0,0,0,9.7,9.74,11.7,11.7,0,0,0,11.72-12C171.33,12.09,167.35,8.1,161.7,8.12Zm-2,19.16a7,7,0,0,1-7-7.56,9.07,9.07,0,0,1,9.22-9c4.08.06,6.94,3.19,6.85,7.47C168.61,23.41,164.59,27.45,159.65,27.28Z" transform="translate(-0.91 -0.16)"/>
</symbol>
<symbol id="icon-xmark" viewBox="0 0 17 16">
<path d="M1.23528 15.4277C1.35247 15.5384 1.48593 15.6133 1.63567 15.6523C1.78541 15.6914 1.93515 15.6914 2.08489 15.6523C2.23463 15.6133 2.36484 15.5384 2.47551 15.4277L8.72551 9.17775L14.9755 15.4277C15.0862 15.5384 15.2164 15.6133 15.3661 15.6523C15.5158 15.6914 15.6672 15.693 15.8202 15.6572C15.9732 15.6214 16.105 15.5449 16.2157 15.4277C16.3264 15.3171 16.3997 15.1869 16.4355 15.0371C16.4713 14.8874 16.4713 14.7377 16.4355 14.5879C16.3997 14.4382 16.3264 14.308 16.2157 14.1972L9.96575 7.93752L16.2157 1.68752C16.3264 1.57684 16.4013 1.44664 16.4404 1.2969C16.4795 1.14716 16.4795 0.997419 16.4404 0.847679C16.4013 0.69794 16.3264 0.567731 16.2157 0.457054C16.0986 0.339867 15.9651 0.263369 15.8154 0.227562C15.6656 0.191755 15.5158 0.191755 15.3661 0.227562C15.2164 0.263369 15.0862 0.339867 14.9755 0.457054L8.72551 6.70705L2.47551 0.457054C2.36484 0.339867 2.23301 0.263369 2.08001 0.227562C1.92702 0.191755 1.77565 0.191755 1.62591 0.227562C1.47617 0.263369 1.34596 0.339867 1.23528 0.457054C1.12461 0.567731 1.05136 0.69794 1.01556 0.847679C0.979749 0.997419 0.979749 1.14716 1.01556 1.2969C1.05136 1.44664 1.12461 1.57684 1.23528 1.68752L7.48528 7.93752L1.23528 14.1972C1.12461 14.308 1.04974 14.4382 1.01067 14.5879C0.971611 14.7377 0.969983 14.8874 1.00579 15.0371C1.0416 15.1869 1.1181 15.3171 1.23528 15.4277Z"/>
</symbol>
<symbol id="icon-done" viewBox="0 0 50 50">
<path d="M 42.875 8.625 C 42.84375 8.632813 42.8125 8.644531 42.78125 8.65625 C 42.519531 8.722656 42.292969 8.890625 42.15625 9.125 L 21.71875 40.8125 L 7.65625 28.125 C 7.410156 27.8125 7 27.675781 6.613281 27.777344 C 6.226563 27.878906 5.941406 28.203125 5.882813 28.597656 C 5.824219 28.992188 6.003906 29.382813 6.34375 29.59375 L 21.25 43.09375 C 21.46875 43.285156 21.761719 43.371094 22.050781 43.328125 C 22.339844 43.285156 22.59375 43.121094 22.75 42.875 L 43.84375 10.1875 C 44.074219 9.859375 44.085938 9.425781 43.875 9.085938 C 43.664063 8.746094 43.269531 8.566406 42.875 8.625 Z"/>
</symbol>
<symbol id="icon-bookmark-fill" viewBox="0 0 14 22">
<path d="M1.03516 21.5215C1.26953 21.5215 1.49089 21.4418 1.69922 21.2822C1.90755 21.1228 2.23307 20.8282 2.67578 20.3984L6.49414 16.6387C6.55273 16.5736 6.61133 16.5736 6.66992 16.6387L10.4883 20.3984C10.931 20.8216 11.2549 21.1146 11.46 21.2773C11.6651 21.4401 11.888 21.5215 12.1289 21.5215C12.4544 21.5215 12.7083 21.4174 12.8906 21.209C13.0729 21.0007 13.1641 20.7077 13.1641 20.3301V3.37695C13.1641 2.44596 12.933 1.74609 12.4707 1.27734C12.0084 0.808594 11.3183 0.574219 10.4004 0.574219H2.76367C1.8457 0.574219 1.1556 0.808594 0.693359 1.27734C0.23112 1.74609 0 2.44596 0 3.37695V20.3301C0 20.7077 0.091146 21.0007 0.273438 21.209C0.455729 21.4174 0.709637 21.5215 1.03516 21.5215Z"/>
</symbol>
<symbol id="icon-bookmark" viewBox="0 0 14 22">
<path d="M1.38575 21.6211C1.62012 21.6211 1.84147 21.5414 2.04981 21.3818C2.25814 21.2224 2.58366 20.9278 3.02637 20.498L6.84473 16.7383C6.90332 16.6732 6.96191 16.6732 7.02051 16.7383L10.8389 20.498C11.2816 20.9212 11.6055 21.2142 11.8106 21.3769C12.0157 21.5397 12.2386 21.6211 12.4795 21.6211C12.805 21.6211 13.0589 21.517 13.2412 21.3086C13.4235 21.1003 13.5147 20.8073 13.5147 20.4297V3.47656C13.5147 2.54557 13.2836 1.8457 12.8213 1.37695C12.359 0.908203 11.6689 0.673828 10.751 0.673828H3.11426C2.19629 0.673828 1.50619 0.908203 1.04394 1.37695C0.581706 1.8457 0.350586 2.54557 0.350586 3.47656V20.4297C0.350586 20.8073 0.441732 21.1003 0.624024 21.3086C0.806315 21.517 1.06022 21.6211 1.38575 21.6211ZM2.18653 18.9843C2.11491 19.0495 2.04818 19.0739 1.98633 19.0576C1.92448 19.0414 1.89356 18.9844 1.89356 18.8867V3.4961C1.89356 3.07292 2.00261 2.7539 2.22071 2.53906C2.43881 2.32422 2.7627 2.2168 3.19239 2.2168H10.6826C11.1058 2.2168 11.4264 2.32422 11.6445 2.53906C11.8626 2.7539 11.9717 3.07292 11.9717 3.4961V18.8867C11.9717 18.9844 11.9408 19.0414 11.8789 19.0576C11.817 19.0739 11.7503 19.0495 11.6787 18.9843L7.4502 14.8828C7.29394 14.7331 7.12142 14.6582 6.93262 14.6582C6.74382 14.6582 6.57129 14.7331 6.41504 14.8828L2.18653 18.9843Z"/>
</symbol>
<symbol id="icon-star-fill" viewBox="0 0 20 20">
<path d="M9.10433 2.89923C9.47114 2.15598 10.531 2.15599 10.8978 2.89923L12.8282 6.81073L17.1448 7.43797C17.9651 7.55715 18.2926 8.56513 17.699 9.14366L14.5755 12.1883L15.3129 16.4875C15.453 17.3044 14.5956 17.9274 13.8619 17.5417L10.0011 15.5119L6.14018 17.5417C5.40655 17.9274 4.54913 17.3044 4.68924 16.4875L5.4266 12.1883L2.30308 9.14366C1.70956 8.56512 2.03708 7.55715 2.8573 7.43797L7.17389 6.81073L9.10433 2.89923Z"/>
</symbol>
<symbol id="icon-dismiss" viewBox="0 0 28 28">
<path d="M22.4697 4.46967C22.7626 4.17678 23.2374 4.17678 23.5303 4.46967C23.8232 4.76256 23.8232 5.23744 23.5303 5.53033L15.0607 14L23.5303 22.4697C23.8232 22.7626 23.8232 23.2374 23.5303 23.5303C23.2374 23.8232 22.7626 23.8232 22.4697 23.5303L14 15.0607L5.53033 23.5303C5.23744 23.8232 4.76256 23.8232 4.46967 23.5303C4.17678 23.2374 4.17678 22.7626 4.46967 22.4697L12.9393 14L4.46967 5.53033C4.17678 5.23744 4.17678 4.76256 4.46967 4.46967C4.76256 4.17678 5.23744 4.17678 5.53033 4.46967L14 12.9393L22.4697 4.46967Z"/>
</symbol>
<symbol id="icon-list-empty" viewBox="0 0 18 20">
<path d="M11.3831 1.43306C11.2626 1.31585 11.0991 1.25 10.9286 1.25H7.07143C6.90093 1.25 6.73742 1.31585 6.61686 1.43306C6.4963 1.55027 6.42857 1.70924 6.42857 1.875V3.125C6.42857 3.29076 6.4963 3.44973 6.61686 3.56694C6.73742 3.68415 6.90093 3.75 7.07143 3.75H10.9286C11.0991 3.75 11.2626 3.68415 11.3831 3.56694C11.5037 3.44973 11.5714 3.29076 11.5714 3.125V1.875C11.5714 1.70924 11.5037 1.55027 11.3831 1.43306ZM5.70772 0.549175C6.0694 0.197544 6.55994 0 7.07143 0H10.9286C11.4401 0 11.9306 0.197544 12.2923 0.549175C12.654 0.900805 12.8571 1.37772 12.8571 1.875V3.125C12.8571 3.62228 12.654 4.09919 12.2923 4.45083C11.9306 4.80246 11.4401 5 10.9286 5H7.07143C6.55994 5 6.0694 4.80246 5.70772 4.45083C5.34605 4.09919 5.14286 3.62228 5.14286 3.125V1.875C5.14286 1.37772 5.34605 0.900805 5.70772 0.549175ZM3.85714 1.875H2.57143C1.88944 1.875 1.23539 2.13839 0.753154 2.60723C0.270918 3.07607 0 3.71196 0 4.375V17.5C0 18.163 0.270918 18.7989 0.753154 19.2678C1.23539 19.7366 1.88944 20 2.57143 20H15.4286C16.1106 20 16.7646 19.7366 17.2468 19.2678C17.7291 18.7989 18 18.163 18 17.5V4.375C18 3.71196 17.7291 3.07607 17.2468 2.60723C16.7646 2.13839 16.1106 1.875 15.4286 1.875H14.1429V3.125H15.4286C15.7696 3.125 16.0966 3.2567 16.3377 3.49112C16.5788 3.72554 16.7143 4.04348 16.7143 4.375V17.5C16.7143 17.8315 16.5788 18.1495 16.3377 18.3839C16.0966 18.6183 15.7696 18.75 15.4286 18.75H2.57143C2.23044 18.75 1.90341 18.6183 1.66229 18.3839C1.42117 18.1495 1.28571 17.8315 1.28571 17.5V4.375C1.28571 4.04348 1.42117 3.72554 1.66229 3.49112C1.90341 3.2567 2.23044 3.125 2.57143 3.125H3.85714V1.875ZM6.61593 8.9324C6.67564 8.87419 6.74658 8.82801 6.82469 8.7965C6.90279 8.765 6.98651 8.74878 7.07107 8.74878C7.15563 8.74878 7.23936 8.765 7.31746 8.7965C7.39556 8.82801 7.4665 8.87419 7.52621 8.9324L8.99964 10.3661L10.4731 8.9324C10.5938 8.81504 10.7575 8.74911 10.9282 8.74911C11.0989 8.74911 11.2626 8.81504 11.3834 8.9324C11.5041 9.04975 11.5719 9.20893 11.5719 9.3749C11.5719 9.54087 11.5041 9.70004 11.3834 9.8174L9.90864 11.2499L11.3834 12.6824C11.5041 12.7998 11.5719 12.9589 11.5719 13.1249C11.5719 13.2909 11.5041 13.45 11.3834 13.5674C11.2626 13.6848 11.0989 13.7507 10.9282 13.7507C10.7575 13.7507 10.5938 13.6848 10.4731 13.5674L8.99964 12.1336L7.52621 13.5674C7.4055 13.6848 7.24178 13.7507 7.07107 13.7507C6.90036 13.7507 6.73664 13.6848 6.61593 13.5674C6.49522 13.45 6.4274 13.2909 6.4274 13.1249C6.4274 12.9589 6.49522 12.7998 6.61593 12.6824L8.09064 11.2499L6.61593 9.8174C6.55606 9.75934 6.50856 9.69037 6.47615 9.61444C6.44375 9.53851 6.42706 9.45711 6.42706 9.3749C6.42706 9.29269 6.44375 9.21129 6.47615 9.13535C6.50856 9.05942 6.55606 8.99045 6.61593 8.9324Z"/>
</symbol>
<symbol id="icon-search" viewBox="0 0 20 21">
<path d="M0.899231 8.61328C0.899231 9.6875 1.10105 10.695 1.5047 11.6357C1.90835 12.5765 2.46824 13.405 3.18439 14.1211C3.90054 14.8372 4.72899 15.3971 5.66974 15.8008C6.61049 16.2044 7.61798 16.4062 8.6922 16.4062C9.53855 16.4062 10.3458 16.276 11.114 16.0156C11.8823 15.7552 12.5854 15.3971 13.2234 14.9414L18.0281 19.7558C18.1453 19.8665 18.2739 19.9496 18.4138 20.0049C18.5538 20.0602 18.702 20.0879 18.8582 20.0879C19.0796 20.0879 19.2749 20.0374 19.4441 19.9365C19.6134 19.8356 19.7452 19.6972 19.8396 19.5215C19.934 19.3457 19.9812 19.1504 19.9812 18.9355C19.9812 18.7793 19.9536 18.6328 19.8982 18.4961C19.8429 18.3594 19.7632 18.2389 19.659 18.1348L14.8836 13.3301C15.3849 12.679 15.7771 11.9531 16.0603 11.1523C16.3435 10.3516 16.4851 9.50521 16.4851 8.61328C16.4851 7.53906 16.2833 6.53158 15.8797 5.59082C15.4761 4.65007 14.9162 3.82162 14.2 3.10547C13.4839 2.38933 12.6554 1.82943 11.7146 1.42578C10.7739 1.02214 9.76642 0.820312 8.6922 0.820312C7.61798 0.820312 6.61049 1.02214 5.66974 1.42578C4.72899 1.82943 3.90054 2.38933 3.18439 3.10547C2.46824 3.82162 1.90835 4.65007 1.5047 5.59082C1.10105 6.53158 0.899231 7.53906 0.899231 8.61328ZM2.56915 8.61328C2.56915 7.76693 2.72703 6.97429 3.04278 6.23535C3.35854 5.49642 3.79799 4.84538 4.36114 4.28222C4.92429 3.71908 5.57534 3.27962 6.31427 2.96386C7.0532 2.64811 7.84585 2.49023 8.6922 2.49023C9.53855 2.49023 10.3312 2.64811 11.0701 2.96386C11.8091 3.27962 12.4585 3.71908 13.0183 4.28222C13.5783 4.84538 14.0177 5.49642 14.3367 6.23535C14.6557 6.97429 14.8152 7.76693 14.8152 8.61328C14.8152 9.45964 14.6557 10.2523 14.3367 10.9912C14.0177 11.7301 13.5783 12.3795 13.0183 12.9394C12.4585 13.4993 11.8091 13.9388 11.0701 14.2578C10.3312 14.5768 9.53855 14.7363 8.6922 14.7363C7.84585 14.7363 7.0532 14.5768 6.31427 14.2578C5.57534 13.9388 4.92429 13.4993 4.36114 12.9394C3.79799 12.3795 3.35854 11.7301 3.04278 10.9912C2.72703 10.2523 2.56915 9.45964 2.56915 8.61328Z"/>
</symbol>
<symbol id="icon-history" viewBox="0 0 22 20">
<path d="M11.5182 4.23828C11.3034 4.23828 11.1194 4.31315 10.9664 4.46289C10.8134 4.61263 10.7369 4.79492 10.7369 5.00977V10.459C10.7369 10.5762 10.7565 10.6852 10.7955 10.7861C10.8346 10.887 10.8932 10.9896 10.9713 11.0938L13.3834 14.2773C13.5462 14.4856 13.7334 14.6077 13.9449 14.6436C14.1565 14.6794 14.36 14.6289 14.5553 14.4922C14.7376 14.3685 14.8369 14.2008 14.8531 13.9893C14.8695 13.7777 14.8028 13.5742 14.653 13.3789L11.401 8.99414L12.2897 11.7285V5.00977C12.2897 4.79492 12.2149 4.61263 12.0651 4.46289C11.9154 4.31315 11.7331 4.23828 11.5182 4.23828ZM11.8893 19.9219C13.25 19.9219 14.5309 19.6615 15.7321 19.1406C16.9333 18.6198 17.9928 17.9004 18.9108 16.9824C19.8288 16.0645 20.5482 15.0049 21.069 13.8037C21.5898 12.6026 21.8502 11.3216 21.8502 9.96094C21.8502 8.60026 21.5898 7.31933 21.069 6.11816C20.5482 4.91699 19.8288 3.85742 18.9108 2.93945C17.9928 2.02148 16.9333 1.30208 15.7321 0.78125C14.5309 0.260417 13.25 0 11.8893 0C10.5286 0 9.24771 0.260417 8.04654 0.78125C6.84536 1.30208 5.78579 2.01986 4.86783 2.93457C3.94986 3.84928 3.23046 4.90723 2.70963 6.1084C2.18879 7.30957 1.92838 8.5905 1.92838 9.95117H3.58853C3.58853 8.79883 3.80174 7.72136 4.22818 6.71875C4.65461 5.71614 5.24868 4.83724 6.01041 4.08203C6.77212 3.32682 7.65428 2.736 8.65689 2.30957C9.65951 1.88314 10.737 1.66992 11.8893 1.66992C13.0417 1.66992 14.1191 1.88314 15.1217 2.30957C16.1243 2.736 17.0049 3.32845 17.7633 4.08691C18.5218 4.84538 19.1159 5.72591 19.5455 6.72852C19.9753 7.73112 20.1901 8.80859 20.1901 9.96094C20.1901 11.1133 19.9753 12.1924 19.5455 13.1982C19.1159 14.2041 18.5218 15.0862 17.7633 15.8447C17.0049 16.6032 16.1243 17.1973 15.1217 17.627C14.1191 18.0567 13.0417 18.2682 11.8893 18.2617C10.9583 18.2552 10.0762 18.1104 9.24283 17.8271C8.40949 17.5439 7.64614 17.1452 6.95279 16.6309C6.25943 16.1166 5.66535 15.5143 5.17056 14.8242C5.02081 14.6224 4.84015 14.4938 4.62857 14.4385C4.41698 14.3832 4.20702 14.4173 3.99869 14.541C3.80337 14.6647 3.68456 14.8438 3.64224 15.0781C3.59992 15.3125 3.6634 15.5371 3.83267 15.752C4.45116 16.5788 5.17707 17.3063 6.01041 17.9346C6.84374 18.5629 7.75845 19.0511 8.75455 19.3994C9.75067 19.7477 10.7956 19.9219 11.8893 19.9219ZM0.727198 8.07617C0.492824 8.07617 0.317043 8.12337 0.199855 8.21777C0.0826674 8.31218 0.0273288 8.4375 0.0338392 8.59375C0.0403496 8.75 0.105454 8.91927 0.229151 9.10156L2.41666 12.207C2.57942 12.4349 2.76496 12.5472 2.9733 12.5439C3.18163 12.5407 3.36392 12.4284 3.52017 12.207L5.70766 9.0918C5.83137 8.90951 5.89484 8.74186 5.8981 8.58887C5.90135 8.43588 5.84438 8.31218 5.7272 8.21777C5.61001 8.12337 5.43749 8.07617 5.20963 8.07617H0.727198Z"/>
</symbol>
<symbol id="icon-trending" viewBox="0 0 24 24">
<path d="M14.003 5.5H20.9998C21.5126 5.5 21.9353 5.88604 21.993 6.38338L21.9998 6.5V13.5C21.9998 14.0523 21.552 14.5 20.9998 14.5C20.4869 14.5 20.0643 14.114 20.0065 13.6166L19.9998 13.5L19.999 8.914L12.7069 16.2071C12.3466 16.5674 11.7798 16.5953 11.3875 16.2908L11.2933 16.2077L8.99726 13.9157L3.70917 19.2055C3.31871 19.5961 2.68555 19.5962 2.29496 19.2057C1.93442 18.8453 1.9066 18.2781 2.21156 17.8857L2.29473 17.7915L8.28932 11.795C8.64956 11.4346 9.21645 11.4066 9.6088 11.7112L9.70303 11.7943L11.9991 14.0864L18.584 7.5H14.003C13.4902 7.5 13.0675 7.11396 13.0098 6.61662L13.003 6.5C13.003 5.98716 13.3891 5.56449 13.8864 5.50673L14.003 5.5H20.9998H14.003Z"/>
</symbol>
<symbol id="icon-person" viewBox="0 0 24 19">
<path d="M14.5461 6.39459H19.8781C20.0474 6.39459 20.1906 6.33599 20.3078 6.21881C20.425 6.10162 20.4836 5.95839 20.4836 5.78913C20.4836 5.61985 20.425 5.47825 20.3078 5.36432C20.1906 5.25038 20.0474 5.19342 19.8781 5.19342H14.5461C14.3703 5.19342 14.2238 5.25038 14.1066 5.36432C13.9894 5.47825 13.9308 5.61985 13.9308 5.78913C13.9308 5.95839 13.9894 6.10162 14.1066 6.21881C14.2238 6.33599 14.3703 6.39459 14.5461 6.39459ZM14.5461 10.2227H19.8781C20.0474 10.2227 20.1906 10.1641 20.3078 10.0469C20.425 9.92975 20.4836 9.78327 20.4836 9.60749C20.4836 9.44472 20.425 9.30637 20.3078 9.19245C20.1906 9.07851 20.0474 9.02155 19.8781 9.02155H14.5461C14.3703 9.02155 14.2238 9.07851 14.1066 9.19245C13.9894 9.30637 13.9308 9.44472 13.9308 9.60749C13.9308 9.78327 13.9894 9.92975 14.1066 10.0469C14.2238 10.1641 14.3703 10.2227 14.5461 10.2227ZM14.5461 14.0411H19.8781C20.0474 14.0411 20.1906 13.9841 20.3078 13.8702C20.425 13.7563 20.4836 13.6179 20.4836 13.4551C20.4836 13.2858 20.425 13.141 20.3078 13.0206C20.1906 12.9001 20.0474 12.8399 19.8781 12.8399H14.5461C14.3703 12.8399 14.2238 12.9001 14.1066 13.0206C13.9894 13.141 13.9308 13.2858 13.9308 13.4551C13.9308 13.6179 13.9894 13.7563 14.1066 13.8702C14.2238 13.9841 14.3703 14.0411 14.5461 14.0411ZM4.3703 14.0411H11.9972C12.1535 14.0411 12.2723 13.9923 12.3537 13.8946C12.4351 13.7969 12.4757 13.6765 12.4757 13.5333C12.4757 13.3054 12.3895 13.0092 12.217 12.6446C12.0445 12.28 11.7808 11.9138 11.4259 11.546C11.0711 11.1781 10.6235 10.8705 10.0832 10.6231C9.54283 10.3757 8.90806 10.252 8.17889 10.252C7.44973 10.252 6.81659 10.3757 6.27948 10.6231C5.74237 10.8705 5.29641 11.1781 4.94159 11.546C4.58677 11.9138 4.3231 12.28 4.15057 12.6446C3.97805 13.0092 3.89178 13.3054 3.89178 13.5333C3.89178 13.6765 3.93247 13.7969 4.01385 13.8946C4.09523 13.9923 4.21405 14.0411 4.3703 14.0411ZM8.17889 9.56842C8.77134 9.56842 9.2759 9.34706 9.69256 8.90436C10.1092 8.46165 10.3176 7.90501 10.3176 7.23444C10.3176 6.81777 10.2215 6.43691 10.0295 6.09186C9.83742 5.7468 9.58026 5.47011 9.25799 5.26178C8.93573 5.05344 8.57603 4.94928 8.17889 4.94928C7.78827 4.94928 7.43019 5.05344 7.10467 5.26178C6.77915 5.47011 6.52037 5.7468 6.32831 6.09186C6.13625 6.43691 6.04022 6.81777 6.04022 7.23444C6.04022 7.90501 6.25018 8.46165 6.6701 8.90436C7.09003 9.34706 7.59296 9.56842 8.17889 9.56842ZM3.79413 18.6016H20.6886C21.7173 18.6016 22.4855 18.3493 22.9933 17.8448C23.5011 17.3402 23.755 16.5866 23.755 15.584V3.65045C23.755 2.64785 23.5011 1.89264 22.9933 1.38483C22.4855 0.877014 21.7173 0.623108 20.6886 0.623108H3.79413C2.77199 0.623108 2.00539 0.875387 1.49432 1.37994C0.983256 1.8845 0.727722 2.64133 0.727722 3.65045V15.584C0.727722 16.5866 0.983256 17.3402 1.49432 17.8448C2.00539 18.3493 2.77199 18.6016 3.79413 18.6016ZM3.81366 17.0293C3.32538 17.0293 2.95103 16.9007 2.69061 16.6436C2.4302 16.3865 2.29999 16.004 2.29999 15.4961V3.73834C2.29999 3.23053 2.4302 2.84642 2.69061 2.586C2.95103 2.32558 3.32538 2.19538 3.81366 2.19538H20.6691C21.1509 2.19538 21.5237 2.32558 21.7873 2.586C22.051 2.84642 22.1828 3.23053 22.1828 3.73834V15.4961C22.1828 16.004 22.051 16.3865 21.7873 16.6436C21.5237 16.9007 21.1509 17.0293 20.6691 17.0293H3.81366Z"/>
</symbol>
<symbol id="icon-film" viewBox="0 0 24 19">
<path d="M2.43542 18.1116H21.4979C22.1034 18.1116 22.5851 17.9342 22.9432 17.5794C23.3013 17.2245 23.4803 16.7509 23.4803 16.1585V2.06665C23.4803 1.48071 23.3013 1.01034 22.9432 0.655517C22.5851 0.3007 22.1034 0.123291 21.4979 0.123291H2.43542C1.83646 0.123291 1.35632 0.3007 0.994995 0.655517C0.633667 1.01034 0.453003 1.48071 0.453003 2.06665V16.1585C0.453003 16.7509 0.633667 17.2245 0.994995 17.5794C1.35632 17.9342 1.83646 18.1116 2.43542 18.1116ZM2.44519 16.5393C2.10014 16.5393 1.92761 16.37 1.92761 16.0315V14.928C1.92761 14.7913 1.97156 14.679 2.05945 14.5911C2.14734 14.5032 2.2629 14.4592 2.40612 14.4592H3.66589C3.80912 14.4592 3.92305 14.5032 4.00769 14.5911C4.09233 14.679 4.13464 14.7913 4.13464 14.928V16.0608C4.13464 16.1975 4.09233 16.3115 4.00769 16.4026C3.92305 16.4937 3.80912 16.5393 3.66589 16.5393H2.44519ZM2.40612 13.3069C2.2629 13.3069 2.14734 13.2597 2.05945 13.1653C1.97156 13.0709 1.92761 12.9618 1.92761 12.8381V11.7249C1.92761 11.5816 1.97156 11.4661 2.05945 11.3782C2.14734 11.2903 2.2629 11.2463 2.40612 11.2463H3.66589C3.80912 11.2463 3.92305 11.2903 4.00769 11.3782C4.09233 11.4661 4.13464 11.5816 4.13464 11.7249V12.8381C4.13464 12.9618 4.09233 13.0709 4.00769 13.1653C3.92305 13.2597 3.80912 13.3069 3.66589 13.3069H2.40612ZM2.40612 10.1428C2.2629 10.1428 2.14734 10.0972 2.05945 10.0061C1.97156 9.91496 1.92761 9.80753 1.92761 9.68383V8.57055C1.92761 8.42733 1.97156 8.31177 2.05945 8.22387C2.14734 8.13599 2.2629 8.09204 2.40612 8.09204H3.66589C3.80912 8.09204 3.92305 8.13599 4.00769 8.22387C4.09233 8.31177 4.13464 8.42733 4.13464 8.57055V9.68383C4.13464 9.80753 4.09233 9.91496 4.00769 10.0061C3.92305 10.0972 3.80912 10.1428 3.66589 10.1428H2.40612ZM2.40612 7.00805C2.2629 7.00805 2.14734 6.96248 2.05945 6.87133C1.97156 6.78019 1.92761 6.67277 1.92761 6.54907V5.42602C1.92761 5.2828 1.97156 5.16724 2.05945 5.07934C2.14734 4.99146 2.2629 4.94751 2.40612 4.94751H3.66589C3.80912 4.94751 3.92305 4.99146 4.00769 5.07934C4.09233 5.16724 4.13464 5.2828 4.13464 5.42602V6.54907C4.13464 6.67277 4.09233 6.78019 4.00769 6.87133C3.92305 6.96248 3.80912 7.00805 3.66589 7.00805H2.40612ZM2.40612 3.77563C2.2629 3.77563 2.14734 3.73006 2.05945 3.63891C1.97156 3.54777 1.92761 3.44035 1.92761 3.31665V2.21313C1.92761 1.86808 2.10014 1.69555 2.44519 1.69555H3.66589C3.80912 1.69555 3.92305 1.7395 4.00769 1.82739C4.09233 1.91528 4.13464 2.03084 4.13464 2.17407V3.31665C4.13464 3.44035 4.09233 3.54777 4.00769 3.63891C3.92305 3.73006 3.80912 3.77563 3.66589 3.77563H2.40612ZM5.98034 16.5393C5.8306 16.5393 5.71504 16.4986 5.63366 16.4172C5.55228 16.3359 5.51159 16.2203 5.51159 16.0706V10.3772C5.51159 10.234 5.55228 10.1217 5.63366 10.0403C5.71504 9.9589 5.8306 9.91821 5.98034 9.91821H17.9628C18.106 9.91821 18.2183 9.9589 18.2997 10.0403C18.3811 10.1217 18.4218 10.234 18.4218 10.3772V16.0706C18.4218 16.2203 18.3811 16.3359 18.2997 16.4172C18.2183 16.4986 18.106 16.5393 17.9628 16.5393H5.98034ZM5.98034 8.33618C5.8306 8.33618 5.71504 8.29549 5.63366 8.21411C5.55228 8.13273 5.51159 8.02043 5.51159 7.87719V2.14477C5.51159 2.00155 5.55228 1.89087 5.63366 1.81274C5.71504 1.73462 5.8306 1.69555 5.98034 1.69555H17.9628C18.106 1.69555 18.2183 1.73462 18.2997 1.81274C18.3811 1.89087 18.4218 2.00155 18.4218 2.14477V7.87719C18.4218 8.02043 18.3811 8.13273 18.2997 8.21411C18.2183 8.29549 18.106 8.33618 17.9628 8.33618H5.98034ZM20.2675 16.5393C20.1308 16.5393 20.0184 16.4937 19.9305 16.4026C19.8426 16.3115 19.7987 16.1975 19.7987 16.0608V14.928C19.7987 14.7913 19.8426 14.679 19.9305 14.5911C20.0184 14.5032 20.1308 14.4592 20.2675 14.4592H21.5272C21.6705 14.4592 21.786 14.5032 21.8739 14.5911C21.9618 14.679 22.0057 14.7913 22.0057 14.928V16.0315C22.0057 16.37 21.8332 16.5393 21.4882 16.5393H20.2675ZM20.2675 13.3069C20.1308 13.3069 20.0184 13.2597 19.9305 13.1653C19.8426 13.0709 19.7987 12.9618 19.7987 12.8381V11.7249C19.7987 11.5816 19.8426 11.4661 19.9305 11.3782C20.0184 11.2903 20.1308 11.2463 20.2675 11.2463H21.5272C21.6769 11.2463 21.7941 11.2903 21.8788 11.3782C21.9634 11.4661 22.0057 11.5816 22.0057 11.7249V12.8381C22.0057 12.9618 21.9618 13.0709 21.8739 13.1653C21.786 13.2597 21.6705 13.3069 21.5272 13.3069H20.2675ZM20.2675 10.1428C20.1308 10.1428 20.0184 10.0972 19.9305 10.0061C19.8426 9.91496 19.7987 9.80753 19.7987 9.68383V8.57055C19.7987 8.42733 19.8426 8.31177 19.9305 8.22387C20.0184 8.13599 20.1308 8.09204 20.2675 8.09204H21.5272C21.6769 8.09204 21.7941 8.13599 21.8788 8.22387C21.9634 8.31177 22.0057 8.42733 22.0057 8.57055V9.68383C22.0057 9.80753 21.9618 9.91496 21.8739 10.0061C21.786 10.0972 21.6705 10.1428 21.5272 10.1428H20.2675ZM20.2675 7.00805C20.1308 7.00805 20.0184 6.96248 19.9305 6.87133C19.8426 6.78019 19.7987 6.67277 19.7987 6.54907V5.42602C19.7987 5.2828 19.8426 5.16724 19.9305 5.07934C20.0184 4.99146 20.1308 4.94751 20.2675 4.94751H21.5272C21.6769 4.94751 21.7941 4.99146 21.8788 5.07934C21.9634 5.16724 22.0057 5.2828 22.0057 5.42602V6.54907C22.0057 6.67277 21.9618 6.78019 21.8739 6.87133C21.786 6.96248 21.6705 7.00805 21.5272 7.00805H20.2675ZM20.2675 3.77563C20.1308 3.77563 20.0184 3.73006 19.9305 3.63891C19.8426 3.54777 19.7987 3.44035 19.7987 3.31665V2.17407C19.7987 2.03084 19.8426 1.91528 19.9305 1.82739C20.0184 1.7395 20.1308 1.69555 20.2675 1.69555H21.4882C21.8332 1.69555 22.0057 1.86808 22.0057 2.21313V3.31665C22.0057 3.44035 21.9618 3.54777 21.8739 3.63891C21.786 3.73006 21.6705 3.77563 21.5272 3.77563H20.2675Z"/>
</symbol>
<symbol id="icon-door-out" viewBox="0 0 28 28">
<path d="M5 5C5 3.34315 6.34315 2 8 2H20C21.6569 2 23 3.34315 23 5V13.4268C22.5205 13.2573 22.0186 13.1352 21.5 13.0661V5C21.5 4.17157 20.8284 3.5 20 3.5H8C7.17157 3.5 6.5 4.17157 6.5 5V23C6.5 23.8284 7.17157 24.5 8 24.5H14.1546C14.5039 25.053 14.9235 25.5572 15.4009 26H8C6.34315 26 5 24.6569 5 23V5ZM9.5 15C10.3284 15 11 14.3284 11 13.5C11 12.6716 10.3284 12 9.5 12C8.67157 12 8 12.6716 8 13.5C8 14.3284 8.67157 15 9.5 15ZM27 20.5C27 24.0899 24.0899 27 20.5 27C16.9101 27 14 24.0899 14 20.5C14 16.9101 16.9101 14 20.5 14C24.0899 14 27 16.9101 27 20.5ZM16.5 20C16.2239 20 16 20.2239 16 20.5C16 20.7761 16.2239 21 16.5 21H23.2929L21.1464 23.1464C20.9512 23.3417 20.9512 23.6583 21.1464 23.8536C21.3417 24.0488 21.6583 24.0488 21.8536 23.8536L24.8536 20.8536C24.9015 20.8056 24.9377 20.7504 24.9621 20.6914C24.9861 20.6333 24.9996 20.5697 25 20.503L25 20.5L25 20.497C24.9992 20.37 24.9504 20.2433 24.8536 20.1464L21.8536 17.1464C21.6583 16.9512 21.3417 16.9512 21.1464 17.1464C20.9512 17.3417 20.9512 17.6583 21.1464 17.8536L23.2929 20H16.5Z"/>
</symbol>
<symbol id="icon-menu" viewBox="0 0 30 30">
<path d="M 3 7 A 1.0001 1.0001 0 1 0 3 9 L 27 9 A 1.0001 1.0001 0 1 0 27 7 L 3 7 z M 3 14 A 1.0001 1.0001 0 1 0 3 16 L 27 16 A 1.0001 1.0001 0 1 0 27 14 L 3 14 z M 3 21 A 1.0001 1.0001 0 1 0 3 23 L 27 23 A 1.0001 1.0001 0 1 0 27 21 L 3 21 z"/>
</symbol>
<symbol id="icon-home" viewBox="0 0 30 30">
<path d="M12.5919 3.49507C13.4146 2.83498 14.5854 2.83498 15.4081 3.49507L23.1581 9.7134C23.6903 10.1404 24 10.786 24 11.4683V22.7487C24 23.9914 22.9926 24.9987 21.75 24.9987H18.75C17.5074 24.9987 16.5 23.9914 16.5 22.7487V16.7487C16.5 16.3345 16.1642 15.9987 15.75 15.9987H12.25C11.8358 15.9987 11.5 16.3345 11.5 16.7487V22.7487C11.5 23.9914 10.4926 24.9987 9.25 24.9987H6.25C5.00736 24.9987 4 23.9914 4 22.7487V11.4683C4 10.786 4.30967 10.1404 4.84191 9.7134L12.5919 3.49507ZM14.4694 4.66502C14.1951 4.44499 13.8049 4.44499 13.5306 4.66502L5.78064 10.8834C5.60322 11.0257 5.5 11.2409 5.5 11.4683V22.7487C5.5 23.1629 5.83579 23.4987 6.25 23.4987H9.25C9.66421 23.4987 10 23.1629 10 22.7487V16.7487C10 15.5061 11.0074 14.4987 12.25 14.4987H15.75C16.9926 14.4987 18 15.5061 18 16.7487V22.7487C18 23.1629 18.3358 23.4987 18.75 23.4987H21.75C22.1642 23.4987 22.5 23.1629 22.5 22.7487V11.4683C22.5 11.2409 22.3968 11.0257 22.2194 10.8834L14.4694 4.66502Z"/>
</symbol>
<symbol id="icon-movie-new" viewBox="0 0 512 512">
<path d="M326.1 160l127.4-127.4C451.7 32.39 449.9 32 448 32h-86.06l-128 128H326.1zM166.1 160l128-128H201.9l-128 128H166.1zM497.7 56.19L393.9 160H512V96C512 80.87 506.5 67.15 497.7 56.19zM134.1 32H64C28.65 32 0 60.65 0 96v64h6.062L134.1 32zM0 416c0 35.35 28.65 64 64 64h384c35.35 0 64-28.65 64-64V192H0V416z"/>
</symbol>
<symbol id="icon-select-all" viewBox="0 0 24 24">
<path d="M20.4962 5.62668C21.3721 5.93448 22 6.76891 22 7.75V17.75C22 20.0972 20.0972 22 17.75 22H7.75C6.76891 22 5.93448 21.3721 5.62668 20.4962L7.72396 20.4996L17.75 20.5C19.2688 20.5 20.5 19.2688 20.5 17.75V7.75L20.496 7.69902L20.4962 5.62668ZM17.2468 2C18.4895 2 19.4968 3.00736 19.4968 4.25V17.2468C19.4968 18.4895 18.4895 19.4968 17.2468 19.4968H4.25C3.00736 19.4968 2 18.4895 2 17.2468V4.25C2 3.00736 3.00736 2 4.25 2H17.2468ZM17.2468 3.5H4.25C3.83579 3.5 3.5 3.83579 3.5 4.25V17.2468C3.5 17.661 3.83579 17.9968 4.25 17.9968H17.2468C17.661 17.9968 17.9968 17.661 17.9968 17.2468V4.25C17.9968 3.83579 17.661 3.5 17.2468 3.5ZM9.58115 11.3582L13.4697 7.46967C13.7626 7.17678 14.2374 7.17678 14.5303 7.46967C14.7966 7.73594 14.8208 8.1526 14.6029 8.44621L14.5303 8.53033L10.0303 13.0303C9.73449 13.3262 9.26134 13.3189 8.9736 13.0344L8.9 12.95L7.4 10.95C7.15147 10.6186 7.21863 10.1485 7.55 9.9C7.85125 9.67407 8.26715 9.70903 8.527 9.96622L8.6 10.05L9.58115 11.3582L13.4697 7.46967L9.58115 11.3582Z"/>
</symbol>
<symbol id="icon-globe" viewBox="0 0 21 20">
<path d="M2.60712 14.2676C2.9717 13.9877 3.25653 13.6768 3.46161 13.335C3.66669 12.9932 3.8262 12.666 3.94013 12.3535C4.05406 12.041 4.15497 11.7839 4.24286 11.582C4.33075 11.3802 4.44631 11.2793 4.58954 11.2793C4.73928 11.2793 4.89879 11.3509 5.06806 11.4941C5.23733 11.6374 5.45542 11.8783 5.72235 12.2168C6.17157 12.7962 6.55731 13.2308 6.87958 13.5205C7.20185 13.8102 7.51597 13.9551 7.82196 13.9551C8.01077 13.9551 8.20282 13.877 8.39813 13.7207C8.59344 13.5644 8.7562 13.3707 8.88641 13.1396C9.01662 12.9085 9.08173 12.6823 9.08173 12.4609C9.08173 12.3568 9.0329 12.2461 8.93524 12.1289C8.83759 12.0117 8.73993 11.8994 8.64227 11.792C8.54461 11.6846 8.49579 11.5918 8.49579 11.5137C8.49579 11.377 8.60647 11.3086 8.82782 11.3086C9.28355 11.3086 9.70835 11.1995 10.1022 10.9814C10.4961 10.7633 10.8135 10.4948 11.0544 10.1758C11.2953 9.85678 11.4157 9.54427 11.4157 9.23828C11.4157 9.01693 11.3278 8.80534 11.152 8.60352C10.9763 8.40169 10.7989 8.21289 10.6198 8.03711C10.4408 7.86133 10.3513 7.70182 10.3513 7.55859C10.3513 7.46745 10.3838 7.39584 10.4489 7.34375C10.514 7.29166 10.5889 7.26562 10.6735 7.26562C10.7321 7.26562 10.7972 7.27864 10.8688 7.30469C10.9405 7.33073 11.0186 7.3763 11.1032 7.44141C11.4613 7.72136 11.7559 7.87435 11.987 7.90039C12.2181 7.92643 12.3972 7.8776 12.5241 7.75391C12.6511 7.63021 12.7309 7.48047 12.7634 7.30469C12.7829 7.19401 12.8383 7.07845 12.9294 6.95801C13.0205 6.83756 13.2061 6.70898 13.486 6.57227C13.8767 6.37044 14.2201 6.14746 14.5163 5.90332C14.8125 5.65918 15.0453 5.41341 15.2146 5.16602C15.3839 4.91862 15.4685 4.68424 15.4685 4.46289C15.4685 4.2806 15.4018 4.10644 15.2683 3.94043C15.1348 3.77442 14.9802 3.61979 14.8044 3.47656C14.6286 3.33333 14.474 3.20638 14.3405 3.0957C14.207 2.98503 14.1403 2.89388 14.1403 2.82227C14.1403 2.74414 14.2087 2.66764 14.3454 2.59277C14.4821 2.5179 14.71 2.43164 15.029 2.33398C14.6905 2.02799 14.2901 1.75456 13.8278 1.51367C13.3656 1.27278 12.8415 1.08398 12.2556 0.947266C11.6697 0.810547 11.0251 0.742188 10.322 0.742188C9.2217 0.787761 8.20119 0.973308 7.26044 1.29883C6.31968 1.62435 5.47821 2.06706 4.73602 2.62695C3.99383 3.18685 3.35907 3.84278 2.83173 4.59473C2.30438 5.34668 1.90074 6.17676 1.62079 7.08496C1.34084 7.99317 1.19761 8.95183 1.1911 9.96094C1.18459 10.7487 1.30341 11.5202 1.54755 12.2754C1.79169 13.0306 2.14488 13.6947 2.60712 14.2676ZM14.6872 18.2129C16.6013 16.989 18.0075 15.5144 18.906 13.7891C18.8279 13.1641 18.6456 12.6791 18.3591 12.334C18.0726 11.9889 17.7211 11.8164 17.3044 11.8164C17.1872 11.8164 17.0619 11.8262 16.9284 11.8457C16.7949 11.8652 16.6664 11.8978 16.5427 11.9434C16.3734 11.9955 16.2514 12.0101 16.1765 11.9873C16.1016 11.9645 15.9958 11.875 15.8591 11.7188C15.6638 11.4974 15.4701 11.3411 15.278 11.25C15.0859 11.1589 14.8565 11.1133 14.5896 11.1133C14.0817 11.1133 13.6699 11.2549 13.3542 11.5381C13.0385 11.8213 12.7699 12.2949 12.5485 12.959C12.4899 13.1608 12.3971 13.3122 12.2702 13.4131C12.1433 13.514 11.9073 13.6296 11.5622 13.7598L11.152 13.9062C10.7679 14.056 10.5238 14.2823 10.4196 14.585C10.3154 14.8877 10.3285 15.3255 10.4587 15.8984C10.6996 16.9205 11.1716 17.4316 11.8747 17.4316C12.1872 17.4316 12.4509 17.3942 12.6657 17.3193C12.8806 17.2444 13.0954 17.207 13.3103 17.207C13.6228 17.2005 13.875 17.2901 14.0671 17.4756C14.2592 17.6611 14.4659 17.9069 14.6872 18.2129ZM12.6853 9.36523C12.8936 9.36523 13.0759 9.31478 13.2321 9.21387C13.3884 9.11296 13.5479 9.00065 13.7106 8.87695C13.8734 8.75326 14.0752 8.6556 14.3161 8.58398C14.5505 8.51888 14.7295 8.38216 14.8532 8.17383C14.9769 7.9655 15.0388 7.76042 15.0388 7.55859C15.0388 7.38932 14.9965 7.24447 14.9118 7.12402C14.8272 7.00358 14.6937 6.94336 14.5114 6.94336C14.1143 6.94336 13.792 7.20703 13.5446 7.73438C13.4795 7.87109 13.3851 7.98177 13.2614 8.06641C13.1377 8.15104 12.9457 8.22917 12.6853 8.30078C12.3142 8.41146 12.1286 8.60677 12.1286 8.88672C12.1286 9.04948 12.1839 9.16992 12.2946 9.24805C12.4053 9.32617 12.5355 9.36523 12.6853 9.36523ZM9.85321 13.877C10.1332 13.877 10.387 13.7451 10.6149 13.4814C10.8428 13.2177 10.9567 12.9427 10.9567 12.6562C10.9567 12.2981 10.8932 12.0345 10.7663 11.8652C10.6394 11.6959 10.4912 11.6113 10.322 11.6113C10.1397 11.6113 9.99318 11.7122 9.88251 11.9141C9.77183 12.1159 9.71649 12.3828 9.71649 12.7148C9.71649 12.9036 9.66115 13.0322 9.55048 13.1006C9.4398 13.1689 9.38446 13.2975 9.38446 13.4863C9.38446 13.7468 9.54071 13.877 9.85321 13.877ZM8.14423 15.6641C8.60647 15.6641 8.83759 15.472 8.83759 15.0879C8.83759 14.7884 8.67157 14.6387 8.33954 14.6387C7.94891 14.6387 7.6592 14.5834 7.4704 14.4727C7.2816 14.362 7.12698 14.2513 7.00653 14.1406C6.88609 14.0299 6.73147 13.9746 6.54267 13.9746C6.38642 13.9746 6.25946 14.0169 6.16181 14.1016C6.06415 14.1862 6.01532 14.2969 6.01532 14.4336C6.01532 14.5443 6.06415 14.6354 6.16181 14.707C6.25946 14.7787 6.3799 14.8145 6.52313 14.8145C6.67938 14.8145 6.79332 14.8568 6.86493 14.9414C6.93654 15.0261 7.00979 15.1254 7.08466 15.2393C7.15953 15.3532 7.27509 15.4525 7.43134 15.5371C7.58759 15.6218 7.82522 15.6641 8.14423 15.6641ZM10.3317 19.9219C11.6924 19.9219 12.9734 19.6615 14.1745 19.1406C15.3757 18.6198 16.4353 17.9004 17.3532 16.9824C18.2712 16.0645 18.9906 15.0049 19.5114 13.8037C20.0323 12.6026 20.2927 11.3216 20.2927 9.96094C20.2927 8.60026 20.0323 7.31933 19.5114 6.11816C18.9906 4.91699 18.2712 3.85742 17.3532 2.93945C16.4353 2.02148 15.3741 1.30208 14.1696 0.78125C12.9652 0.260417 11.6826 0 10.322 0C8.96129 0 7.68036 0.260417 6.47919 0.78125C5.27802 1.30208 4.22007 2.02148 3.30536 2.93945C2.39065 3.85742 1.67287 4.91699 1.15204 6.11816C0.631205 7.31933 0.370789 8.60026 0.370789 9.96094C0.370789 11.3216 0.631205 12.6026 1.15204 13.8037C1.67287 15.0049 2.39227 16.0645 3.31024 16.9824C4.22821 17.9004 5.28778 18.6198 6.48895 19.1406C7.69012 19.6615 8.97105 19.9219 10.3317 19.9219ZM10.3317 18.5938C9.15334 18.5938 8.04331 18.3675 7.00165 17.915C5.95998 17.4625 5.04201 16.8392 4.24774 16.0449C3.45347 15.2506 2.8301 14.3327 2.37763 13.291C1.92515 12.2493 1.69891 11.1393 1.69891 9.96094C1.69891 8.78255 1.92515 7.67253 2.37763 6.63086C2.8301 5.58919 3.45185 4.67122 4.24286 3.87695C5.03387 3.08268 5.95021 2.45931 6.99188 2.00684C8.03355 1.55436 9.14357 1.32812 10.322 1.32812C11.5004 1.32812 12.6104 1.55436 13.652 2.00684C14.6937 2.45931 15.6133 3.08268 16.4108 3.87695C17.2083 4.67122 17.8333 5.58919 18.2858 6.63086C18.7383 7.67253 18.9646 8.78255 18.9646 9.96094C18.9646 11.1393 18.7383 12.2493 18.2858 13.291C17.8333 14.3327 17.21 15.2506 16.4157 16.0449C15.6214 16.8392 14.7035 17.4625 13.6618 17.915C12.6201 18.3675 11.5101 18.5938 10.3317 18.5938Z"/>
</symbol>
<symbol id="icon-calendar" viewBox="0 0 24 24">
<path fill-rule="evenodd" clip-rule="evenodd" d="M20.0204 2.31615H19.8763C19.8759 1.03647 18.839 0 17.5597 0C16.2805 0 15.2431 1.03647 15.2431 2.31615H9.14258C9.14212 1.03647 8.10519 0 6.82597 0C5.54674 0 4.50936 1.03647 4.50936 2.31615H3.9775C1.98014 2.31615 0.364502 3.93686 0.364502 5.92961V5.93194V20.3866C0.364502 22.3817 1.98054 24.0001 3.9775 24.0001H20.0204C22.0155 24.0001 23.6357 22.3817 23.6357 20.3866V5.93189V5.92955C23.6357 3.93686 22.0155 2.31615 20.0204 2.31615ZM21.2093 20.3203C21.2093 20.9152 20.7256 21.4012 20.1293 21.4012H4.02104C3.42478 21.4012 2.9392 20.9152 2.9392 20.3203V10.9876H21.2093V20.3203ZM15.2431 14.0382C15.2431 14.6779 14.7245 15.1964 14.0848 15.1964C13.4451 15.1964 12.9265 14.6779 12.9265 14.0382C12.9265 13.3985 13.4451 12.8799 14.0848 12.8799C14.7245 12.8799 15.2431 13.3985 15.2431 14.0382ZM5.66755 19.1352C6.30725 19.1352 6.82583 18.6166 6.82583 17.9769C6.82583 17.3372 6.30725 16.8186 5.66755 16.8186C5.02786 16.8186 4.50928 17.3372 4.50928 17.9769C4.50928 18.6166 5.02786 19.1352 5.66755 19.1352ZM9.91487 19.1352C10.5546 19.1352 11.0731 18.6166 11.0731 17.9769C11.0731 17.3372 10.5546 16.8186 9.91487 16.8186C9.27517 16.8186 8.75659 17.3372 8.75659 17.9769C8.75659 18.6166 9.27517 19.1352 9.91487 19.1352ZM15.2431 17.9769C15.2431 18.6166 14.7245 19.1352 14.0848 19.1352C13.4451 19.1352 12.9265 18.6166 12.9265 17.9769C12.9265 17.3372 13.4451 16.8186 14.0848 16.8186C14.7245 16.8186 15.2431 17.3372 15.2431 17.9769ZM18.7178 19.1352C19.3575 19.1352 19.8761 18.6166 19.8761 17.9769C19.8761 17.3372 19.3575 16.8186 18.7178 16.8186C18.0781 16.8186 17.5596 17.3372 17.5596 17.9769C17.5596 18.6166 18.0781 19.1352 18.7178 19.1352ZM19.8761 14.0382C19.8761 14.6779 19.3575 15.1964 18.7178 15.1964C18.0781 15.1964 17.5596 14.6779 17.5596 14.0382C17.5596 13.3985 18.0781 12.8799 18.7178 12.8799C19.3575 12.8799 19.8761 13.3985 19.8761 14.0382Z"/>
</symbol>
<symbol id="icon-flame-fill" viewBox="0 0 17 23">
<path d="M8.34247 21.123C9.63153 21.123 10.8018 20.9147 11.8532 20.498C12.9047 20.0813 13.8112 19.4889 14.5729 18.7207C15.3346 17.9525 15.919 17.0313 16.3259 15.957C16.7328 14.8828 16.9362 13.6914 16.9362 12.3828C16.9362 10.9245 16.7474 9.60611 16.3698 8.42773C15.9922 7.24935 15.4763 6.2028 14.822 5.28809C14.1677 4.37338 13.4173 3.58236 12.571 2.91504C11.7247 2.24772 10.8311 1.69759 9.89032 1.26465C8.94956 0.831706 8.0023 0.512695 7.04853 0.307617C6.09475 0.102539 5.18817 0 4.3288 0C3.86656 0 3.50035 0.0797527 3.23017 0.239258C2.95998 0.398763 2.82489 0.634766 2.82489 0.947266C2.82489 1.07096 2.85093 1.19466 2.90302 1.31836C2.9551 1.44206 3.03322 1.5625 3.13739 1.67969C3.52151 2.14193 3.89097 2.63347 4.24579 3.1543C4.60061 3.67513 4.89358 4.22526 5.1247 4.80469C5.35582 5.38412 5.47463 5.99609 5.48114 6.64062C5.48114 6.86198 5.45998 7.07845 5.41767 7.29004C5.37535 7.50163 5.27606 7.74414 5.11981 8.01758L5.6081 7.91992C5.45836 7.43815 5.24188 7.01335 4.95868 6.64551C4.67548 6.27767 4.35647 5.98958 4.00165 5.78125C3.64683 5.57292 3.29689 5.46875 2.95185 5.46875C2.75002 5.46875 2.58726 5.53711 2.46357 5.67383C2.33987 5.81055 2.27802 5.98633 2.27802 6.20117C2.27802 6.32487 2.28941 6.5153 2.3122 6.77246C2.33498 7.02962 2.34638 7.26562 2.34638 7.48047C2.34638 7.91667 2.29104 8.32683 2.18036 8.71094C2.06968 9.09505 1.92971 9.48242 1.76044 9.87305C1.59117 10.2637 1.42352 10.6787 1.25751 11.1182C1.09149 11.5576 0.951518 12.0508 0.837585 12.5977C0.723653 13.1446 0.666687 13.7696 0.666687 14.4727C0.666687 15.8073 0.985697 16.9727 1.62372 17.9688C2.26174 18.9649 3.15529 19.7396 4.30439 20.293C5.45347 20.8463 6.7995 21.123 8.34247 21.123ZM8.56708 18.3789C7.65562 18.3789 6.92157 18.1266 6.36493 17.6221C5.80829 17.1175 5.52997 16.4551 5.52997 15.6348C5.52997 15.2051 5.59344 14.8356 5.7204 14.5264C5.84735 14.2171 5.99546 13.9372 6.16474 13.6865C6.334 13.4358 6.49025 13.195 6.63349 12.9639C6.77671 12.7328 6.86786 12.4772 6.90692 12.1973C6.91343 12.1517 6.93134 12.124 6.96064 12.1143C6.98993 12.1045 7.02085 12.1126 7.05341 12.1387C7.28127 12.3405 7.4717 12.5635 7.6247 12.8076C7.77769 13.0517 7.91604 13.3138 8.03974 13.5938C8.30015 13.2422 8.4857 12.723 8.59638 12.0361C8.70705 11.3493 8.72007 10.6055 8.63544 9.80469C8.62892 9.75912 8.63869 9.72494 8.66474 9.70215C8.69078 9.67936 8.72658 9.67774 8.77216 9.69727C9.4883 10.0358 10.0873 10.4785 10.569 11.0254C11.0508 11.5723 11.4138 12.168 11.6579 12.8125C11.902 13.457 12.0241 14.0983 12.0241 14.7363C12.0241 15.3808 11.8972 15.9798 11.6433 16.5332C11.3894 17.0866 11.0069 17.5326 10.4958 17.8711C9.98472 18.2096 9.34182 18.3789 8.56708 18.3789Z"/>
</symbol>
<symbol id="icon-list" viewBox="0 0 576 512">
<path d="M0 96C0 60.65 28.65 32 64 32H512C547.3 32 576 60.65 576 96V416C576 451.3 547.3 480 512 480H64C28.65 480 0 451.3 0 416V96zM160 256C160 238.3 145.7 224 128 224C110.3 224 96 238.3 96 256C96 273.7 110.3 288 128 288C145.7 288 160 273.7 160 256zM160 160C160 142.3 145.7 128 128 128C110.3 128 96 142.3 96 160C96 177.7 110.3 192 128 192C145.7 192 160 177.7 160 160zM160 352C160 334.3 145.7 320 128 320C110.3 320 96 334.3 96 352C96 369.7 110.3 384 128 384C145.7 384 160 369.7 160 352zM224 136C210.7 136 200 146.7 200 160C200 173.3 210.7 184 224 184H448C461.3 184 472 173.3 472 160C472 146.7 461.3 136 448 136H224zM224 232C210.7 232 200 242.7 200 256C200 269.3 210.7 280 224 280H448C461.3 280 472 269.3 472 256C472 242.7 461.3 232 448 232H224zM224 328C210.7 328 200 338.7 200 352C200 365.3 210.7 376 224 376H448C461.3 376 472 365.3 472 352C472 338.7 461.3 328 448 328H224z"/>
</symbol>
<symbol id="icon-calendar-time" viewBox="0 0 30 30">
<path fill-rule="evenodd" clip-rule="evenodd" d="M5.54221 0.564974C5.11446 0.719456 4.70033 0.909573 4.30415 1.13334C4.49593 1.16827 4.68266 1.22693 4.86008 1.30795C5.0698 1.41477 5.25437 1.56533 5.40142 1.74957C5.54847 1.9338 5.65462 2.14745 5.71274 2.3762C5.75367 2.50974 5.79801 2.53028 5.92761 2.46865C7.12689 1.88837 8.47794 1.70265 9.78846 1.93795C10.7907 2.09258 11.7461 2.46959 12.5849 3.04155C13.4238 3.61351 14.125 4.36603 14.6377 5.24434C15.1503 6.12265 15.4615 7.10465 15.5485 8.11888C15.6354 9.1331 15.4961 10.154 15.1405 11.1074C14.7849 12.0607 14.2221 12.9225 13.493 13.63C12.7638 14.3375 11.8868 14.8728 10.9256 15.1972C9.96435 15.5215 8.94321 15.6266 7.93645 15.5048C6.92968 15.3831 5.96262 15.0375 5.10565 14.4933C4.16829 13.9356 3.38228 13.1547 2.81714 12.2195C2.25201 11.2843 1.92517 10.2237 1.86554 9.13151C1.86498 8.93006 1.89253 8.72953 1.94739 8.53576C1.97374 8.39291 1.98381 8.24643 1.9939 8.0996C2.0034 7.96135 2.01292 7.82278 2.03607 7.68664C2.12518 7.03992 2.38022 6.42757 2.77618 5.90964C2.85804 5.8035 2.91602 5.78638 3.02175 5.88568C3.30142 6.13562 3.63907 6.42322 3.88123 6.62181C4.12338 6.82039 4.35531 6.73137 4.42011 6.42665C4.50103 6.0172 4.55797 5.60334 4.59064 5.18721C4.6605 4.35473 4.67076 3.5183 4.62134 2.68435C4.62336 2.6303 4.61355 2.57646 4.59259 2.52662C4.57163 2.47679 4.54003 2.43218 4.50003 2.39594C4.46003 2.3597 4.41259 2.33271 4.36107 2.31688C4.30954 2.30104 4.25518 2.29675 4.20183 2.3043C3.39684 2.27235 2.59071 2.28492 1.78709 2.34197C1.31643 2.37963 0.852578 2.43783 0.392141 2.52001C0.255716 2.54397 0.126111 2.60218 0.126111 2.74598C0.105526 2.81478 0.105543 2.88814 0.126161 2.95693C0.146779 3.02572 0.187087 3.08691 0.242073 3.13288C0.444689 3.29346 0.636635 3.47011 0.828753 3.64691C0.943859 3.75285 1.05903 3.85883 1.17659 3.96146C1.19206 3.97035 1.20541 3.98252 1.21572 3.99711C1.22603 4.01171 1.23305 4.02838 1.2363 4.04597C1.23954 4.06357 1.23893 4.08166 1.23451 4.09899C1.23009 4.11633 1.22196 4.13248 1.2107 4.14635C0.871011 4.76852 0.59778 5.42498 0.395552 6.1048C0.0379006 7.23295 -0.0783247 8.42421 0.0544879 9.60058C0.28207 11.7972 1.3509 13.8192 3.03539 15.2397C3.96796 16.0736 5.07508 16.6868 6.27513 17.0341C7.47518 17.3813 8.73757 17.4538 9.96922 17.2461C11.9252 16.9693 13.7174 15.9974 15.0204 14.507C17.0258 12.2644 17.7489 9.64167 17.0668 6.70398C16.7852 5.49594 16.2492 4.36241 15.495 3.37956C14.7407 2.39671 13.7857 1.58732 12.694 1.00577C11.6023 0.424231 10.3992 0.0840123 9.16563 0.00798148C7.93207 -0.0680493 6.69659 0.121869 5.54221 0.564974ZM4.25306 17.4001C3.55796 17.0533 2.90934 16.6196 2.32264 16.1093C2.32044 16.127 2.31824 16.1389 2.3165 16.1484C2.31284 16.1684 2.31119 16.1773 2.31581 16.2052V26.6378C2.31385 27.4289 2.59737 28.1939 3.1139 28.7914C3.44171 29.185 3.85419 29.499 4.32029 29.7095C4.7864 29.92 5.294 30.0217 5.8049 30.0068H26.4836C26.9639 30.0217 27.4418 29.9345 27.8862 29.751C28.3305 29.5675 28.7312 29.2918 29.0621 28.942C29.3762 28.6043 29.6206 28.2074 29.781 27.7743C29.9414 27.3411 30.0147 26.8804 29.9966 26.4186V8.24469V7.86807C29.96 7.13721 29.6892 6.43776 29.2246 5.87387C28.76 5.30999 28.1264 4.91181 27.4181 4.73864C26.8052 4.63718 26.1833 4.60046 25.5627 4.62908C25.4195 4.62566 25.3922 4.67017 25.3922 4.80712V6.95732C25.3693 7.55532 25.1165 8.12116 24.687 8.53611C24.2574 8.95106 23.6845 9.18285 23.0883 9.18285C22.4922 9.18285 21.9192 8.95106 21.4897 8.53611C21.0601 8.12116 20.8074 7.55532 20.7844 6.95732V4.80712C20.7878 4.65989 20.7469 4.62223 20.5968 4.62223H17.7217H17.5443C17.5548 4.66166 17.5673 4.70051 17.5818 4.73864C17.9849 5.633 18.2528 6.58275 18.3765 7.55649C18.5595 8.83425 18.4522 10.137 18.0627 11.3673L18.0598 11.3765C18.0277 11.4764 18.0113 11.5271 18.0298 11.5529C18.0489 11.5795 18.1052 11.5795 18.2196 11.5795H27.4591C27.6535 11.5795 27.6876 11.6309 27.6876 11.8192V26.4494V26.7268C27.6888 26.9851 27.5958 27.235 27.4262 27.4292C27.2566 27.6235 27.022 27.7487 26.7667 27.7813C26.635 27.7916 26.5027 27.7916 26.3711 27.7813H5.96179H5.6446C5.3994 27.7717 5.16536 27.6759 4.98334 27.5107C4.80132 27.3455 4.68287 27.1214 4.64869 26.8774C4.62931 26.7391 4.62019 26.5994 4.62141 26.4597V18.0027C4.64151 17.8747 4.61546 17.7437 4.54794 17.6332C4.48042 17.5228 4.37586 17.4401 4.25306 17.4001ZM8.54364 7.42638C8.70735 7.48459 8.83354 7.39215 8.96655 7.26546C9.34375 6.90469 9.72419 6.54716 10.1045 6.18977L10.1045 6.18973L10.1046 6.18969L10.1046 6.18965L10.1046 6.18961L10.1047 6.18957L10.1047 6.18953L10.1048 6.18949L10.1048 6.18945L10.1049 6.18941L10.1049 6.18937L10.1049 6.18933C10.5979 5.72606 11.0906 5.26301 11.5757 4.79342C11.6774 4.69428 11.8113 4.63521 11.9528 4.62704C12.0944 4.61887 12.2341 4.66213 12.3465 4.74891C12.4313 4.85256 12.4732 4.98489 12.4637 5.11866C12.4542 5.25242 12.3939 5.37743 12.2953 5.46793L9.90789 8.20703C9.86259 8.25106 9.82749 8.30456 9.8051 8.36373C9.7827 8.4229 9.77355 8.48629 9.77829 8.54942C9.80708 8.90394 9.70106 9.25626 9.48156 9.53549C9.42391 9.61531 9.39179 9.71084 9.38947 9.8094C9.33718 10.7224 9.28261 11.6355 9.22576 12.5485C9.2169 12.6622 9.1731 12.7704 9.10041 12.8581C9.02771 12.9458 8.9297 13.0087 8.8199 13.0381C8.71507 13.0811 8.60032 13.0936 8.48875 13.0742C8.37718 13.0549 8.27328 13.0044 8.18893 12.9286C8.153 12.8946 8.12423 12.8538 8.10431 12.8085C8.08439 12.7633 8.07373 12.7144 8.07297 12.6649C8.04022 12.2869 8.00683 11.9128 7.97336 11.5378L7.97335 11.5377L7.97334 11.5376C7.93011 11.0533 7.88674 10.5674 7.84445 10.0696C7.84958 9.98339 7.83324 9.89725 7.79692 9.81894C7.7606 9.74064 7.70544 9.67265 7.6364 9.62109C7.27488 9.34718 7.1555 8.59393 7.34991 8.10431C7.44572 7.87434 7.61502 7.68291 7.83115 7.56017C8.04727 7.43743 8.29793 7.39036 8.54364 7.42638ZM21.9304 3.49578V5.20772L21.9372 5.21114V7.00183C21.9532 7.29653 22.0811 7.57387 22.2946 7.77681C22.5081 7.97974 22.7909 8.09284 23.0849 8.09284C23.3789 8.09284 23.6617 7.97974 23.8752 7.77681C24.0887 7.57387 24.2166 7.29653 24.2326 7.00183V3.39991C24.2398 3.16619 24.1673 2.93701 24.0271 2.75025C23.887 2.56348 23.6876 2.43031 23.4618 2.37275C22.7285 2.16389 21.9304 2.54394 21.9304 3.49578ZM17.3091 19.6736V18.6807C17.3091 18.5643 17.3329 18.5163 17.4591 18.5163H19.4816C19.5942 18.5163 19.6249 18.5506 19.6249 18.6635V20.6905C19.6249 20.8206 19.5806 20.8446 19.4646 20.8411H17.4625C17.3398 20.8411 17.3057 20.8035 17.3091 20.6802C17.3113 20.4615 17.3106 20.2381 17.3098 20.0133V20.0128V20.0122V20.0117V20.0111V20.0106V20.0101V20.0095V20.009C17.3094 19.8974 17.3091 19.7855 17.3091 19.6736ZM17.4284 16.2018H18.4516L19.4577 16.1812C19.5498 16.1812 19.5976 16.1675 19.5976 16.0546V14.0002C19.5976 13.9044 19.5669 13.877 19.4714 13.877H17.425C17.3159 13.877 17.292 13.9146 17.292 14.0139V16.0682C17.292 16.1744 17.3261 16.2018 17.4284 16.2018ZM8.08324 19.677V18.6807C8.08324 18.5711 8.08324 18.5163 8.2299 18.5163H10.249C10.3615 18.5163 10.3957 18.5506 10.3922 18.6635V20.6905C10.3922 20.8172 10.3513 20.8446 10.2319 20.8446H8.23331C8.10711 20.8446 8.07642 20.8069 8.07642 20.6871C8.08665 20.4353 8.08537 20.1816 8.08409 19.9289L8.08409 19.9286C8.08366 19.8446 8.08324 19.7607 8.08324 19.677ZM12.841 20.8446H13.8301C13.9673 20.8446 14.1046 20.8434 14.2409 20.8423H14.2411L14.2415 20.8423C14.4438 20.8407 14.6441 20.8391 14.8396 20.8411C14.959 20.8411 14.9965 20.8137 14.9965 20.6871V18.6601C14.9965 18.5471 14.9692 18.5129 14.8533 18.5129H12.8342C12.6875 18.5129 12.6875 18.5643 12.6875 18.6772V20.6871C12.6841 20.8069 12.7148 20.8446 12.841 20.8446ZM21.9304 19.6599V18.667C21.9304 18.554 21.9577 18.5163 22.0737 18.5197H24.0927C24.2019 18.5197 24.2394 18.5471 24.2394 18.6601V20.7144C24.2394 20.8172 24.2121 20.8548 24.1064 20.8514H22.06C21.9372 20.8514 21.9236 20.7966 21.9236 20.6973C21.9304 20.3481 21.9304 20.0057 21.9304 19.6599ZM19.6283 25.3127V24.3369C19.6283 23.9945 19.6283 23.6487 19.6351 23.3029C19.6386 23.1968 19.6147 23.1557 19.4953 23.1557H17.4489C17.3125 23.1557 17.3125 23.207 17.3125 23.3097V25.3161C17.3125 25.4325 17.333 25.4771 17.4626 25.4771H19.4817C19.6283 25.4771 19.6283 25.4223 19.6283 25.3127ZM23.0798 16.2018H22.0566C21.944 16.2018 21.9133 16.1744 21.9133 16.0614V14.0345C21.9133 13.9044 21.9543 13.8804 22.0702 13.8838H24.0689C24.1882 13.8838 24.2257 13.9112 24.2223 14.0379V16.0443C24.2223 16.1812 24.178 16.2052 24.0552 16.2018C23.8444 16.1995 23.629 16.2003 23.4111 16.201C23.3012 16.2014 23.1907 16.2018 23.0798 16.2018ZM8.08325 23.2755V24.3027C8.08325 24.6382 8.08666 24.9772 8.09348 25.299C8.09007 25.4086 8.10713 25.4599 8.24014 25.4599H10.2592C10.3684 25.4634 10.4025 25.4326 10.4025 25.3161V23.2892C10.4025 23.1831 10.382 23.142 10.2627 23.142H8.21627C8.11395 23.142 8.08325 23.1694 8.08325 23.2755ZM15 24.3164V25.3435C15 25.4565 14.9693 25.4908 14.8568 25.4873H12.8377C12.7081 25.4873 12.6876 25.4394 12.691 25.3264V23.3166C12.691 23.1933 12.7285 23.1659 12.8479 23.1659H14.8465C14.9864 23.1659 15.0068 23.2139 15.0034 23.3337C14.9983 23.575 14.999 23.8222 14.9996 24.0693V24.0694C14.9998 24.1518 15 24.2342 15 24.3164ZM21.9304 23.3029V24.2958C21.9304 24.3822 21.9306 24.4686 21.9308 24.555C21.9315 24.8146 21.9321 25.0747 21.927 25.3367C21.9236 25.4497 21.9577 25.4805 22.0702 25.4805H24.0996C24.2053 25.4805 24.2462 25.4599 24.2462 25.3435V23.2892C24.2462 23.1831 24.2155 23.1557 24.1132 23.1557H22.0668C21.9475 23.1557 21.9304 23.2002 21.9304 23.3029Z"/>
</symbol>
<symbol id="icon-news" viewBox="0 0 22 20">
<path d="M20.2084 1.70837L18.9584 0.458374C18.6251 0.125041 18.1251 0.125041 17.7917 0.458374L16.5417 1.70837L15.2917 0.458374C14.9584 0.125041 14.4584 0.125041 14.1251 0.458374L12.8751 1.70837L11.6251 0.458374C11.2917 0.125041 10.7917 0.125041 10.4584 0.458374L9.20841 1.70837L7.95841 0.458374C7.62508 0.125041 7.08341 0.125041 6.79175 0.458374L5.54175 1.70837L4.29175 0.458374C3.95841 0.125041 3.45841 0.125041 3.12508 0.458374L1.87508 1.70837L0.166748 0.083374V18.2084C0.166748 19.125 0.916748 19.875 1.83341 19.875H20.1667C21.0834 19.875 21.8334 19.125 21.8334 18.2084V0.083374L20.2084 1.70837ZM20.1667 3.58337V8.20837H1.83341V3.58337H20.1667ZM12.2084 11.5834V9.91671H20.1667V11.5834H12.2084ZM20.1667 13.25V14.9167H12.2084V13.25H20.1667ZM1.83341 9.91671H10.5417V18.25H1.83341V9.91671ZM12.2084 18.25V16.5834H20.1667V18.25H12.2084Z"/>
</symbol>
<symbol id="icon-user" viewBox="0 0 512 512">
<path d="M256 0C114.6 0 0 114.6 0 256s114.6 256 256 256s256-114.6 256-256S397.4 0 256 0zM256 128c39.77 0 72 32.24 72 72S295.8 272 256 272c-39.76 0-72-32.24-72-72S216.2 128 256 128zM256 448c-52.93 0-100.9-21.53-135.7-56.29C136.5 349.9 176.5 320 224 320h64c47.54 0 87.54 29.88 103.7 71.71C356.9 426.5 308.9 448 256 448z"/>
</symbol>
<symbol id="icon-caret" viewBox="0 0 24 24">
<path d="M6.10204 8C5.0281 8 4.45412 9.2649 5.16132 10.0731L10.6831 16.3838C11.3804 17.1806 12.6199 17.1806 13.3172 16.3838L18.839 10.0731C19.5462 9.2649 18.9722 8 17.8983 8H6.10204Z"/>
</symbol>
<symbol id="icon-right" viewBox="0 0 11 18">
<path d="M10.4717 8.62298C10.4717 8.49929 10.4473 8.38373 10.3985 8.2763C10.3497 8.16888 10.2797 8.0696 10.1885 7.97845L2.45416 0.400329C2.27838 0.231059 2.06354 0.146423 1.80963 0.146423C1.64687 0.146423 1.49713 0.185486 1.36041 0.263611C1.22369 0.341736 1.11627 0.44753 1.03815 0.580993C0.960022 0.714457 0.920959 0.865825 0.920959 1.0351C0.920959 1.27598 1.00559 1.48757 1.17487 1.66986L8.28424 8.62298L1.17487 15.5761C1.00559 15.7584 0.920959 15.97 0.920959 16.2109C0.920959 16.3802 0.960022 16.5316 1.03815 16.665C1.11627 16.7985 1.22369 16.9043 1.36041 16.9823C1.49713 17.0605 1.64687 17.0995 1.80963 17.0995C2.06354 17.0995 2.27838 17.0117 2.45416 16.8359L10.1885 9.26751C10.2797 9.17637 10.3497 9.07709 10.3985 8.96966C10.4473 8.86224 10.4717 8.74668 10.4717 8.62298Z"/>
</symbol>
<symbol id="icon-right-circle" viewBox="0 0 21 21">
<path fill-rule="evenodd" clip-rule="evenodd" d="M14.1152 19.287C12.914 19.8079 11.6331 20.0683 10.2724 20.0683C8.91172 20.0683 7.6308 19.8079 6.42962 19.287C5.22846 18.7662 4.16889 18.0468 3.25091 17.1288C2.33295 16.2109 1.61355 15.1513 1.09271 13.9501C0.571879 12.749 0.311462 11.4681 0.311462 10.1074C0.311462 8.74668 0.571879 7.46576 1.09271 6.26458C1.61355 5.06342 2.33132 4.00385 3.24603 3.08587C4.16075 2.16791 5.21869 1.44851 6.41986 0.927673C7.62104 0.40684 8.90196 0.146423 10.2626 0.146423C11.6233 0.146423 12.9059 0.40684 14.1103 0.927673C15.3147 1.44851 16.3759 2.16791 17.2939 3.08587C18.2119 4.00385 18.9313 5.06342 19.4521 6.26458C19.9729 7.46576 20.2334 8.74668 20.2334 10.1074C20.2334 11.4681 19.9729 12.749 19.4521 13.9501C18.9313 15.1513 18.2119 16.2109 17.2939 17.1288C16.3759 18.0468 15.3164 18.7662 14.1152 19.287ZM7.73335 14.5458C7.73335 14.7574 7.81147 14.9413 7.96772 15.0976C8.09792 15.2213 8.2737 15.2799 8.49506 15.2734C8.71641 15.2669 8.8987 15.1952 9.04194 15.0585L13.2314 11.1132C13.4267 10.9374 13.5553 10.7274 13.6172 10.4833C13.679 10.2392 13.679 9.99505 13.6172 9.75091C13.5553 9.50677 13.4267 9.29681 13.2314 9.12103L9.04194 5.18548C8.88568 5.03574 8.70502 4.95598 8.49995 4.94622C8.29487 4.93646 8.12071 5.00319 7.97749 5.14642C7.82123 5.29616 7.73985 5.47845 7.73335 5.6933C7.72683 5.90814 7.8017 6.08717 7.95795 6.2304L12.0986 10.1171L7.95795 14.0136C7.80821 14.1568 7.73335 14.3342 7.73335 14.5458Z"/>
</symbol>
<symbol id="icon-left-circle" viewBox="0 0 21 21">
<path fill-rule="evenodd" clip-rule="evenodd" d="M13.823 19.287C12.6219 19.8079 11.3409 20.0683 9.98023 20.0683C8.61955 20.0683 7.33862 19.8079 6.13745 19.287C4.93628 18.7662 3.87671 18.0468 2.95874 17.1288C2.04077 16.2109 1.32137 15.1513 0.800537 13.9501C0.279704 12.749 0.0192871 11.4681 0.0192871 10.1074C0.0192871 8.74668 0.279704 7.46576 0.800537 6.26458C1.32137 5.06342 2.03914 4.00385 2.95386 3.08587C3.86857 2.16791 4.92651 1.44851 6.12769 0.927673C7.32886 0.40684 8.60978 0.146423 9.97046 0.146423C11.3311 0.146423 12.6137 0.40684 13.8181 0.927673C15.0226 1.44851 16.0838 2.16791 17.0017 3.08587C17.9197 4.00385 18.6391 5.06342 19.1599 6.26458C19.6808 7.46576 19.9412 8.74668 19.9412 10.1074C19.9412 11.4681 19.6808 12.749 19.1599 13.9501C18.6391 15.1513 17.9197 16.2109 17.0017 17.1288C16.0838 18.0468 15.0242 18.7662 13.823 19.287ZM11.4011 15.1073C11.6127 15.1138 11.7836 15.0553 11.9138 14.9316C12.0635 14.7883 12.1384 14.6125 12.1384 14.4042C12.1384 14.1959 12.0668 14.0233 11.9236 13.8866L7.90991 10.1074L11.9236 6.33782C12.0733 6.19459 12.1449 6.0188 12.1384 5.81047C12.1319 5.60214 12.0538 5.42961 11.9041 5.29289C11.7674 5.15618 11.5997 5.09107 11.4011 5.09758C11.2026 5.10409 11.0284 5.17896 10.8787 5.32219L6.8064 9.15032C6.62411 9.31959 6.50204 9.52141 6.44019 9.75579C6.37834 9.99016 6.37834 10.2245 6.44019 10.4589C6.50204 10.6933 6.62411 10.8951 6.8064 11.0644L10.8787 14.9023C11.0154 15.0325 11.1896 15.1008 11.4011 15.1073Z"/>
</symbol>
<symbol id="icon-play" viewBox="0 0 16 17">
<path d="M1.50904 16.5527C1.70434 16.5527 1.88989 16.5185 2.06568 16.4502C2.24146 16.3819 2.427 16.2891 2.62232 16.1719L14.0091 9.58984C14.4192 9.34896 14.704 9.13575 14.8636 8.9502C15.023 8.76465 15.1028 8.54167 15.1028 8.28125C15.1028 8.02083 15.023 7.79785 14.8636 7.6123C14.704 7.42675 14.4192 7.21679 14.0091 6.98242L2.62232 0.390625C2.427 0.279948 2.24146 0.190429 2.06568 0.12207C1.88989 0.0537108 1.70434 0.0195312 1.50904 0.0195312C1.15096 0.0195312 0.86613 0.146485 0.654541 0.400391C0.442953 0.654297 0.337158 0.99284 0.337158 1.41602V15.1465C0.337158 15.5696 0.442953 15.9098 0.654541 16.167C0.86613 16.4241 1.15096 16.5527 1.50904 16.5527Z"/>
</symbol>
<symbol id="icon-more-circle-fill" viewBox="0 0 32 32">
<path d="M16 30C23.732 30 30 23.732 30 16C30 8.26801 23.732 2 16 2C8.26801 2 2 8.26801 2 16C2 23.732 8.26801 30 16 30ZM10 18C8.89543 18 8 17.1046 8 16C8 14.8954 8.89543 14 10 14C11.1046 14 12 14.8954 12 16C12 17.1046 11.1046 18 10 18ZM18 16C18 17.1046 17.1046 18 16 18C14.8954 18 14 17.1046 14 16C14 14.8954 14.8954 14 16 14C17.1046 14 18 14.8954 18 16ZM22 18C20.8954 18 20 17.1046 20 16C20 14.8954 20.8954 14 22 14C23.1046 14 24 14.8954 24 16C24 17.1046 23.1046 18 22 18Z"/>
</symbol>
<symbol id="icon-reset" viewBox="0 0 18 24">
<path d="M0.374329 12.7307C0.374329 13.9352 0.59731 15.0598 1.04327 16.1047C1.48924 17.1496 2.1061 18.0676 2.89386 18.8586C3.68162 19.6497 4.59796 20.2665 5.64288 20.7092C6.68781 21.1519 7.80923 21.3733 9.00714 21.3733C10.1985 21.3733 11.3167 21.1519 12.3616 20.7092C13.4066 20.2665 14.3229 19.6497 15.1106 18.8586C15.8984 18.0676 16.5153 17.1496 16.9612 16.1047C17.4072 15.0598 17.6302 13.9352 17.6302 12.7307C17.6302 11.5393 17.4072 10.4211 16.9612 9.37622C16.5153 8.3313 15.8984 7.41496 15.1106 6.6272C14.3229 5.83944 13.4066 5.22258 12.3616 4.77661C11.3167 4.33065 10.1985 4.10767 9.00714 4.10767C8.70766 4.10767 8.41469 4.12232 8.12824 4.15161C7.84178 4.18091 7.5716 4.2216 7.31769 4.27368L9.91535 1.70532C9.98696 1.62719 10.0407 1.5393 10.0765 1.44165C10.1123 1.34399 10.1302 1.24634 10.1302 1.14868C10.1302 0.920817 10.0569 0.730387 9.91046 0.577392C9.76398 0.424398 9.58331 0.3479 9.36847 0.3479C9.12758 0.3479 8.93552 0.426025 8.7923 0.582275L4.76886 4.66431C4.6061 4.83358 4.52472 5.02889 4.52472 5.25024C4.52472 5.36092 4.54425 5.46509 4.58331 5.56274C4.62238 5.6604 4.68423 5.75155 4.76886 5.83618L8.7923 9.87915C8.93552 10.0289 9.12433 10.1038 9.35871 10.1038C9.58006 10.1038 9.76398 10.0289 9.91046 9.87915C10.0569 9.72941 10.1302 9.54386 10.1302 9.32251C10.1302 9.21834 10.1123 9.11906 10.0765 9.02466C10.0407 8.93026 9.98371 8.844 9.90558 8.76587L6.99542 5.87524C7.28188 5.81014 7.59438 5.76131 7.93292 5.72876C8.27147 5.69621 8.62954 5.67993 9.00714 5.67993C9.98373 5.67993 10.8985 5.86222 11.7513 6.22681C12.6041 6.59139 13.3528 7.09595 13.9973 7.74048C14.6419 8.38501 15.1464 9.13371 15.511 9.98657C15.8756 10.8395 16.0579 11.7542 16.0579 12.7307C16.0579 13.7138 15.8756 14.6334 15.511 15.4895C15.1464 16.3456 14.6419 17.0976 13.9973 17.7454C13.3528 18.3931 12.6041 18.8977 11.7513 19.259C10.8985 19.6203 9.98373 19.801 9.00714 19.801C8.02407 19.801 7.1061 19.6203 6.25324 19.259C5.40037 18.8977 4.65167 18.3931 4.00714 17.7454C3.36261 17.0976 2.85806 16.3456 2.49347 15.4895C2.12889 14.6334 1.9466 13.7138 1.9466 12.7307C1.9466 12.4963 1.87824 12.3026 1.74152 12.1497C1.6048 11.9967 1.41925 11.9202 1.18488 11.9202C0.9505 11.9202 0.756815 11.9967 0.603821 12.1497C0.450826 12.3026 0.374329 12.4963 0.374329 12.7307Z"/>
</symbol>
<symbol id="icon-play-circle" viewBox="0 0 21 20">
<path d="M10.6353 19.9219C11.996 19.9219 13.2769 19.6615 14.478 19.1406C15.6792 18.6198 16.7388 17.9004 17.6567 16.9824C18.5747 16.0645 19.2941 15.0049 19.8149 13.8037C20.3358 12.6026 20.5962 11.3216 20.5962 9.96094C20.5962 8.60026 20.3358 7.31933 19.8149 6.11816C19.2941 4.91699 18.5747 3.85742 17.6567 2.93945C16.7388 2.02148 15.6776 1.30208 14.4731 0.78125C13.2687 0.260417 11.9862 0 10.6255 0C9.26481 0 7.98389 0.260417 6.78272 0.78125C5.58154 1.30208 4.5236 2.02148 3.60889 2.93945C2.69417 3.85742 1.9764 4.91699 1.45557 6.11816C0.934733 7.31933 0.674316 8.60026 0.674316 9.96094C0.674316 11.3216 0.934733 12.6026 1.45557 13.8037C1.9764 15.0049 2.6958 16.0645 3.61377 16.9824C4.53174 17.9004 5.59131 18.6198 6.79248 19.1406C7.99365 19.6615 9.27458 19.9219 10.6353 19.9219ZM10.6353 18.2617C9.48291 18.2617 8.40544 18.0469 7.40284 17.6172C6.40023 17.1875 5.51969 16.5935 4.76123 15.835C4.00277 15.0765 3.41032 14.196 2.98389 13.1934C2.55745 12.1908 2.34424 11.1133 2.34424 9.96094C2.34424 8.80859 2.55745 7.73112 2.98389 6.72852C3.41032 5.72591 4.00114 4.84375 4.75635 4.08203C5.51155 3.32031 6.39046 2.72623 7.39307 2.2998C8.39567 1.87337 9.47315 1.66016 10.6255 1.66016C11.7778 1.66016 12.8553 1.87337 13.8579 2.2998C14.8605 2.72623 15.7427 3.32031 16.5044 4.08203C17.2661 4.84375 17.8619 5.72591 18.2915 6.72852C18.7212 7.73112 18.936 8.80859 18.936 9.96094C18.936 11.1133 18.7228 12.1908 18.2964 13.1934C17.87 14.196 17.2775 15.0765 16.519 15.835C15.7605 16.5935 14.8784 17.1875 13.8725 17.6172C12.8667 18.0469 11.7876 18.2617 10.6353 18.2617ZM8.80909 13.7793L14.3755 10.498C14.5773 10.3743 14.6766 10.1986 14.6733 9.9707C14.67 9.74284 14.5708 9.57031 14.3755 9.45312L8.80909 6.15234C8.60075 6.02865 8.38591 6.00912 8.16455 6.09375C7.94319 6.17838 7.83252 6.33789 7.83252 6.57227V13.3594C7.83252 13.6003 7.93831 13.7646 8.14991 13.8525C8.36149 13.9404 8.58122 13.916 8.80909 13.7793Z"/>
</symbol>
<symbol id="icon-left-double" viewBox="0 0 19 18">
<path d="M8.6972 17.2851C8.78184 17.3698 8.87624 17.4349 8.98041 17.4804C9.08458 17.526 9.20176 17.5488 9.33197 17.5488C9.50124 17.5488 9.65261 17.5097 9.78607 17.4316C9.91954 17.3535 10.0253 17.2477 10.1035 17.1142C10.1816 16.9807 10.2206 16.8294 10.2206 16.6601C10.2206 16.4192 10.136 16.2077 9.96674 16.0254L2.32025 8.54489V9.58982L9.96674 2.11911C10.136 1.93682 10.2206 1.72523 10.2206 1.48434C10.2206 1.31507 10.1816 1.16208 10.1035 1.02536C10.0253 0.888641 9.91954 0.78122 9.78607 0.703095C9.65261 0.62497 9.50124 0.585907 9.33197 0.585907C9.08458 0.585907 8.87299 0.673798 8.6972 0.849579L0.96283 8.41794C0.865173 8.49606 0.791931 8.59372 0.743103 8.71091C0.694275 8.82809 0.669861 8.94854 0.669861 9.07224C0.669861 9.31963 0.764262 9.53773 0.953064 9.72653L8.6972 17.2851ZM17.4179 17.2851C17.5025 17.3698 17.5986 17.4349 17.706 17.4804C17.8134 17.526 17.929 17.5488 18.0527 17.5488C18.2219 17.5488 18.3749 17.5097 18.5117 17.4316C18.6484 17.3535 18.7558 17.2477 18.834 17.1142C18.912 16.9807 18.9511 16.8294 18.9511 16.6601C18.9511 16.4192 18.8632 16.2077 18.6875 16.0254L11.0508 8.54489V9.58982L18.6875 2.11911C18.8632 1.93682 18.9511 1.72523 18.9511 1.48434C18.9511 1.31507 18.912 1.16208 18.834 1.02536C18.7558 0.888641 18.6484 0.78122 18.5117 0.703095C18.3749 0.62497 18.2219 0.585907 18.0527 0.585907C17.8118 0.585907 17.6002 0.673798 17.4179 0.849579L9.68353 8.41794C9.59238 8.49606 9.52077 8.59372 9.46869 8.71091C9.4166 8.82809 9.39056 8.94854 9.39056 9.07224C9.39056 9.31963 9.48822 9.53773 9.68353 9.72653L17.4179 17.2851Z"/>
</symbol>
<symbol id="icon-right-double" viewBox="0 0 19 18">
<path d="M1.47614 17.5488C1.60634 17.5488 1.72516 17.526 1.83258 17.4804C1.94 17.4349 2.03603 17.3698 2.12066 17.2851L9.85504 9.72653C10.0438 9.53773 10.1382 9.31963 10.1382 9.07224C10.1382 8.94854 10.1138 8.82809 10.065 8.71091C10.0162 8.59372 9.94619 8.49606 9.85504 8.41794L2.1109 0.849579C1.93512 0.673798 1.72353 0.585907 1.47614 0.585907C1.30686 0.585907 1.1555 0.62497 1.02203 0.703095C0.88857 0.78122 0.782776 0.888641 0.704651 1.02536C0.626526 1.16208 0.587463 1.31507 0.587463 1.48434C0.587463 1.72523 0.672099 1.93682 0.841369 2.11911L8.48785 9.58982V8.54489L0.841369 16.0254C0.672099 16.2077 0.587463 16.4192 0.587463 16.6601C0.587463 16.8294 0.626526 16.9807 0.704651 17.1142C0.782776 17.2477 0.88857 17.3535 1.02203 17.4316C1.1555 17.5097 1.30686 17.5488 1.47614 17.5488ZM10.2066 17.5488C10.3303 17.5488 10.4459 17.526 10.5533 17.4804C10.6607 17.4349 10.7568 17.3698 10.8414 17.2851L18.5758 9.72653C18.771 9.53773 18.8687 9.31963 18.8687 9.07224C18.8687 8.94854 18.8426 8.82809 18.7906 8.71091C18.7385 8.59372 18.6669 8.49606 18.5758 8.41794L10.8414 0.849579C10.6591 0.673798 10.4475 0.585907 10.2066 0.585907C10.0373 0.585907 9.88596 0.62497 9.7525 0.703095C9.61904 0.78122 9.51161 0.888641 9.43023 1.02536C9.34885 1.16208 9.30816 1.31507 9.30816 1.48434C9.30816 1.72523 9.39606 1.93682 9.57184 2.11911L17.2086 9.58982V8.54489L9.57184 16.0254C9.39606 16.2077 9.30816 16.4192 9.30816 16.6601C9.30816 16.8294 9.34885 16.9807 9.43023 17.1142C9.51161 17.2477 9.61904 17.3535 9.7525 17.4316C9.88596 17.5097 10.0373 17.5488 10.2066 17.5488Z"/>
</symbol>
<symbol id="icon-left" viewBox="0 0 11 18">
<path d="M0.628815 8.62298C0.628815 8.74668 0.651601 8.86224 0.697174 8.96966C0.742747 9.07709 0.811107 9.17637 0.902253 9.26751L8.64639 16.8359C8.82218 17.0117 9.03376 17.0995 9.28115 17.0995C9.45043 17.0995 9.6018 17.0605 9.73526 16.9823C9.86872 16.9043 9.97614 16.7985 10.0575 16.665C10.1389 16.5316 10.1796 16.3802 10.1796 16.2109C10.1796 15.97 10.0917 15.7584 9.91593 15.5761L2.80654 8.62298L9.91593 1.66986C10.0917 1.48757 10.1796 1.27598 10.1796 1.0351C10.1796 0.865825 10.1389 0.714457 10.0575 0.580993C9.97614 0.44753 9.86872 0.341736 9.73526 0.263611C9.6018 0.185486 9.45043 0.146423 9.28115 0.146423C9.03376 0.146423 8.82218 0.231059 8.64639 0.400329L0.902253 7.97845C0.811107 8.0696 0.742747 8.16888 0.697174 8.2763C0.651601 8.38373 0.628815 8.49929 0.628815 8.62298Z"/>
</symbol>
<symbol id="icon-right" viewBox="0 0 11 18">
<path d="M10.4717 8.62298C10.4717 8.49929 10.4473 8.38373 10.3985 8.2763C10.3497 8.16888 10.2797 8.0696 10.1885 7.97845L2.45416 0.400329C2.27838 0.231059 2.06354 0.146423 1.80963 0.146423C1.64687 0.146423 1.49713 0.185486 1.36041 0.263611C1.22369 0.341736 1.11627 0.44753 1.03815 0.580993C0.960022 0.714457 0.920959 0.865825 0.920959 1.0351C0.920959 1.27598 1.00559 1.48757 1.17487 1.66986L8.28424 8.62298L1.17487 15.5761C1.00559 15.7584 0.920959 15.97 0.920959 16.2109C0.920959 16.3802 0.960022 16.5316 1.03815 16.665C1.11627 16.7985 1.22369 16.9043 1.36041 16.9823C1.49713 17.0605 1.64687 17.0995 1.80963 17.0995C2.06354 17.0995 2.27838 17.0117 2.45416 16.8359L10.1885 9.26751C10.2797 9.17637 10.3497 9.07709 10.3985 8.96966C10.4473 8.86224 10.4717 8.74668 10.4717 8.62298Z"/>
</symbol>
<symbol id="icon-arrow-next" viewBox="0 0 24 24">
<path d="M3.66667 12.6666L18.7 12.6666L12.3 19.0666C12.0333 19.3333 12.0333 19.7333 12.3 20C12.5667 20.2666 12.9667 20.2666 13.2333 20L20.8 12.4666C21.0667 12.2 21.0667 11.8 20.8 11.5333L13.2667 3.99995C13 3.73329 12.6 3.73329 12.3333 3.99995C12.0667 4.26662 12.0667 4.66662 12.3333 4.93329L18.7 11.3333L3.66667 11.3333C3.3 11.3333 3 11.6333 3 12C3 12.3666 3.3 12.6666 3.66667 12.6666Z"/>
</symbol>
<symbol id="icon-up" viewBox="0 0 21 21">
<path fill-rule="evenodd" clip-rule="evenodd" d="M14.6312 19.7265C13.4301 20.2474 12.1491 20.5078 10.7884 20.5078C9.42774 20.5078 8.14682 20.2474 6.94564 19.7265C5.74448 19.2057 4.68491 18.4863 3.76693 17.5683C2.84897 16.6504 2.12957 15.5908 1.60873 14.3896C1.0879 13.1885 0.827484 11.9076 0.827484 10.5468C0.827484 9.18617 1.0879 7.90524 1.60873 6.70407C2.12957 5.5029 2.84734 4.44333 3.76205 3.52536C4.67677 2.60739 5.73471 1.88799 6.93588 1.36716C8.13706 0.846324 9.41798 0.585907 10.7787 0.585907C12.1393 0.585907 13.4219 0.846324 14.6263 1.36716C15.8308 1.88799 16.892 2.60739 17.8099 3.52536C18.7279 4.44333 19.4473 5.5029 19.9681 6.70407C20.489 7.90524 20.7494 9.18617 20.7494 10.5468C20.7494 11.9076 20.489 13.1885 19.9681 14.3896C19.4473 15.5908 18.7279 16.6504 17.8099 17.5683C16.892 18.4863 15.8324 19.2057 14.6312 19.7265ZM5.61264 12.3779C5.60612 12.583 5.67448 12.7539 5.81771 12.8906C5.97396 13.0533 6.15788 13.1363 6.36947 13.1396C6.58106 13.1429 6.75847 13.0664 6.9017 12.9101L10.7982 8.77926L14.6947 12.9101C14.8379 13.0664 15.0153 13.1429 15.2269 13.1396C15.4385 13.1363 15.6224 13.0533 15.7787 12.8906C15.9219 12.7539 15.9902 12.583 15.9837 12.3779C15.9772 12.1728 15.8958 11.9889 15.7396 11.8261L11.8041 7.63668C11.5892 7.40882 11.3678 7.25908 11.14 7.18746C10.9121 7.11585 10.6842 7.11748 10.4564 7.19235C10.2285 7.26722 10.0072 7.41533 9.79232 7.63668L5.85678 11.8261C5.70052 11.9889 5.61914 12.1728 5.61264 12.3779Z"/>
</symbol>
<symbol id="icon-alert-triangle" viewBox="0 0 24 24">
<path d="M11.148 4.374c0.073-0.123 0.185-0.242 0.334-0.332 0.236-0.143 0.506-0.178 0.756-0.116s0.474 0.216 0.614 0.448l8.466 14.133c0.070 0.12 0.119 0.268 0.128 0.434-0.015 0.368-0.119 0.591-0.283 0.759-0.18 0.184-0.427 0.298-0.693 0.301l-16.937-0.001c-0.152-0.001-0.321-0.041-0.481-0.134-0.239-0.138-0.399-0.359-0.466-0.607s-0.038-0.519 0.092-0.745zM9.432 3.346l-8.47 14.14c-0.422 0.731-0.506 1.55-0.308 2.29s0.68 1.408 1.398 1.822c0.464 0.268 0.976 0.4 1.475 0.402h16.943c0.839-0.009 1.587-0.354 2.123-0.902s0.864-1.303 0.855-2.131c-0.006-0.536-0.153-1.044-0.406-1.474l-8.474-14.147c-0.432-0.713-1.11-1.181-1.854-1.363s-1.561-0.081-2.269 0.349c-0.429 0.26-0.775 0.615-1.012 1.014zM11 9v4c0 0.552 0.448 1 1 1s1-0.448 1-1v-4c0-0.552-0.448-1-1-1s-1 0.448-1 1zM12 18c0.552 0 1-0.448 1-1s-0.448-1-1-1-1 0.448-1 1 0.448 1 1 1z"></path>
</symbol>
<symbol id="icon-edit" viewBox="0 0 21 21">
<path d="M3.79663 19.2887H15.2614C16.1404 19.2887 16.8223 19.0364 17.3073 18.5318C17.7924 18.0273 18.0349 17.2704 18.0349 16.2613V5.82187L16.4626 7.39414V16.1832C16.4626 16.691 16.3422 17.0735 16.1013 17.3307C15.8605 17.5878 15.574 17.7164 15.2419 17.7164H3.82592C3.33764 17.7164 2.96167 17.5878 2.69799 17.3307C2.43433 17.0735 2.30249 16.691 2.30249 16.1832V5.09922C2.30249 4.59141 2.43433 4.20729 2.69799 3.94687C2.96167 3.68646 3.33764 3.55625 3.82592 3.55625H12.7224L14.2947 1.98398H3.79663C2.78101 1.98398 2.01603 2.23626 1.50171 2.74082C0.987386 3.24538 0.730225 4.00222 0.730225 5.01133V16.2613C0.730225 17.2704 0.987386 18.0273 1.50171 18.5318C2.01603 19.0364 2.78101 19.2887 3.79663 19.2887ZM7.35131 12.9605L9.25561 12.1305L18.3767 3.01914L17.0388 1.70078L7.92749 10.8121L7.04858 12.648C7.00952 12.7327 7.02743 12.8157 7.10229 12.8971C7.17717 12.9784 7.26017 12.9996 7.35131 12.9605ZM19.0993 2.30625L19.8025 1.58359C19.9653 1.40781 20.0483 1.21413 20.0515 1.00254C20.0548 0.790951 19.9718 0.603776 19.8025 0.441016L19.5779 0.206641C19.4281 0.0569011 19.2475 -0.0114584 19.0359 0.0015625C18.8243 0.0145833 18.6371 0.0992188 18.4743 0.255469L17.7614 0.958594L19.0993 2.30625Z"/>
</symbol>
<symbol id="icon-loading" viewBox="0 0 100 100">
<path opacity="0.0833333" d="M69.402 10.395L59.902 26.8494C59.0736 28.2843 59.5652 30.1191 61.0001 30.9475C62.4349 31.7759 64.2697 31.2843 65.0981 29.8494L74.5981 13.395C75.4266 11.9601 74.9349 10.1253 73.5001 9.29688C72.0652 8.46845 70.2304 8.96007 69.402 10.395Z"/>
<path opacity="0.166667" d="M86.6052 25.402L70.1507 34.902C68.7158 35.7304 68.2242 37.5652 69.0526 39.0001C69.881 40.4349 71.7158 40.9266 73.1507 40.0981L89.6052 30.5981C91.04 29.7697 91.5317 27.9349 90.7032 26.5001C89.8748 25.0652 88.04 24.5736 86.6052 25.402Z"/>
<path opacity="0.25" d="M94 47H75C73.3431 47 72 48.3431 72 50C72 51.6569 73.3431 53 75 53H94C95.6569 53 97 51.6569 97 50C97 48.3431 95.6569 47 94 47Z"/>
<path opacity="0.333333" d="M89.6052 69.402L73.1507 59.902C71.7158 59.0736 69.881 59.5652 69.0526 61.0001C68.2242 62.4349 68.7158 64.2697 70.1507 65.0981L86.6052 74.5981C88.04 75.4266 89.8748 74.9349 90.7032 73.5001C91.5317 72.0652 91.04 70.2304 89.6052 69.402Z"/>
<path opacity="0.416667" d="M74.598 86.6052L65.098 70.1507C64.2696 68.7158 62.4348 68.2242 60.9999 69.0526C59.5651 69.881 59.0734 71.7158 59.9019 73.1507L69.4019 89.6052C70.2303 91.04 72.0651 91.5317 73.4999 90.7032C74.9348 89.8748 75.4264 88.04 74.598 86.6052Z"/>
<path opacity="0.5" d="M53 94V75C53 73.3431 51.6569 72 50 72C48.3431 72 47 73.3431 47 75V94C47 95.6569 48.3431 97 50 97C51.6569 97 53 95.6569 53 94Z"/>
<path opacity="0.583333" d="M30.598 89.6052L40.098 73.1507C40.9264 71.7158 40.4348 69.881 38.9999 69.0526C37.5651 68.2242 35.7303 68.7158 34.9019 70.1507L25.4019 86.6052C24.5734 88.04 25.0651 89.8748 26.4999 90.7032C27.9348 91.5317 29.7696 91.04 30.598 89.6052Z"/>
<path opacity="0.666667" d="M13.3948 74.598L29.8493 65.098C31.2842 64.2696 31.7758 62.4348 30.9474 60.9999C30.119 59.5651 28.2842 59.0734 26.8493 59.9019L10.3948 69.4019C8.95995 70.2303 8.46833 72.0651 9.29675 73.4999C10.1252 74.9348 11.96 75.4264 13.3948 74.598Z"/>
<path opacity="0.75" d="M6 53H25C26.6569 53 28 51.6569 28 50C28 48.3431 26.6569 47 25 47H6C4.34315 47 3 48.3431 3 50C3 51.6569 4.34315 53 6 53Z"/>
<path opacity="0.833333" d="M10.3948 30.598L26.8493 40.098C28.2842 40.9264 30.119 40.4348 30.9474 38.9999C31.7758 37.5651 31.2842 35.7303 29.8493 34.9019L13.3948 25.4019C11.96 24.5734 10.1252 25.0651 9.29675 26.4999C8.46833 27.9348 8.95995 29.7696 10.3948 30.598Z"/>
<path opacity="0.916667" d="M25.402 13.3948L34.902 29.8493C35.7304 31.2842 37.5652 31.7758 39.0001 30.9474C40.4349 30.119 40.9266 28.2842 40.0981 26.8493L30.5981 10.3948C29.7697 8.95995 27.9349 8.46833 26.5001 9.29675C25.0652 10.1252 24.5736 11.96 25.402 13.3948Z"/>
</symbol>
</defs>
</svg>